<svg width="1440" height="240" viewBox="0 0 1440 240" fill="none" xmlns="http://www.w3.org/2000/svg">
<g clip-path="url(#clip0)">
<path d="M224.977 66.4254C61.0774 66.4254 -21.4417 0 -199 0L-43.5 283H1440V19.7911C1295.45 19.7911 1293.74 41.6455 1123.01 52.438C1000.66 60.1727 901.331 43.3598 827.082 28.2114C607.411 -16.6064 495.43 66.4254 224.977 66.4254Z" fill="#EAEFE2"/>
<path d="M997.881 127.689C1005.12 147.026 1045.02 153.253 1062.65 154.812C1071.69 155.851 1086.55 154.966 1099.35 152.582C1109.77 150.641 1118.76 147.805 1124.55 142.613C1129.74 137.965 1130.88 133.584 1129.62 128.348C1127.68 123.098 1121.98 120.396 1117.83 119.402C1118.66 99.8156 1101.6 81.6654 1090.52 74.4922C1081.18 69.3093 1070.27 67.2703 1057.17 67.6106C1044.04 67.9516 1028.05 73.3666 1018.31 81.1495C1010.59 87.3167 1004.29 96.498 1001.78 100.972C998.627 106.575 993.881 116.999 997.881 127.689Z" fill="#B9ED4A" stroke="black" stroke-width="4" stroke-linejoin="round"/>
<path d="M1030.69 106.854C1030.05 107.772 1027.94 109.788 1026.58 110.803" stroke="black" stroke-width="1.5" stroke-linecap="round"/>
<path d="M1010.26 104.887C1012.76 105.083 1017.96 105.845 1022.77 105.701C1031.4 105.442 1035.21 107.009 1040.23 107.235C1043.76 107.394 1051.9 106.914 1051.9 106.914" stroke="black" stroke-linecap="round" stroke-linejoin="round"/>
<circle cx="1016.38" cy="90.621" r="3" transform="rotate(8.29216 1016.38 90.621)" fill="black"/>
<circle cx="1026.88" cy="101.752" r="1" transform="rotate(8.29216 1026.88 101.752)" fill="black"/>
<circle cx="1033.88" cy="102.267" r="1" transform="rotate(8.29216 1033.88 102.267)" fill="black"/>
<circle cx="1052.29" cy="93.8339" r="3.5" transform="rotate(8.29216 1052.29 93.8339)" fill="black"/>
<path d="M1073.68 116.109C1075.74 114.81 1077.88 113.978 1079.02 115.059C1080.16 116.14 1080.26 118.44 1074.79 120.386" stroke="black" stroke-width="3" stroke-linecap="round"/>
<path d="M1000.33 103.635C1000.66 97.9305 988.435 95.1375 997.94 109.661L1000.33 103.635Z" fill="#B9ED4A" stroke="black" stroke-width="3.5"/>
<circle cx="1021.5" cy="89.5" r="8.5" fill="black"/>
<ellipse cx="1019.18" cy="87.182" rx="4" ry="3.74364" transform="rotate(-45 1019.18 87.182)" fill="white"/>
<circle cx="1025" cy="90.5" r="2.5" fill="white"/>
<circle cx="1020" cy="93.5" r="2" fill="white"/>
<circle cx="1054" cy="90" r="9" fill="black"/>
<ellipse cx="1051.77" cy="87.7656" rx="4.64" ry="4.46246" transform="rotate(-45 1051.77 87.7656)" fill="white"/>
<circle cx="1058.6" cy="91.7057" r="2.9" fill="white"/>
<circle cx="1052.8" cy="95.1755" r="2.32" fill="white"/>
<path d="M1081.5 93L1076.5 100L1089.5 106.5L1094 99.5" stroke="black" stroke-width="3" stroke-linecap="round" stroke-linejoin="round"/>
<path d="M1090 93L1060 133" stroke="black" stroke-width="3" stroke-linecap="round"/>
<path d="M985.053 65C985.053 61.8 985.387 59.3333 985.553 58.5C985.553 58.5 987.709 62.2926 988.053 63.5C990.053 70.5 987.553 70 987.053 70C986.553 70 985.053 69 985.053 65Z" fill="black" stroke="black"/>
<path d="M996.054 56C994.054 59 989.393 67.5848 993.053 68.5C995.053 69 995.72 61.6667 996.054 56Z" fill="black" stroke="black"/>
<path d="M1005.05 71.4998C1003.17 70.1981 996.553 67.601 996.553 69.9997C996.553 73.5 1002.55 73 1005.05 71.4998Z" fill="black" stroke="black"/>
<path d="M999.864 82.7654C999.449 80.5115 996.553 75 994.907 75.6991C991.686 77.0673 997.035 82.0611 999.864 82.7654Z" fill="black" stroke="black"/>
<path d="M989.975 86.904C990.821 84.7739 991.298 78.5666 989.532 78.2838C986.076 77.7304 987.953 84.8036 989.975 86.904Z" fill="black" stroke="black"/>
<path d="M970.242 77.6377C972.566 78.5826 979.374 79.1768 979.715 77.2619C980.382 73.5139 972.583 75.4664 970.242 77.6377Z" fill="black" stroke="black"/>
<path d="M973.553 64.4996C974.053 68.0001 981.125 74.7125 983.053 73.9993C986.828 72.6034 977.553 64.4991 973.553 64.4996Z" fill="black" stroke="black"/>
<path d="M978.053 88.0009C981.492 87.1782 986.061 82.2922 985.053 80.5C982.927 76.7194 977.682 84.0182 978.053 88.0009Z" fill="black" stroke="black"/>
<path d="M1135.05 82.3792C1132.78 83.0597 1130.05 87.8789 1131.74 89.2625C1132.79 90.1161 1134.55 85.8794 1135.05 82.3792Z" fill="black" stroke="black"/>
<path d="M1139.95 88.3257C1138.45 87.8255 1135.45 88.3805 1135.55 89.8782C1135.65 91.4306 1139.05 90.3789 1139.95 88.3257Z" fill="black" stroke="black"/>
<path d="M1142.55 98.8795C1141.55 96.3797 1137.15 92.6681 1136.15 93.88C1134.68 95.6483 1138.55 99.379 1142.55 98.8795Z" fill="black" stroke="black"/>
<path d="M1132.91 105.4C1135.41 102.9 1134.68 96.8649 1133.55 96.5307C1131.16 95.8185 1132.05 101.879 1132.91 105.4Z" fill="black" stroke="black"/>
<path d="M1122.05 103.379C1128.05 103.38 1130.55 97.1724 1129.05 96.3794C1127.55 95.5864 1123.55 100.88 1122.05 103.379Z" fill="black" stroke="black"/>
<path d="M1118.74 91.0935C1121.05 94.8789 1124.58 96.2038 1125.55 95.3788C1127.45 93.764 1120.83 90.9741 1118.74 91.0935Z" fill="black" stroke="black"/>
<path d="M1126.55 84.8791C1125.55 88.8789 1126.55 91.2298 1127.64 91.1207C1130.05 90.8789 1127.58 87.2314 1126.55 84.8791Z" fill="black" stroke="black"/>
<path d="M1166.58 81.1551C1168.2 79.1919 1169.65 77.8477 1170.18 77.421C1170.18 77.421 1169.58 80.8405 1169.18 81.7561C1166.86 87.0646 1165.58 85.4901 1165.27 85.2366C1164.96 84.983 1164.55 83.609 1166.58 81.1551Z" fill="black" stroke="black"/>
<path d="M1177.89 81.2112C1175.14 82.0375 1167.93 84.9405 1169.71 87.3584C1170.68 88.6792 1174.81 84.5185 1177.89 81.2112Z" fill="black" stroke="black"/>
<path d="M1175.55 95.2844C1175.05 93.5294 1172.31 88.5824 1171.1 90.0539C1169.32 92.2013 1173.26 94.937 1175.55 95.2844Z" fill="black" stroke="black"/>
<path d="M1166.65 99.5641C1167.54 97.9706 1168.56 93.1214 1167.2 92.7156C1164.53 91.9212 1165.28 97.6973 1166.65 99.5641Z" fill="black" stroke="black"/>
<path d="M1158.49 97.0879C1160.09 96.2101 1163.53 92.6439 1162.59 91.575C1160.75 89.483 1158.31 94.7739 1158.49 97.0879Z" fill="black" stroke="black"/>
<path d="M1151.08 81.3966C1152.03 83.1549 1155.9 86.9714 1157.08 85.9695C1159.39 84.0086 1153.62 81.2517 1151.08 81.3966Z" fill="black" stroke="black"/>
<path d="M1159.78 75.0168C1158.31 77.4178 1159.24 85.1215 1160.79 85.662C1163.81 86.7197 1162.23 77.0449 1159.78 75.0168Z" fill="black" stroke="black"/>
<path d="M1150.62 91.7164C1153.15 92.9555 1158.43 92.2749 1158.72 90.6643C1159.33 87.2668 1152.41 89.0847 1150.62 91.7164Z" fill="black" stroke="black"/>
<path opacity="0.3" fill-rule="evenodd" clip-rule="evenodd" d="M341.975 86C343.63 86 344.971 87.341 344.971 88.9951L344.971 112.515C346.474 112.253 347.586 111.96 348.421 111.626C349.656 111.132 350.084 110.633 350.341 110.119C350.688 109.425 350.918 108.299 350.986 106.168C351.027 104.881 351.01 103.467 350.99 101.782V101.782C350.976 100.651 350.961 99.3987 350.961 97.9804C350.961 96.3262 352.302 94.9853 353.956 94.9853C355.61 94.9853 356.951 96.3263 356.951 97.9805C356.951 99.2013 356.965 100.381 356.978 101.498C356.998 103.315 357.017 104.967 356.973 106.359C356.901 108.627 356.662 110.871 355.699 112.798C354.646 114.904 352.921 116.277 350.646 117.188C349.085 117.812 347.196 118.247 344.971 118.584V118.946C344.971 120.6 343.63 121.941 341.975 121.941C340.321 121.941 338.98 120.6 338.98 118.946L338.98 115.979C338.98 115.958 338.98 115.937 338.98 115.916L338.98 112.956C335.574 112.956 332.772 112.261 330.68 110.752C328.513 109.188 327.459 107.005 327.125 104.791C326.503 100.658 328.321 96.1776 329.881 93.4838C330.711 92.0526 332.543 91.5645 333.975 92.3937C335.406 93.223 335.894 95.0555 335.065 96.4868C333.733 98.7849 332.731 101.792 333.049 103.899C333.185 104.805 333.541 105.429 334.185 105.894C334.904 106.413 336.313 106.966 338.98 106.966V88.9951C338.98 87.341 340.321 86 341.975 86Z" fill="#88A447"/>
<path opacity="0.3" fill-rule="evenodd" clip-rule="evenodd" d="M259.975 106C261.63 106 262.971 107.341 262.971 108.995L262.971 132.515C264.474 132.253 265.586 131.96 266.421 131.626C267.656 131.132 268.084 130.633 268.341 130.119C268.688 129.425 268.918 128.299 268.986 126.168C269.027 124.881 269.01 123.467 268.99 121.782V121.782C268.976 120.651 268.961 119.399 268.961 117.98C268.961 116.326 270.302 114.985 271.956 114.985C273.61 114.985 274.951 116.326 274.951 117.98C274.951 119.201 274.965 120.381 274.978 121.498C274.998 123.315 275.017 124.967 274.973 126.359C274.901 128.627 274.662 130.871 273.699 132.798C272.646 134.904 270.921 136.277 268.646 137.188C267.085 137.812 265.196 138.247 262.971 138.584V138.946C262.971 140.6 261.63 141.941 259.975 141.941C258.321 141.941 256.98 140.6 256.98 138.946L256.98 135.979C256.98 135.958 256.98 135.937 256.98 135.916L256.98 132.956C253.574 132.956 250.772 132.261 248.68 130.752C246.513 129.188 245.459 127.005 245.125 124.791C244.503 120.658 246.321 116.178 247.881 113.484C248.711 112.053 250.543 111.565 251.975 112.394C253.406 113.223 253.894 115.055 253.065 116.487C251.733 118.785 250.731 121.792 251.049 123.899C251.185 124.805 251.541 125.429 252.185 125.894C252.904 126.413 254.313 126.966 256.98 126.966V108.995C256.98 107.341 258.321 106 259.975 106Z" fill="#88A447"/>
<path opacity="0.3" fill-rule="evenodd" clip-rule="evenodd" d="M200.975 120C202.63 120 203.971 121.341 203.971 122.995L203.971 146.515C205.474 146.253 206.586 145.96 207.421 145.626C208.656 145.132 209.084 144.633 209.341 144.119C209.688 143.425 209.918 142.299 209.986 140.168C210.027 138.881 210.01 137.467 209.99 135.782V135.782C209.976 134.651 209.961 133.399 209.961 131.98C209.961 130.326 211.302 128.985 212.956 128.985C214.61 128.985 215.951 130.326 215.951 131.98C215.951 133.201 215.965 134.381 215.978 135.498C215.998 137.315 216.017 138.967 215.973 140.359C215.901 142.627 215.662 144.871 214.699 146.798C213.646 148.904 211.921 150.277 209.646 151.188C208.085 151.812 206.196 152.247 203.971 152.584V152.946C203.971 154.6 202.63 155.941 200.975 155.941C199.321 155.941 197.98 154.6 197.98 152.946L197.98 149.979C197.98 149.958 197.98 149.937 197.98 149.916L197.98 146.956C194.574 146.956 191.772 146.261 189.68 144.752C187.513 143.188 186.459 141.005 186.125 138.791C185.503 134.658 187.321 130.178 188.881 127.484C189.711 126.053 191.543 125.565 192.975 126.394C194.406 127.223 194.894 129.055 194.065 130.487C192.733 132.785 191.731 135.792 192.049 137.899C192.185 138.805 192.541 139.429 193.185 139.894C193.904 140.413 195.313 140.966 197.98 140.966V122.995C197.98 121.341 199.321 120 200.975 120Z" fill="#88A447"/>
<path opacity="0.3" fill-rule="evenodd" clip-rule="evenodd" d="M400.975 135C402.63 135 403.971 136.341 403.971 137.995L403.971 161.515C405.474 161.253 406.586 160.96 407.421 160.626C408.656 160.132 409.084 159.633 409.341 159.119C409.688 158.425 409.918 157.299 409.986 155.168C410.027 153.881 410.01 152.467 409.99 150.782V150.782C409.976 149.651 409.961 148.399 409.961 146.98C409.961 145.326 411.302 143.985 412.956 143.985C414.61 143.985 415.951 145.326 415.951 146.98C415.951 148.201 415.965 149.381 415.978 150.498C415.998 152.315 416.017 153.967 415.973 155.359C415.901 157.627 415.662 159.871 414.699 161.798C413.646 163.904 411.921 165.277 409.646 166.188C408.085 166.812 406.196 167.247 403.971 167.584V167.946C403.971 169.6 402.63 170.941 400.975 170.941C399.321 170.941 397.98 169.6 397.98 167.946L397.98 164.979C397.98 164.958 397.98 164.937 397.98 164.916L397.98 161.956C394.574 161.956 391.772 161.261 389.68 159.752C387.513 158.188 386.459 156.005 386.125 153.791C385.503 149.658 387.321 145.178 388.881 142.484C389.711 141.053 391.543 140.565 392.975 141.394C394.406 142.223 394.894 144.055 394.065 145.487C392.733 147.785 391.731 150.792 392.049 152.899C392.185 153.805 392.541 154.429 393.185 154.894C393.904 155.413 395.313 155.966 397.98 155.966V137.995C397.98 136.341 399.321 135 400.975 135Z" fill="#88A447"/>
</g>
<path d="M675.964 73.2V80.6H688.924V85.8H675.964V96H669.484V68H690.644V73.2H675.964ZM702.685 74.16C706.018 74.16 708.578 74.96 710.365 76.56C712.152 78.1333 713.045 80.52 713.045 83.72V96H707.205V93.32C706.032 95.32 703.845 96.32 700.645 96.32C698.992 96.32 697.552 96.04 696.325 95.48C695.125 94.92 694.205 94.1467 693.565 93.16C692.925 92.1733 692.605 91.0533 692.605 89.8C692.605 87.8 693.352 86.2267 694.845 85.08C696.365 83.9333 698.698 83.36 701.845 83.36H706.805C706.805 82 706.392 80.96 705.565 80.24C704.738 79.4933 703.498 79.12 701.845 79.12C700.698 79.12 699.565 79.3067 698.445 79.68C697.352 80.0267 696.418 80.5067 695.645 81.12L693.405 76.76C694.578 75.9333 695.978 75.2933 697.605 74.84C699.258 74.3867 700.952 74.16 702.685 74.16ZM702.205 92.12C703.272 92.12 704.218 91.88 705.045 91.4C705.872 90.8933 706.458 90.16 706.805 89.2V87H702.525C699.965 87 698.685 87.84 698.685 89.52C698.685 90.32 698.992 90.96 699.605 91.44C700.245 91.8933 701.112 92.12 702.205 92.12ZM724.653 77.32C725.399 76.28 726.399 75.4933 727.653 74.96C728.933 74.4267 730.399 74.16 732.053 74.16V79.92C731.359 79.8667 730.893 79.84 730.653 79.84C728.866 79.84 727.466 80.3467 726.453 81.36C725.439 82.3467 724.933 83.84 724.933 85.84V96H718.693V74.48H724.653V77.32ZM763.323 74.16C766.016 74.16 768.149 74.96 769.723 76.56C771.323 78.1333 772.123 80.5067 772.123 83.68V96H765.883V84.64C765.883 82.9333 765.523 81.6667 764.803 80.84C764.109 79.9867 763.109 79.56 761.803 79.56C760.336 79.56 759.176 80.04 758.323 81C757.469 81.9333 757.043 83.3333 757.043 85.2V96H750.803V84.64C750.803 81.2533 749.443 79.56 746.723 79.56C745.283 79.56 744.136 80.04 743.283 81C742.429 81.9333 742.003 83.3333 742.003 85.2V96H735.763V74.48H741.723V76.96C742.523 76.0533 743.496 75.36 744.643 74.88C745.816 74.4 747.096 74.16 748.483 74.16C750.003 74.16 751.376 74.4667 752.603 75.08C753.829 75.6667 754.816 76.5333 755.563 77.68C756.443 76.56 757.549 75.6933 758.883 75.08C760.243 74.4667 761.723 74.16 763.323 74.16Z" fill="#233433"/>
<path d="M554.899 132.084H548.599L547.357 135H544.945L550.615 122.4H552.919L558.607 135H556.159L554.899 132.084ZM554.125 130.248L551.749 124.74L549.391 130.248H554.125ZM565.448 125.28C566.66 125.28 567.632 125.634 568.364 126.342C569.096 127.05 569.462 128.1 569.462 129.492V135H567.212V129.78C567.212 128.94 567.014 128.31 566.618 127.89C566.222 127.458 565.658 127.242 564.926 127.242C564.098 127.242 563.444 127.494 562.964 127.998C562.484 128.49 562.244 129.204 562.244 130.14V135H559.994V125.388H562.136V126.63C562.508 126.186 562.976 125.85 563.54 125.622C564.104 125.394 564.74 125.28 565.448 125.28ZM577.29 125.388H579.54V135H577.29V125.388ZM578.424 123.804C578.016 123.804 577.674 123.678 577.398 123.426C577.122 123.162 576.984 122.838 576.984 122.454C576.984 122.07 577.122 121.752 577.398 121.5C577.674 121.236 578.016 121.104 578.424 121.104C578.832 121.104 579.174 121.23 579.45 121.482C579.726 121.722 579.864 122.028 579.864 122.4C579.864 122.796 579.726 123.132 579.45 123.408C579.186 123.672 578.844 123.804 578.424 123.804ZM587.948 125.28C589.16 125.28 590.132 125.634 590.864 126.342C591.596 127.05 591.962 128.1 591.962 129.492V135H589.712V129.78C589.712 128.94 589.514 128.31 589.118 127.89C588.722 127.458 588.158 127.242 587.426 127.242C586.598 127.242 585.944 127.494 585.464 127.998C584.984 128.49 584.744 129.204 584.744 130.14V135H582.494V125.388H584.636V126.63C585.008 126.186 585.476 125.85 586.04 125.622C586.604 125.394 587.24 125.28 587.948 125.28ZM598.722 123.336C597.774 123.336 597.3 123.852 597.3 124.884V125.46H599.946V127.26H597.372V135H595.122V127.26H593.538V125.46H595.122V124.848C595.122 123.816 595.422 123.006 596.022 122.418C596.622 121.818 597.468 121.518 598.56 121.518C599.424 121.518 600.102 121.692 600.594 122.04L599.964 123.732C599.58 123.468 599.166 123.336 598.722 123.336ZM601.458 121.644H603.708V135H601.458V121.644ZM610.336 125.28C611.752 125.28 612.832 125.622 613.576 126.306C614.332 126.978 614.71 127.998 614.71 129.366V135H612.586V133.83C612.31 134.25 611.914 134.574 611.398 134.802C610.894 135.018 610.282 135.126 609.562 135.126C608.842 135.126 608.212 135.006 607.672 134.766C607.132 134.514 606.712 134.172 606.412 133.74C606.124 133.296 605.98 132.798 605.98 132.246C605.98 131.382 606.298 130.692 606.934 130.176C607.582 129.648 608.596 129.384 609.976 129.384H612.46V129.24C612.46 128.568 612.256 128.052 611.848 127.692C611.452 127.332 610.858 127.152 610.066 127.152C609.526 127.152 608.992 127.236 608.464 127.404C607.948 127.572 607.51 127.806 607.15 128.106L606.268 126.468C606.772 126.084 607.378 125.79 608.086 125.586C608.794 125.382 609.544 125.28 610.336 125.28ZM610.03 133.488C610.594 133.488 611.092 133.362 611.524 133.11C611.968 132.846 612.28 132.474 612.46 131.994V130.878H610.138C608.842 130.878 608.194 131.304 608.194 132.156C608.194 132.564 608.356 132.888 608.68 133.128C609.004 133.368 609.454 133.488 610.03 133.488ZM623.375 134.478C623.111 134.694 622.787 134.856 622.403 134.964C622.031 135.072 621.635 135.126 621.215 135.126C620.159 135.126 619.343 134.85 618.767 134.298C618.191 133.746 617.903 132.942 617.903 131.886V127.26H616.319V125.46H617.903V123.264H620.153V125.46H622.727V127.26H620.153V131.832C620.153 132.3 620.267 132.66 620.495 132.912C620.723 133.152 621.053 133.272 621.485 133.272C621.989 133.272 622.409 133.14 622.745 132.876L623.375 134.478ZM625.226 125.388H627.476V135H625.226V125.388ZM626.36 123.804C625.952 123.804 625.61 123.678 625.334 123.426C625.058 123.162 624.92 122.838 624.92 122.454C624.92 122.07 625.058 121.752 625.334 121.5C625.61 121.236 625.952 121.104 626.36 121.104C626.768 121.104 627.11 121.23 627.386 121.482C627.662 121.722 627.8 122.028 627.8 122.4C627.8 122.796 627.662 123.132 627.386 123.408C627.122 123.672 626.78 123.804 626.36 123.804ZM634.749 135.126C633.777 135.126 632.901 134.916 632.121 134.496C631.341 134.076 630.729 133.494 630.285 132.75C629.853 131.994 629.637 131.142 629.637 130.194C629.637 129.246 629.853 128.4 630.285 127.656C630.729 126.912 631.341 126.33 632.121 125.91C632.901 125.49 633.777 125.28 634.749 125.28C635.733 125.28 636.615 125.49 637.395 125.91C638.175 126.33 638.781 126.912 639.213 127.656C639.657 128.4 639.879 129.246 639.879 130.194C639.879 131.142 639.657 131.994 639.213 132.75C638.781 133.494 638.175 134.076 637.395 134.496C636.615 134.916 635.733 135.126 634.749 135.126ZM634.749 133.2C635.577 133.2 636.261 132.924 636.801 132.372C637.341 131.82 637.611 131.094 637.611 130.194C637.611 129.294 637.341 128.568 636.801 128.016C636.261 127.464 635.577 127.188 634.749 127.188C633.921 127.188 633.237 127.464 632.697 128.016C632.169 128.568 631.905 129.294 631.905 130.194C631.905 131.094 632.169 131.82 632.697 132.372C633.237 132.924 633.921 133.2 634.749 133.2ZM647.485 125.28C648.697 125.28 649.669 125.634 650.401 126.342C651.133 127.05 651.499 128.1 651.499 129.492V135H649.249V129.78C649.249 128.94 649.051 128.31 648.655 127.89C648.259 127.458 647.695 127.242 646.963 127.242C646.135 127.242 645.481 127.494 645.001 127.998C644.521 128.49 644.281 129.204 644.281 130.14V135H642.031V125.388H644.173V126.63C644.545 126.186 645.013 125.85 645.577 125.622C646.141 125.394 646.777 125.28 647.485 125.28ZM653.867 129.06H658.817V130.932H653.867V129.06ZM666.607 125.28C667.543 125.28 668.377 125.484 669.109 125.892C669.853 126.3 670.435 126.876 670.855 127.62C671.275 128.364 671.485 129.222 671.485 130.194C671.485 131.166 671.275 132.03 670.855 132.786C670.435 133.53 669.853 134.106 669.109 134.514C668.377 134.922 667.543 135.126 666.607 135.126C665.311 135.126 664.285 134.694 663.529 133.83V138.492H661.279V125.388H663.421V126.648C663.793 126.192 664.249 125.85 664.789 125.622C665.341 125.394 665.947 125.28 666.607 125.28ZM666.355 133.2C667.183 133.2 667.861 132.924 668.389 132.372C668.929 131.82 669.199 131.094 669.199 130.194C669.199 129.294 668.929 128.568 668.389 128.016C667.861 127.464 667.183 127.188 666.355 127.188C665.815 127.188 665.329 127.314 664.897 127.566C664.465 127.806 664.123 128.154 663.871 128.61C663.619 129.066 663.493 129.594 663.493 130.194C663.493 130.794 663.619 131.322 663.871 131.778C664.123 132.234 664.465 132.588 664.897 132.84C665.329 133.08 665.815 133.2 666.355 133.2ZM675.761 126.792C676.409 125.784 677.549 125.28 679.181 125.28V127.422C678.989 127.386 678.815 127.368 678.659 127.368C677.783 127.368 677.099 127.626 676.607 128.142C676.115 128.646 675.869 129.378 675.869 130.338V135H673.619V125.388H675.761V126.792ZM685.321 135.126C684.349 135.126 683.473 134.916 682.693 134.496C681.913 134.076 681.301 133.494 680.857 132.75C680.425 131.994 680.209 131.142 680.209 130.194C680.209 129.246 680.425 128.4 680.857 127.656C681.301 126.912 681.913 126.33 682.693 125.91C683.473 125.49 684.349 125.28 685.321 125.28C686.305 125.28 687.187 125.49 687.967 125.91C688.747 126.33 689.353 126.912 689.785 127.656C690.229 128.4 690.451 129.246 690.451 130.194C690.451 131.142 690.229 131.994 689.785 132.75C689.353 133.494 688.747 134.076 687.967 134.496C687.187 134.916 686.305 135.126 685.321 135.126ZM685.321 133.2C686.149 133.2 686.833 132.924 687.373 132.372C687.913 131.82 688.183 131.094 688.183 130.194C688.183 129.294 687.913 128.568 687.373 128.016C686.833 127.464 686.149 127.188 685.321 127.188C684.493 127.188 683.809 127.464 683.269 128.016C682.741 128.568 682.477 129.294 682.477 130.194C682.477 131.094 682.741 131.82 683.269 132.372C683.809 132.924 684.493 133.2 685.321 133.2ZM696.923 135.126C695.951 135.126 695.075 134.916 694.295 134.496C693.515 134.076 692.903 133.494 692.459 132.75C692.027 131.994 691.811 131.142 691.811 130.194C691.811 129.246 692.027 128.4 692.459 127.656C692.903 126.912 693.515 126.33 694.295 125.91C695.075 125.49 695.951 125.28 696.923 125.28C697.907 125.28 698.789 125.49 699.569 125.91C700.349 126.33 700.955 126.912 701.387 127.656C701.831 128.4 702.053 129.246 702.053 130.194C702.053 131.142 701.831 131.994 701.387 132.75C700.955 133.494 700.349 134.076 699.569 134.496C698.789 134.916 697.907 135.126 696.923 135.126ZM696.923 133.2C697.751 133.2 698.435 132.924 698.975 132.372C699.515 131.82 699.785 131.094 699.785 130.194C699.785 129.294 699.515 128.568 698.975 128.016C698.435 127.464 697.751 127.188 696.923 127.188C696.095 127.188 695.411 127.464 694.871 128.016C694.343 128.568 694.079 129.294 694.079 130.194C694.079 131.094 694.343 131.82 694.871 132.372C695.411 132.924 696.095 133.2 696.923 133.2ZM708.111 123.336C707.163 123.336 706.689 123.852 706.689 124.884V125.46H709.335V127.26H706.761V135H704.511V127.26H702.927V125.46H704.511V124.848C704.511 123.816 704.811 123.006 705.411 122.418C706.011 121.818 706.857 121.518 707.949 121.518C708.813 121.518 709.491 121.692 709.983 122.04L709.353 123.732C708.969 123.468 708.555 123.336 708.111 123.336ZM718.794 135.126C718.014 135.126 717.252 135.024 716.508 134.82C715.764 134.616 715.17 134.358 714.726 134.046L715.59 132.336C716.022 132.624 716.538 132.858 717.138 133.038C717.75 133.206 718.35 133.29 718.938 133.29C720.282 133.29 720.954 132.936 720.954 132.228C720.954 131.892 720.78 131.658 720.432 131.526C720.096 131.394 719.55 131.268 718.794 131.148C718.002 131.028 717.354 130.89 716.85 130.734C716.358 130.578 715.926 130.308 715.554 129.924C715.194 129.528 715.014 128.982 715.014 128.286C715.014 127.374 715.392 126.648 716.148 126.108C716.916 125.556 717.948 125.28 719.244 125.28C719.904 125.28 720.564 125.358 721.224 125.514C721.884 125.658 722.424 125.856 722.844 126.108L721.98 127.818C721.164 127.338 720.246 127.098 719.226 127.098C718.566 127.098 718.062 127.2 717.714 127.404C717.378 127.596 717.21 127.854 717.21 128.178C717.21 128.538 717.39 128.796 717.75 128.952C718.122 129.096 718.692 129.234 719.46 129.366C720.228 129.486 720.858 129.624 721.35 129.78C721.842 129.936 722.262 130.2 722.61 130.572C722.97 130.944 723.15 131.472 723.15 132.156C723.15 133.056 722.76 133.776 721.98 134.316C721.2 134.856 720.138 135.126 718.794 135.126ZM730.865 134.478C730.601 134.694 730.277 134.856 729.893 134.964C729.521 135.072 729.125 135.126 728.705 135.126C727.649 135.126 726.833 134.85 726.257 134.298C725.681 133.746 725.393 132.942 725.393 131.886V127.26H723.809V125.46H725.393V123.264H727.643V125.46H730.217V127.26H727.643V131.832C727.643 132.3 727.757 132.66 727.985 132.912C728.213 133.152 728.543 133.272 728.975 133.272C729.479 133.272 729.899 133.14 730.235 132.876L730.865 134.478ZM736.388 125.28C737.804 125.28 738.884 125.622 739.628 126.306C740.384 126.978 740.762 127.998 740.762 129.366V135H738.638V133.83C738.362 134.25 737.966 134.574 737.45 134.802C736.946 135.018 736.334 135.126 735.614 135.126C734.894 135.126 734.264 135.006 733.724 134.766C733.184 134.514 732.764 134.172 732.464 133.74C732.176 133.296 732.032 132.798 732.032 132.246C732.032 131.382 732.35 130.692 732.986 130.176C733.634 129.648 734.648 129.384 736.028 129.384H738.512V129.24C738.512 128.568 738.308 128.052 737.9 127.692C737.504 127.332 736.91 127.152 736.118 127.152C735.578 127.152 735.044 127.236 734.516 127.404C734 127.572 733.562 127.806 733.202 128.106L732.32 126.468C732.824 126.084 733.43 125.79 734.138 125.586C734.846 125.382 735.596 125.28 736.388 125.28ZM736.082 133.488C736.646 133.488 737.144 133.362 737.576 133.11C738.02 132.846 738.332 132.474 738.512 131.994V130.878H736.19C734.894 130.878 734.246 131.304 734.246 132.156C734.246 132.564 734.408 132.888 734.732 133.128C735.056 133.368 735.506 133.488 736.082 133.488ZM748.978 125.28C749.914 125.28 750.748 125.484 751.48 125.892C752.224 126.3 752.806 126.876 753.226 127.62C753.646 128.364 753.856 129.222 753.856 130.194C753.856 131.166 753.646 132.03 753.226 132.786C752.806 133.53 752.224 134.106 751.48 134.514C750.748 134.922 749.914 135.126 748.978 135.126C748.318 135.126 747.712 135.012 747.16 134.784C746.62 134.556 746.164 134.214 745.792 133.758V135H743.65V121.644H745.9V126.558C746.284 126.138 746.734 125.82 747.25 125.604C747.778 125.388 748.354 125.28 748.978 125.28ZM748.726 133.2C749.554 133.2 750.232 132.924 750.76 132.372C751.3 131.82 751.57 131.094 751.57 130.194C751.57 129.294 751.3 128.568 750.76 128.016C750.232 127.464 749.554 127.188 748.726 127.188C748.186 127.188 747.7 127.314 747.268 127.566C746.836 127.806 746.494 128.154 746.242 128.61C745.99 129.066 745.864 129.594 745.864 130.194C745.864 130.794 745.99 131.322 746.242 131.778C746.494 132.234 746.836 132.588 747.268 132.84C747.7 133.08 748.186 133.2 748.726 133.2ZM755.99 121.644H758.24V135H755.99V121.644ZM770.229 130.248C770.229 130.404 770.217 130.626 770.193 130.914H762.651C762.783 131.622 763.125 132.186 763.677 132.606C764.241 133.014 764.937 133.218 765.765 133.218C766.821 133.218 767.691 132.87 768.375 132.174L769.581 133.56C769.149 134.076 768.603 134.466 767.943 134.73C767.283 134.994 766.539 135.126 765.711 135.126C764.655 135.126 763.725 134.916 762.921 134.496C762.117 134.076 761.493 133.494 761.049 132.75C760.617 131.994 760.401 131.142 760.401 130.194C760.401 129.258 760.611 128.418 761.031 127.674C761.463 126.918 762.057 126.33 762.813 125.91C763.569 125.49 764.421 125.28 765.369 125.28C766.305 125.28 767.139 125.49 767.871 125.91C768.615 126.318 769.191 126.9 769.599 127.656C770.019 128.4 770.229 129.264 770.229 130.248ZM765.369 127.08C764.649 127.08 764.037 127.296 763.533 127.728C763.041 128.148 762.741 128.712 762.633 129.42H768.087C767.991 128.724 767.697 128.16 767.205 127.728C766.713 127.296 766.101 127.08 765.369 127.08ZM776.8 135.126C775.804 135.126 774.91 134.916 774.118 134.496C773.326 134.076 772.708 133.494 772.264 132.75C771.82 131.994 771.598 131.142 771.598 130.194C771.598 129.246 771.82 128.4 772.264 127.656C772.708 126.912 773.32 126.33 774.1 125.91C774.892 125.49 775.792 125.28 776.8 125.28C777.748 125.28 778.576 125.472 779.284 125.856C780.004 126.24 780.544 126.792 780.904 127.512L779.176 128.52C778.9 128.076 778.552 127.746 778.132 127.53C777.724 127.302 777.274 127.188 776.782 127.188C775.942 127.188 775.246 127.464 774.694 128.016C774.142 128.556 773.866 129.282 773.866 130.194C773.866 131.106 774.136 131.838 774.676 132.39C775.228 132.93 775.93 133.2 776.782 133.2C777.274 133.2 777.724 133.092 778.132 132.876C778.552 132.648 778.9 132.312 779.176 131.868L780.904 132.876C780.532 133.596 779.986 134.154 779.266 134.55C778.558 134.934 777.736 135.126 776.8 135.126ZM787.028 135.126C786.056 135.126 785.18 134.916 784.4 134.496C783.62 134.076 783.008 133.494 782.564 132.75C782.132 131.994 781.916 131.142 781.916 130.194C781.916 129.246 782.132 128.4 782.564 127.656C783.008 126.912 783.62 126.33 784.4 125.91C785.18 125.49 786.056 125.28 787.028 125.28C788.012 125.28 788.894 125.49 789.674 125.91C790.454 126.33 791.06 126.912 791.492 127.656C791.936 128.4 792.158 129.246 792.158 130.194C792.158 131.142 791.936 131.994 791.492 132.75C791.06 133.494 790.454 134.076 789.674 134.496C788.894 134.916 788.012 135.126 787.028 135.126ZM787.028 133.2C787.856 133.2 788.54 132.924 789.08 132.372C789.62 131.82 789.89 131.094 789.89 130.194C789.89 129.294 789.62 128.568 789.08 128.016C788.54 127.464 787.856 127.188 787.028 127.188C786.2 127.188 785.516 127.464 784.976 128.016C784.448 128.568 784.184 129.294 784.184 130.194C784.184 131.094 784.448 131.82 784.976 132.372C785.516 132.924 786.2 133.2 787.028 133.2ZM794.31 125.388H796.56V135H794.31V125.388ZM795.444 123.804C795.036 123.804 794.694 123.678 794.418 123.426C794.142 123.162 794.004 122.838 794.004 122.454C794.004 122.07 794.142 121.752 794.418 121.5C794.694 121.236 795.036 121.104 795.444 121.104C795.852 121.104 796.194 121.23 796.47 121.482C796.746 121.722 796.884 122.028 796.884 122.4C796.884 122.796 796.746 123.132 796.47 123.408C796.206 123.672 795.864 123.804 795.444 123.804ZM804.967 125.28C806.179 125.28 807.151 125.634 807.883 126.342C808.615 127.05 808.981 128.1 808.981 129.492V135H806.731V129.78C806.731 128.94 806.533 128.31 806.137 127.89C805.741 127.458 805.177 127.242 804.445 127.242C803.617 127.242 802.963 127.494 802.483 127.998C802.003 128.49 801.763 129.204 801.763 130.14V135H799.513V125.388H801.655V126.63C802.027 126.186 802.495 125.85 803.059 125.622C803.623 125.394 804.259 125.28 804.967 125.28ZM822.138 125.28C823.074 125.28 823.908 125.484 824.64 125.892C825.384 126.3 825.966 126.876 826.386 127.62C826.806 128.364 827.016 129.222 827.016 130.194C827.016 131.166 826.806 132.03 826.386 132.786C825.966 133.53 825.384 134.106 824.64 134.514C823.908 134.922 823.074 135.126 822.138 135.126C820.842 135.126 819.816 134.694 819.06 133.83V138.492H816.81V125.388H818.952V126.648C819.324 126.192 819.78 125.85 820.32 125.622C820.872 125.394 821.478 125.28 822.138 125.28ZM821.886 133.2C822.714 133.2 823.392 132.924 823.92 132.372C824.46 131.82 824.73 131.094 824.73 130.194C824.73 129.294 824.46 128.568 823.92 128.016C823.392 127.464 822.714 127.188 821.886 127.188C821.346 127.188 820.86 127.314 820.428 127.566C819.996 127.806 819.654 128.154 819.402 128.61C819.15 129.066 819.024 129.594 819.024 130.194C819.024 130.794 819.15 131.322 819.402 131.778C819.654 132.234 819.996 132.588 820.428 132.84C820.86 133.08 821.346 133.2 821.886 133.2ZM829.15 121.644H831.4V135H829.15V121.644ZM838.025 125.28C839.441 125.28 840.521 125.622 841.265 126.306C842.021 126.978 842.399 127.998 842.399 129.366V135H840.275V133.83C839.999 134.25 839.603 134.574 839.087 134.802C838.583 135.018 837.971 135.126 837.251 135.126C836.531 135.126 835.901 135.006 835.361 134.766C834.821 134.514 834.401 134.172 834.101 133.74C833.813 133.296 833.669 132.798 833.669 132.246C833.669 131.382 833.987 130.692 834.623 130.176C835.271 129.648 836.285 129.384 837.665 129.384H840.149V129.24C840.149 128.568 839.945 128.052 839.537 127.692C839.141 127.332 838.547 127.152 837.755 127.152C837.215 127.152 836.681 127.236 836.153 127.404C835.637 127.572 835.199 127.806 834.839 128.106L833.957 126.468C834.461 126.084 835.067 125.79 835.775 125.586C836.483 125.382 837.233 125.28 838.025 125.28ZM837.719 133.488C838.283 133.488 838.781 133.362 839.213 133.11C839.657 132.846 839.969 132.474 840.149 131.994V130.878H837.827C836.531 130.878 835.883 131.304 835.883 132.156C835.883 132.564 836.045 132.888 836.369 133.128C836.693 133.368 837.143 133.488 837.719 133.488ZM851.065 134.478C850.801 134.694 850.477 134.856 850.093 134.964C849.721 135.072 849.325 135.126 848.905 135.126C847.849 135.126 847.033 134.85 846.457 134.298C845.881 133.746 845.593 132.942 845.593 131.886V127.26H844.009V125.46H845.593V123.264H847.843V125.46H850.417V127.26H847.843V131.832C847.843 132.3 847.957 132.66 848.185 132.912C848.413 133.152 848.743 133.272 849.175 133.272C849.679 133.272 850.099 133.14 850.435 132.876L851.065 134.478ZM856.821 123.336C855.873 123.336 855.399 123.852 855.399 124.884V125.46H858.045V127.26H855.471V135H853.221V127.26H851.637V125.46H853.221V124.848C853.221 123.816 853.521 123.006 854.121 122.418C854.721 121.818 855.567 121.518 856.659 121.518C857.523 121.518 858.201 121.692 858.693 122.04L858.063 123.732C857.679 123.468 857.265 123.336 856.821 123.336ZM863.739 135.126C862.767 135.126 861.891 134.916 861.111 134.496C860.331 134.076 859.719 133.494 859.275 132.75C858.843 131.994 858.627 131.142 858.627 130.194C858.627 129.246 858.843 128.4 859.275 127.656C859.719 126.912 860.331 126.33 861.111 125.91C861.891 125.49 862.767 125.28 863.739 125.28C864.723 125.28 865.605 125.49 866.385 125.91C867.165 126.33 867.771 126.912 868.203 127.656C868.647 128.4 868.869 129.246 868.869 130.194C868.869 131.142 868.647 131.994 868.203 132.75C867.771 133.494 867.165 134.076 866.385 134.496C865.605 134.916 864.723 135.126 863.739 135.126ZM863.739 133.2C864.567 133.2 865.251 132.924 865.791 132.372C866.331 131.82 866.601 131.094 866.601 130.194C866.601 129.294 866.331 128.568 865.791 128.016C865.251 127.464 864.567 127.188 863.739 127.188C862.911 127.188 862.227 127.464 861.687 128.016C861.159 128.568 860.895 129.294 860.895 130.194C860.895 131.094 861.159 131.82 861.687 132.372C862.227 132.924 862.911 133.2 863.739 133.2ZM873.163 126.792C873.811 125.784 874.951 125.28 876.583 125.28V127.422C876.391 127.386 876.217 127.368 876.061 127.368C875.185 127.368 874.501 127.626 874.009 128.142C873.517 128.646 873.271 129.378 873.271 130.338V135H871.021V125.388H873.163V126.792ZM890.624 125.28C891.836 125.28 892.796 125.634 893.504 126.342C894.212 127.038 894.566 128.088 894.566 129.492V135H892.316V129.78C892.316 128.94 892.13 128.31 891.758 127.89C891.386 127.458 890.852 127.242 890.156 127.242C889.4 127.242 888.794 127.494 888.338 127.998C887.882 128.49 887.654 129.198 887.654 130.122V135H885.404V129.78C885.404 128.94 885.218 128.31 884.846 127.89C884.474 127.458 883.94 127.242 883.244 127.242C882.476 127.242 881.864 127.488 881.408 127.98C880.964 128.472 880.742 129.186 880.742 130.122V135H878.492V125.388H880.634V126.612C880.994 126.18 881.444 125.85 881.984 125.622C882.524 125.394 883.124 125.28 883.784 125.28C884.504 125.28 885.14 125.418 885.692 125.694C886.256 125.958 886.7 126.354 887.024 126.882C887.42 126.378 887.93 125.988 888.554 125.712C889.178 125.424 889.868 125.28 890.624 125.28Z" fill="#233433"/>
<defs>
<clipPath id="clip0">
<rect width="1440" height="240" fill="white"/>
</clipPath>
</defs>
</svg>
