<svg width="1440" height="170" viewBox="0 0 1440 170" fill="none" xmlns="http://www.w3.org/2000/svg">
<g opacity="0.5">
<path fill-rule="evenodd" clip-rule="evenodd" d="M191.573 73.7459C135.968 37.2591 78.4989 0.5 0 0.5V3.5C77.5011 3.5 134.282 39.7409 189.927 76.2541C191.037 76.9821 192.146 77.7103 193.254 78.4382L193.389 78.5267C247.757 114.223 301.487 149.5 372.5 149.5C475.138 149.5 551.931 115.537 621.276 84.867C632.458 79.9216 643.446 75.0619 654.317 70.444C693.497 53.8016 731.131 40.3049 770.958 37.0685C810.743 33.8354 852.803 40.8364 900.818 65.3434C966.127 98.6771 1053.75 135.815 1161.73 118.738C1231.49 107.707 1269.25 91.4154 1302.3 77.1572L1302.31 77.1543L1302.39 77.1213C1304.94 76.0215 1307.46 74.9339 1309.96 73.8617C1344.85 58.9389 1376.76 47 1440 47V44C1376.24 44 1343.9 56.0785 1308.79 71.1035C1306.25 72.1885 1303.7 73.2887 1301.12 74.4008C1268.14 88.6304 1230.65 104.802 1161.27 115.775C1054.25 132.699 967.341 95.9286 902.182 62.6713C853.697 37.9246 811.084 30.7979 770.715 34.0783C730.388 37.3555 692.387 51.0136 653.144 67.6828C642.221 72.3227 631.199 77.1964 619.998 82.1489C550.651 112.811 474.459 146.5 372.5 146.5C302.394 146.5 249.338 111.669 194.783 75.8528C193.713 75.1508 192.644 74.4484 191.573 73.7459ZM191.476 90.1872C135.854 59.4388 78.4248 28.5 0 28.5V31.5C77.5752 31.5 134.396 62.0612 190.024 92.8128L191.819 93.8051L193.46 94.7126C247.856 124.801 301.549 154.5 372.5 154.5C476.162 154.5 556.469 124.876 628.498 98.3058C639.244 94.3415 649.807 90.4453 660.235 86.7255C740.575 58.0678 812.929 39.8726 900.866 80.8612C965.978 111.21 1053.83 137.116 1161.69 123.5C1231.35 114.705 1269.08 101.781 1302.11 90.4699C1304.72 89.5771 1307.3 88.6944 1309.86 87.8245C1344.75 75.9748 1376.71 66.5 1440 66.5V63.5C1376.29 63.5 1344 73.0622 1308.89 84.9838C1306.34 85.8521 1303.76 86.7328 1301.16 87.6231L1301.14 87.6307C1268.17 98.9216 1230.67 111.767 1161.31 120.523C1054.17 134.05 966.889 108.325 902.134 78.1421C813.071 36.6291 739.733 55.183 659.227 83.8999C648.763 87.6323 638.178 91.5362 627.42 95.5039C555.387 122.07 475.591 151.5 372.5 151.5C302.332 151.5 249.24 122.135 194.713 91.9775L194.623 91.9275L192.595 90.8059L191.476 90.1872ZM0 52.5C78.3617 52.5 135.752 78.6374 191.385 104.641C192.472 105.149 193.558 105.657 194.643 106.165C249.15 131.655 302.277 156.5 372.5 156.5C476.363 156.5 553.875 132.074 624.433 109.839L624.439 109.837L624.446 109.835C634.409 106.695 644.233 103.6 653.973 100.623C732.717 76.5538 805.93 60.2685 901.969 91.8666C969.383 114.047 1054.15 136.283 1161.35 125.541C1230.29 118.632 1267.79 108.84 1300.61 100.269L1300.62 100.265C1303.44 99.528 1306.23 98.8003 1309 98.0841C1344.09 89.01 1376.34 81.813 1440 81.813V84.813C1376.66 84.813 1344.66 91.9605 1309.75 100.989C1306.98 101.705 1304.19 102.434 1301.36 103.172C1268.49 111.756 1230.82 121.594 1161.65 128.526C1053.85 139.328 968.617 116.953 901.031 94.7164C805.884 63.4114 733.405 79.4804 654.849 103.492C645.138 106.46 635.333 109.55 625.381 112.687L625.369 112.69L625.362 112.693L625.357 112.694C554.796 134.934 476.851 159.5 372.5 159.5C301.604 159.5 247.946 134.405 193.53 108.956L191.63 108.067L190.115 107.359C134.498 81.3626 77.6383 55.5 0 55.5V52.5ZM191.258 121.588C135.617 101.583 78.2802 81.5 0 81.5V84.5C77.7198 84.5 134.633 104.417 190.242 124.412L192.24 125.13L193.635 125.632C248.071 145.215 301.677 164.5 372.5 164.5C481.058 164.5 562.497 146.083 636.322 129.388C643.424 127.782 650.455 126.192 657.434 124.636C736.944 106.904 809.539 93.5728 901.221 110.905C904.43 111.512 907.614 112.115 910.776 112.714C991.389 127.994 1057.96 140.612 1161.6 133.626C1230.74 128.965 1268.38 122.352 1301.24 116.579L1301.26 116.576C1304.08 116.081 1306.86 115.591 1309.63 115.11C1344.57 109.032 1376.61 104.219 1440 104.219V101.219C1376.39 101.219 1344.18 106.055 1309.12 112.154C1306.34 112.637 1303.55 113.127 1300.73 113.623L1300.73 113.623L1300.73 113.624C1267.9 119.391 1230.38 125.982 1161.4 130.632C1058.14 137.593 991.895 125.036 911.293 109.759L911.264 109.753C908.125 109.158 904.964 108.559 901.779 107.957C809.465 90.5057 736.368 103.959 656.781 121.708C649.801 123.264 642.771 124.854 635.673 126.459C561.85 143.152 480.711 161.5 372.5 161.5C302.204 161.5 249.025 142.369 194.539 122.769L192.751 122.126C192.254 121.947 191.756 121.768 191.258 121.588ZM0 106.5C78.211 106.5 135.498 121.547 191.141 136.552L194.438 137.441C248.913 152.139 302.141 166.5 372.5 166.5C483.948 166.5 563.757 152.701 637.574 139.939L637.584 139.937C642.36 139.111 647.111 138.29 651.843 137.477C729.752 124.093 802.757 112.972 901.638 122.139C912.704 123.164 924.154 124.318 936.025 125.514L936.026 125.514C997.954 131.755 1071.34 139.15 1161.44 135.557C1230.45 132.806 1268 128.905 1300.83 125.494L1300.84 125.493C1303.66 125.199 1306.45 124.91 1309.22 124.624C1344.26 121.02 1376.44 118.162 1440 118.162V121.162C1376.56 121.162 1344.49 124.012 1309.53 127.609C1306.76 127.894 1303.97 128.184 1301.14 128.478C1268.28 131.891 1230.66 135.8 1161.56 138.555C1071.23 142.156 997.62 134.738 935.687 128.496C923.829 127.301 912.399 126.149 901.362 125.126C802.886 115.997 730.199 127.06 652.351 140.434C647.62 141.246 642.869 142.068 638.093 142.894L638.067 142.898C564.239 155.663 484.211 169.5 372.5 169.5C301.74 169.5 248.183 155.05 193.736 140.359C192.611 140.056 191.485 139.752 190.359 139.448C134.752 124.453 77.789 109.5 0 109.5V106.5Z" fill="url(#paint0_linear)"/>
</g>
<path d="M672.88 67.48C669.973 67.48 667.347 66.8533 665 65.6C662.68 64.3467 660.853 62.6267 659.52 60.44C658.213 58.2267 657.56 55.7467 657.56 53C657.56 50.2533 658.213 47.7867 659.52 45.6C660.853 43.3867 662.68 41.6533 665 40.4C667.347 39.1467 669.973 38.52 672.88 38.52C675.787 38.52 678.4 39.1467 680.72 40.4C683.04 41.6533 684.867 43.3867 686.2 45.6C687.533 47.7867 688.2 50.2533 688.2 53C688.2 55.7467 687.533 58.2267 686.2 60.44C684.867 62.6267 683.04 64.3467 680.72 65.6C678.4 66.8533 675.787 67.48 672.88 67.48ZM672.88 61.96C674.533 61.96 676.027 61.5867 677.36 60.84C678.693 60.0667 679.733 59 680.48 57.64C681.253 56.28 681.64 54.7333 681.64 53C681.64 51.2667 681.253 49.72 680.48 48.36C679.733 47 678.693 45.9467 677.36 45.2C676.027 44.4267 674.533 44.04 672.88 44.04C671.227 44.04 669.733 44.4267 668.4 45.2C667.067 45.9467 666.013 47 665.24 48.36C664.493 49.72 664.12 51.2667 664.12 53C664.12 54.7333 664.493 56.28 665.24 57.64C666.013 59 667.067 60.0667 668.4 60.84C669.733 61.5867 671.227 61.96 672.88 61.96ZM705.51 67.48C701.51 67.48 698.39 66.3733 696.15 64.16C693.937 61.9467 692.83 58.7867 692.83 54.68V39H699.31V54.44C699.31 59.4533 701.39 61.96 705.55 61.96C707.577 61.96 709.123 61.36 710.19 60.16C711.257 58.9333 711.79 57.0267 711.79 54.44V39H718.19V54.68C718.19 58.7867 717.07 61.9467 714.83 64.16C712.617 66.3733 709.51 67.48 705.51 67.48ZM742.433 67L737.033 59.2H736.713H731.073V67H724.593V39H736.713C739.193 39 741.34 39.4133 743.153 40.24C744.993 41.0667 746.407 42.24 747.393 43.76C748.38 45.28 748.873 47.08 748.873 49.16C748.873 51.24 748.367 53.04 747.353 54.56C746.367 56.0533 744.953 57.2 743.113 58L749.393 67H742.433ZM742.313 49.16C742.313 47.5867 741.807 46.3867 740.793 45.56C739.78 44.7067 738.3 44.28 736.353 44.28H731.073V54.04H736.353C738.3 54.04 739.78 53.6133 740.793 52.76C741.807 51.9067 742.313 50.7067 742.313 49.16ZM767.568 67.48C764.661 67.48 762.034 66.8533 759.688 65.6C757.368 64.3467 755.541 62.6267 754.208 60.44C752.901 58.2267 752.248 55.7467 752.248 53C752.248 50.2533 752.901 47.7867 754.208 45.6C755.541 43.3867 757.368 41.6533 759.688 40.4C762.034 39.1467 764.661 38.52 767.568 38.52C770.474 38.52 773.088 39.1467 775.408 40.4C777.728 41.6533 779.554 43.3867 780.888 45.6C782.221 47.7867 782.888 50.2533 782.888 53C782.888 55.7467 782.221 58.2267 780.888 60.44C779.554 62.6267 777.728 64.3467 775.408 65.6C773.088 66.8533 770.474 67.48 767.568 67.48ZM767.568 61.96C769.221 61.96 770.714 61.5867 772.048 60.84C773.381 60.0667 774.421 59 775.168 57.64C775.941 56.28 776.328 54.7333 776.328 53C776.328 51.2667 775.941 49.72 775.168 48.36C774.421 47 773.381 45.9467 772.048 45.2C770.714 44.4267 769.221 44.04 767.568 44.04C765.914 44.04 764.421 44.4267 763.088 45.2C761.754 45.9467 760.701 47 759.928 48.36C759.181 49.72 758.808 51.2667 758.808 53C758.808 54.7333 759.181 56.28 759.928 57.64C760.701 59 761.754 60.0667 763.088 60.84C764.421 61.5867 765.914 61.96 767.568 61.96Z" fill="#233433"/>
<path d="M537.024 106.18C535.752 106.18 534.6 105.904 533.568 105.352C532.548 104.788 531.744 104.014 531.156 103.03C530.58 102.046 530.292 100.936 530.292 99.7C530.292 98.464 530.586 97.354 531.174 96.37C531.762 95.386 532.566 94.618 533.586 94.066C534.618 93.502 535.77 93.22 537.042 93.22C538.074 93.22 539.016 93.4 539.868 93.76C540.72 94.12 541.44 94.642 542.028 95.326L540.516 96.748C539.604 95.764 538.482 95.272 537.15 95.272C536.286 95.272 535.512 95.464 534.828 95.848C534.144 96.22 533.61 96.742 533.226 97.414C532.842 98.086 532.65 98.848 532.65 99.7C532.65 100.552 532.842 101.314 533.226 101.986C533.61 102.658 534.144 103.186 534.828 103.57C535.512 103.942 536.286 104.128 537.15 104.128C538.482 104.128 539.604 103.63 540.516 102.634L542.028 104.074C541.44 104.758 540.714 105.28 539.85 105.64C538.998 106 538.056 106.18 537.024 106.18ZM546.196 97.792C546.844 96.784 547.984 96.28 549.616 96.28V98.422C549.424 98.386 549.25 98.368 549.094 98.368C548.218 98.368 547.534 98.626 547.042 99.142C546.55 99.646 546.304 100.378 546.304 101.338V106H544.054V96.388H546.196V97.792ZM560.473 101.248C560.473 101.404 560.461 101.626 560.437 101.914H552.895C553.027 102.622 553.369 103.186 553.921 103.606C554.485 104.014 555.181 104.218 556.009 104.218C557.065 104.218 557.935 103.87 558.619 103.174L559.825 104.56C559.393 105.076 558.847 105.466 558.187 105.73C557.527 105.994 556.783 106.126 555.955 106.126C554.899 106.126 553.969 105.916 553.165 105.496C552.361 105.076 551.737 104.494 551.293 103.75C550.861 102.994 550.645 102.142 550.645 101.194C550.645 100.258 550.855 99.418 551.275 98.674C551.707 97.918 552.301 97.33 553.057 96.91C553.813 96.49 554.665 96.28 555.613 96.28C556.549 96.28 557.383 96.49 558.115 96.91C558.859 97.318 559.435 97.9 559.843 98.656C560.263 99.4 560.473 100.264 560.473 101.248ZM555.613 98.08C554.893 98.08 554.281 98.296 553.777 98.728C553.285 99.148 552.985 99.712 552.877 100.42H558.331C558.235 99.724 557.941 99.16 557.449 98.728C556.957 98.296 556.345 98.08 555.613 98.08ZM566.043 96.28C567.459 96.28 568.539 96.622 569.283 97.306C570.039 97.978 570.417 98.998 570.417 100.366V106H568.293V104.83C568.017 105.25 567.621 105.574 567.105 105.802C566.601 106.018 565.989 106.126 565.269 106.126C564.549 106.126 563.919 106.006 563.379 105.766C562.839 105.514 562.419 105.172 562.119 104.74C561.831 104.296 561.687 103.798 561.687 103.246C561.687 102.382 562.005 101.692 562.641 101.176C563.289 100.648 564.303 100.384 565.683 100.384H568.167V100.24C568.167 99.568 567.963 99.052 567.555 98.692C567.159 98.332 566.565 98.152 565.773 98.152C565.233 98.152 564.699 98.236 564.171 98.404C563.655 98.572 563.217 98.806 562.857 99.106L561.975 97.468C562.479 97.084 563.085 96.79 563.793 96.586C564.501 96.382 565.251 96.28 566.043 96.28ZM565.737 104.488C566.301 104.488 566.799 104.362 567.231 104.11C567.675 103.846 567.987 103.474 568.167 102.994V101.878H565.845C564.549 101.878 563.901 102.304 563.901 103.156C563.901 103.564 564.063 103.888 564.387 104.128C564.711 104.368 565.161 104.488 565.737 104.488ZM579.082 105.478C578.818 105.694 578.494 105.856 578.11 105.964C577.738 106.072 577.342 106.126 576.922 106.126C575.866 106.126 575.05 105.85 574.474 105.298C573.898 104.746 573.61 103.942 573.61 102.886V98.26H572.026V96.46H573.61V94.264H575.86V96.46H578.434V98.26H575.86V102.832C575.86 103.3 575.974 103.66 576.202 103.912C576.43 104.152 576.76 104.272 577.192 104.272C577.696 104.272 578.116 104.14 578.452 103.876L579.082 105.478ZM580.933 96.388H583.183V106H580.933V96.388ZM582.067 94.804C581.659 94.804 581.317 94.678 581.041 94.426C580.765 94.162 580.627 93.838 580.627 93.454C580.627 93.07 580.765 92.752 581.041 92.5C581.317 92.236 581.659 92.104 582.067 92.104C582.475 92.104 582.817 92.23 583.093 92.482C583.369 92.722 583.507 93.028 583.507 93.4C583.507 93.796 583.369 94.132 583.093 94.408C582.829 94.672 582.487 94.804 582.067 94.804ZM591.59 96.28C592.802 96.28 593.774 96.634 594.506 97.342C595.238 98.05 595.604 99.1 595.604 100.492V106H593.354V100.78C593.354 99.94 593.156 99.31 592.76 98.89C592.364 98.458 591.8 98.242 591.068 98.242C590.24 98.242 589.586 98.494 589.106 98.998C588.626 99.49 588.386 100.204 588.386 101.14V106H586.136V96.388H588.278V97.63C588.65 97.186 589.118 96.85 589.682 96.622C590.246 96.394 590.882 96.28 591.59 96.28ZM608.086 96.388V104.542C608.086 107.926 606.358 109.618 602.902 109.618C601.978 109.618 601.102 109.498 600.274 109.258C599.446 109.03 598.762 108.694 598.222 108.25L599.23 106.558C599.65 106.906 600.178 107.182 600.814 107.386C601.462 107.602 602.116 107.71 602.776 107.71C603.832 107.71 604.606 107.47 605.098 106.99C605.59 106.51 605.836 105.778 605.836 104.794V104.29C605.452 104.71 604.984 105.028 604.432 105.244C603.88 105.46 603.274 105.568 602.614 105.568C601.702 105.568 600.874 105.376 600.13 104.992C599.398 104.596 598.816 104.044 598.384 103.336C597.964 102.628 597.754 101.818 597.754 100.906C597.754 99.994 597.964 99.19 598.384 98.494C598.816 97.786 599.398 97.24 600.13 96.856C600.874 96.472 601.702 96.28 602.614 96.28C603.31 96.28 603.94 96.394 604.504 96.622C605.08 96.85 605.56 97.198 605.944 97.666V96.388H608.086ZM602.956 103.66C603.808 103.66 604.504 103.408 605.044 102.904C605.596 102.388 605.872 101.722 605.872 100.906C605.872 100.102 605.596 99.448 605.044 98.944C604.504 98.44 603.808 98.188 602.956 98.188C602.092 98.188 601.384 98.44 600.832 98.944C600.292 99.448 600.022 100.102 600.022 100.906C600.022 101.722 600.292 102.388 600.832 102.904C601.384 103.408 602.092 103.66 602.956 103.66ZM619.691 96.28C621.107 96.28 622.187 96.622 622.931 97.306C623.687 97.978 624.065 98.998 624.065 100.366V106H621.941V104.83C621.665 105.25 621.269 105.574 620.753 105.802C620.249 106.018 619.637 106.126 618.917 106.126C618.197 106.126 617.567 106.006 617.027 105.766C616.487 105.514 616.067 105.172 615.767 104.74C615.479 104.296 615.335 103.798 615.335 103.246C615.335 102.382 615.653 101.692 616.289 101.176C616.937 100.648 617.951 100.384 619.331 100.384H621.815V100.24C621.815 99.568 621.611 99.052 621.203 98.692C620.807 98.332 620.213 98.152 619.421 98.152C618.881 98.152 618.347 98.236 617.819 98.404C617.303 98.572 616.865 98.806 616.505 99.106L615.623 97.468C616.127 97.084 616.733 96.79 617.441 96.586C618.149 96.382 618.899 96.28 619.691 96.28ZM619.385 104.488C619.949 104.488 620.447 104.362 620.879 104.11C621.323 103.846 621.635 103.474 621.815 102.994V101.878H619.493C618.197 101.878 617.549 102.304 617.549 103.156C617.549 103.564 617.711 103.888 618.035 104.128C618.359 104.368 618.809 104.488 619.385 104.488ZM632.407 96.28C633.619 96.28 634.591 96.634 635.323 97.342C636.055 98.05 636.421 99.1 636.421 100.492V106H634.171V100.78C634.171 99.94 633.973 99.31 633.577 98.89C633.181 98.458 632.617 98.242 631.885 98.242C631.057 98.242 630.403 98.494 629.923 98.998C629.443 99.49 629.203 100.204 629.203 101.14V106H626.953V96.388H629.095V97.63C629.467 97.186 629.935 96.85 630.499 96.622C631.063 96.394 631.699 96.28 632.407 96.28ZM644.465 93.4H646.805V106H644.465V93.4ZM655.451 96.28C656.663 96.28 657.635 96.634 658.367 97.342C659.099 98.05 659.465 99.1 659.465 100.492V106H657.215V100.78C657.215 99.94 657.017 99.31 656.621 98.89C656.225 98.458 655.661 98.242 654.929 98.242C654.101 98.242 653.447 98.494 652.967 98.998C652.487 99.49 652.247 100.204 652.247 101.14V106H649.997V96.388H652.139V97.63C652.511 97.186 652.979 96.85 653.543 96.622C654.107 96.394 654.743 96.28 655.451 96.28ZM666.226 94.336C665.278 94.336 664.804 94.852 664.804 95.884V96.46H667.45V98.26H664.876V106H662.626V98.26H661.042V96.46H662.626V95.848C662.626 94.816 662.926 94.006 663.526 93.418C664.126 92.818 664.972 92.518 666.064 92.518C666.928 92.518 667.606 92.692 668.098 93.04L667.468 94.732C667.084 94.468 666.67 94.336 666.226 94.336ZM668.962 92.644H671.212V106H668.962V92.644ZM677.839 96.28C679.255 96.28 680.335 96.622 681.079 97.306C681.835 97.978 682.213 98.998 682.213 100.366V106H680.089V104.83C679.813 105.25 679.417 105.574 678.901 105.802C678.397 106.018 677.785 106.126 677.065 106.126C676.345 106.126 675.715 106.006 675.175 105.766C674.635 105.514 674.215 105.172 673.915 104.74C673.627 104.296 673.483 103.798 673.483 103.246C673.483 102.382 673.801 101.692 674.437 101.176C675.085 100.648 676.099 100.384 677.479 100.384H679.963V100.24C679.963 99.568 679.759 99.052 679.351 98.692C678.955 98.332 678.361 98.152 677.569 98.152C677.029 98.152 676.495 98.236 675.967 98.404C675.451 98.572 675.013 98.806 674.653 99.106L673.771 97.468C674.275 97.084 674.881 96.79 675.589 96.586C676.297 96.382 677.047 96.28 677.839 96.28ZM677.533 104.488C678.097 104.488 678.595 104.362 679.027 104.11C679.471 103.846 679.783 103.474 679.963 102.994V101.878H677.641C676.345 101.878 675.697 102.304 675.697 103.156C675.697 103.564 675.859 103.888 676.183 104.128C676.507 104.368 676.957 104.488 677.533 104.488ZM690.879 105.478C690.615 105.694 690.291 105.856 689.907 105.964C689.535 106.072 689.139 106.126 688.719 106.126C687.663 106.126 686.847 105.85 686.271 105.298C685.695 104.746 685.407 103.942 685.407 102.886V98.26H683.823V96.46H685.407V94.264H687.657V96.46H690.231V98.26H687.657V102.832C687.657 103.3 687.771 103.66 687.999 103.912C688.227 104.152 688.557 104.272 688.989 104.272C689.493 104.272 689.913 104.14 690.249 103.876L690.879 105.478ZM692.73 96.388H694.98V106H692.73V96.388ZM693.864 94.804C693.456 94.804 693.114 94.678 692.838 94.426C692.562 94.162 692.424 93.838 692.424 93.454C692.424 93.07 692.562 92.752 692.838 92.5C693.114 92.236 693.456 92.104 693.864 92.104C694.272 92.104 694.614 92.23 694.89 92.482C695.166 92.722 695.304 93.028 695.304 93.4C695.304 93.796 695.166 94.132 694.89 94.408C694.626 94.672 694.284 94.804 693.864 94.804ZM702.253 106.126C701.281 106.126 700.405 105.916 699.625 105.496C698.845 105.076 698.233 104.494 697.789 103.75C697.357 102.994 697.141 102.142 697.141 101.194C697.141 100.246 697.357 99.4 697.789 98.656C698.233 97.912 698.845 97.33 699.625 96.91C700.405 96.49 701.281 96.28 702.253 96.28C703.237 96.28 704.119 96.49 704.899 96.91C705.679 97.33 706.285 97.912 706.717 98.656C707.161 99.4 707.383 100.246 707.383 101.194C707.383 102.142 707.161 102.994 706.717 103.75C706.285 104.494 705.679 105.076 704.899 105.496C704.119 105.916 703.237 106.126 702.253 106.126ZM702.253 104.2C703.081 104.2 703.765 103.924 704.305 103.372C704.845 102.82 705.115 102.094 705.115 101.194C705.115 100.294 704.845 99.568 704.305 99.016C703.765 98.464 703.081 98.188 702.253 98.188C701.425 98.188 700.741 98.464 700.201 99.016C699.673 99.568 699.409 100.294 699.409 101.194C699.409 102.094 699.673 102.82 700.201 103.372C700.741 103.924 701.425 104.2 702.253 104.2ZM714.989 96.28C716.201 96.28 717.173 96.634 717.905 97.342C718.637 98.05 719.003 99.1 719.003 100.492V106H716.753V100.78C716.753 99.94 716.555 99.31 716.159 98.89C715.763 98.458 715.199 98.242 714.467 98.242C713.639 98.242 712.985 98.494 712.505 98.998C712.025 99.49 711.785 100.204 711.785 101.14V106H709.535V96.388H711.677V97.63C712.049 97.186 712.517 96.85 713.081 96.622C713.645 96.394 714.281 96.28 714.989 96.28ZM721.371 100.06H726.321V101.932H721.371V100.06ZM734.111 96.28C735.047 96.28 735.881 96.484 736.613 96.892C737.357 97.3 737.939 97.876 738.359 98.62C738.779 99.364 738.989 100.222 738.989 101.194C738.989 102.166 738.779 103.03 738.359 103.786C737.939 104.53 737.357 105.106 736.613 105.514C735.881 105.922 735.047 106.126 734.111 106.126C732.815 106.126 731.789 105.694 731.033 104.83V109.492H728.783V96.388H730.925V97.648C731.297 97.192 731.753 96.85 732.293 96.622C732.845 96.394 733.451 96.28 734.111 96.28ZM733.859 104.2C734.687 104.2 735.365 103.924 735.893 103.372C736.433 102.82 736.703 102.094 736.703 101.194C736.703 100.294 736.433 99.568 735.893 99.016C735.365 98.464 734.687 98.188 733.859 98.188C733.319 98.188 732.833 98.314 732.401 98.566C731.969 98.806 731.627 99.154 731.375 99.61C731.123 100.066 730.997 100.594 730.997 101.194C730.997 101.794 731.123 102.322 731.375 102.778C731.627 103.234 731.969 103.588 732.401 103.84C732.833 104.08 733.319 104.2 733.859 104.2ZM743.264 97.792C743.912 96.784 745.052 96.28 746.684 96.28V98.422C746.492 98.386 746.318 98.368 746.162 98.368C745.286 98.368 744.602 98.626 744.11 99.142C743.618 99.646 743.372 100.378 743.372 101.338V106H741.122V96.388H743.264V97.792ZM752.825 106.126C751.853 106.126 750.977 105.916 750.197 105.496C749.417 105.076 748.805 104.494 748.361 103.75C747.929 102.994 747.713 102.142 747.713 101.194C747.713 100.246 747.929 99.4 748.361 98.656C748.805 97.912 749.417 97.33 750.197 96.91C750.977 96.49 751.853 96.28 752.825 96.28C753.809 96.28 754.691 96.49 755.471 96.91C756.251 97.33 756.857 97.912 757.289 98.656C757.733 99.4 757.955 100.246 757.955 101.194C757.955 102.142 757.733 102.994 757.289 103.75C756.857 104.494 756.251 105.076 755.471 105.496C754.691 105.916 753.809 106.126 752.825 106.126ZM752.825 104.2C753.653 104.2 754.337 103.924 754.877 103.372C755.417 102.82 755.687 102.094 755.687 101.194C755.687 100.294 755.417 99.568 754.877 99.016C754.337 98.464 753.653 98.188 752.825 98.188C751.997 98.188 751.313 98.464 750.773 99.016C750.245 99.568 749.981 100.294 749.981 101.194C749.981 102.094 750.245 102.82 750.773 103.372C751.313 103.924 751.997 104.2 752.825 104.2ZM764.427 106.126C763.455 106.126 762.579 105.916 761.799 105.496C761.019 105.076 760.407 104.494 759.963 103.75C759.531 102.994 759.315 102.142 759.315 101.194C759.315 100.246 759.531 99.4 759.963 98.656C760.407 97.912 761.019 97.33 761.799 96.91C762.579 96.49 763.455 96.28 764.427 96.28C765.411 96.28 766.293 96.49 767.073 96.91C767.853 97.33 768.459 97.912 768.891 98.656C769.335 99.4 769.557 100.246 769.557 101.194C769.557 102.142 769.335 102.994 768.891 103.75C768.459 104.494 767.853 105.076 767.073 105.496C766.293 105.916 765.411 106.126 764.427 106.126ZM764.427 104.2C765.255 104.2 765.939 103.924 766.479 103.372C767.019 102.82 767.289 102.094 767.289 101.194C767.289 100.294 767.019 99.568 766.479 99.016C765.939 98.464 765.255 98.188 764.427 98.188C763.599 98.188 762.915 98.464 762.375 99.016C761.847 99.568 761.583 100.294 761.583 101.194C761.583 102.094 761.847 102.82 762.375 103.372C762.915 103.924 763.599 104.2 764.427 104.2ZM775.614 94.336C774.666 94.336 774.192 94.852 774.192 95.884V96.46H776.838V98.26H774.264V106H772.014V98.26H770.43V96.46H772.014V95.848C772.014 94.816 772.314 94.006 772.914 93.418C773.514 92.818 774.36 92.518 775.452 92.518C776.316 92.518 776.994 92.692 777.486 93.04L776.856 94.732C776.472 94.468 776.058 94.336 775.614 94.336ZM787.45 106.18C786.478 106.18 785.536 106.042 784.624 105.766C783.724 105.49 783.01 105.124 782.482 104.668L783.292 102.85C783.808 103.258 784.438 103.594 785.182 103.858C785.938 104.11 786.694 104.236 787.45 104.236C788.386 104.236 789.082 104.086 789.538 103.786C790.006 103.486 790.24 103.09 790.24 102.598C790.24 102.238 790.108 101.944 789.844 101.716C789.592 101.476 789.268 101.29 788.872 101.158C788.476 101.026 787.936 100.876 787.252 100.708C786.292 100.48 785.512 100.252 784.912 100.024C784.324 99.796 783.814 99.442 783.382 98.962C782.962 98.47 782.752 97.81 782.752 96.982C782.752 96.286 782.938 95.656 783.31 95.092C783.694 94.516 784.264 94.06 785.02 93.724C785.788 93.388 786.724 93.22 787.828 93.22C788.596 93.22 789.352 93.316 790.096 93.508C790.84 93.7 791.482 93.976 792.022 94.336L791.284 96.154C790.732 95.83 790.156 95.584 789.556 95.416C788.956 95.248 788.374 95.164 787.81 95.164C786.886 95.164 786.196 95.32 785.74 95.632C785.296 95.944 785.074 96.358 785.074 96.874C785.074 97.234 785.2 97.528 785.452 97.756C785.716 97.984 786.046 98.164 786.442 98.296C786.838 98.428 787.378 98.578 788.062 98.746C788.998 98.962 789.766 99.19 790.366 99.43C790.966 99.658 791.476 100.012 791.896 100.492C792.328 100.972 792.544 101.62 792.544 102.436C792.544 103.132 792.352 103.762 791.968 104.326C791.596 104.89 791.026 105.34 790.258 105.676C789.49 106.012 788.554 106.18 787.45 106.18ZM800.426 105.478C800.162 105.694 799.838 105.856 799.454 105.964C799.082 106.072 798.686 106.126 798.266 106.126C797.21 106.126 796.394 105.85 795.818 105.298C795.242 104.746 794.954 103.942 794.954 102.886V98.26H793.37V96.46H794.954V94.264H797.204V96.46H799.778V98.26H797.204V102.832C797.204 103.3 797.318 103.66 797.546 103.912C797.774 104.152 798.104 104.272 798.536 104.272C799.04 104.272 799.46 104.14 799.796 103.876L800.426 105.478ZM806.28 106.126C805.308 106.126 804.432 105.916 803.652 105.496C802.872 105.076 802.26 104.494 801.816 103.75C801.384 102.994 801.168 102.142 801.168 101.194C801.168 100.246 801.384 99.4 801.816 98.656C802.26 97.912 802.872 97.33 803.652 96.91C804.432 96.49 805.308 96.28 806.28 96.28C807.264 96.28 808.146 96.49 808.926 96.91C809.706 97.33 810.312 97.912 810.744 98.656C811.188 99.4 811.41 100.246 811.41 101.194C811.41 102.142 811.188 102.994 810.744 103.75C810.312 104.494 809.706 105.076 808.926 105.496C808.146 105.916 807.264 106.126 806.28 106.126ZM806.28 104.2C807.108 104.2 807.792 103.924 808.332 103.372C808.872 102.82 809.142 102.094 809.142 101.194C809.142 100.294 808.872 99.568 808.332 99.016C807.792 98.464 807.108 98.188 806.28 98.188C805.452 98.188 804.768 98.464 804.228 99.016C803.7 99.568 803.436 100.294 803.436 101.194C803.436 102.094 803.7 102.82 804.228 103.372C804.768 103.924 805.452 104.2 806.28 104.2ZM815.704 97.792C816.352 96.784 817.492 96.28 819.124 96.28V98.422C818.932 98.386 818.758 98.368 818.602 98.368C817.726 98.368 817.042 98.626 816.55 99.142C816.058 99.646 815.812 100.378 815.812 101.338V106H813.562V96.388H815.704V97.792ZM829.981 101.248C829.981 101.404 829.969 101.626 829.945 101.914H822.403C822.535 102.622 822.877 103.186 823.429 103.606C823.993 104.014 824.689 104.218 825.517 104.218C826.573 104.218 827.443 103.87 828.127 103.174L829.333 104.56C828.901 105.076 828.355 105.466 827.695 105.73C827.035 105.994 826.291 106.126 825.463 106.126C824.407 106.126 823.477 105.916 822.673 105.496C821.869 105.076 821.245 104.494 820.801 103.75C820.369 102.994 820.153 102.142 820.153 101.194C820.153 100.258 820.363 99.418 820.783 98.674C821.215 97.918 821.809 97.33 822.565 96.91C823.321 96.49 824.173 96.28 825.121 96.28C826.057 96.28 826.891 96.49 827.623 96.91C828.367 97.318 828.943 97.9 829.351 98.656C829.771 99.4 829.981 100.264 829.981 101.248ZM825.121 98.08C824.401 98.08 823.789 98.296 823.285 98.728C822.793 99.148 822.493 99.712 822.385 100.42H827.839C827.743 99.724 827.449 99.16 826.957 98.728C826.465 98.296 825.853 98.08 825.121 98.08ZM841.437 106.126C840.465 106.126 839.589 105.916 838.809 105.496C838.029 105.076 837.417 104.494 836.973 103.75C836.541 102.994 836.325 102.142 836.325 101.194C836.325 100.246 836.541 99.4 836.973 98.656C837.417 97.912 838.029 97.33 838.809 96.91C839.589 96.49 840.465 96.28 841.437 96.28C842.421 96.28 843.303 96.49 844.083 96.91C844.863 97.33 845.469 97.912 845.901 98.656C846.345 99.4 846.567 100.246 846.567 101.194C846.567 102.142 846.345 102.994 845.901 103.75C845.469 104.494 844.863 105.076 844.083 105.496C843.303 105.916 842.421 106.126 841.437 106.126ZM841.437 104.2C842.265 104.2 842.949 103.924 843.489 103.372C844.029 102.82 844.299 102.094 844.299 101.194C844.299 100.294 844.029 99.568 843.489 99.016C842.949 98.464 842.265 98.188 841.437 98.188C840.609 98.188 839.925 98.464 839.385 99.016C838.857 99.568 838.593 100.294 838.593 101.194C838.593 102.094 838.857 102.82 839.385 103.372C839.925 103.924 840.609 104.2 841.437 104.2ZM852.624 94.336C851.676 94.336 851.202 94.852 851.202 95.884V96.46H853.848V98.26H851.274V106H849.024V98.26H847.44V96.46H849.024V95.848C849.024 94.816 849.324 94.006 849.924 93.418C850.524 92.818 851.37 92.518 852.462 92.518C853.326 92.518 854.004 92.692 854.496 93.04L853.866 94.732C853.482 94.468 853.068 94.336 852.624 94.336ZM872.073 93.4L866.583 106H864.279L858.771 93.4H861.309L865.503 103.12L869.733 93.4H872.073ZM876.138 96.28C877.554 96.28 878.634 96.622 879.378 97.306C880.134 97.978 880.512 98.998 880.512 100.366V106H878.388V104.83C878.112 105.25 877.716 105.574 877.2 105.802C876.696 106.018 876.084 106.126 875.364 106.126C874.644 106.126 874.014 106.006 873.474 105.766C872.934 105.514 872.514 105.172 872.214 104.74C871.926 104.296 871.782 103.798 871.782 103.246C871.782 102.382 872.1 101.692 872.736 101.176C873.384 100.648 874.398 100.384 875.778 100.384H878.262V100.24C878.262 99.568 878.058 99.052 877.65 98.692C877.254 98.332 876.66 98.152 875.868 98.152C875.328 98.152 874.794 98.236 874.266 98.404C873.75 98.572 873.312 98.806 872.952 99.106L872.07 97.468C872.574 97.084 873.18 96.79 873.888 96.586C874.596 96.382 875.346 96.28 876.138 96.28ZM875.832 104.488C876.396 104.488 876.894 104.362 877.326 104.11C877.77 103.846 878.082 103.474 878.262 102.994V101.878H875.94C874.644 101.878 873.996 102.304 873.996 103.156C873.996 103.564 874.158 103.888 874.482 104.128C874.806 104.368 875.256 104.488 875.832 104.488ZM883.4 92.644H885.65V106H883.4V92.644ZM897.909 96.388V106H895.767V104.776C895.407 105.208 894.957 105.544 894.417 105.784C893.877 106.012 893.295 106.126 892.671 106.126C891.387 106.126 890.373 105.772 889.629 105.064C888.897 104.344 888.531 103.282 888.531 101.878V96.388H890.781V101.572C890.781 102.436 890.973 103.084 891.357 103.516C891.753 103.936 892.311 104.146 893.031 104.146C893.835 104.146 894.471 103.9 894.939 103.408C895.419 102.904 895.659 102.184 895.659 101.248V96.388H897.909ZM909.891 101.248C909.891 101.404 909.879 101.626 909.855 101.914H902.313C902.445 102.622 902.787 103.186 903.339 103.606C903.903 104.014 904.599 104.218 905.427 104.218C906.483 104.218 907.353 103.87 908.037 103.174L909.243 104.56C908.811 105.076 908.265 105.466 907.605 105.73C906.945 105.994 906.201 106.126 905.373 106.126C904.317 106.126 903.387 105.916 902.583 105.496C901.779 105.076 901.155 104.494 900.711 103.75C900.279 102.994 900.063 102.142 900.063 101.194C900.063 100.258 900.273 99.418 900.693 98.674C901.125 97.918 901.719 97.33 902.475 96.91C903.231 96.49 904.083 96.28 905.031 96.28C905.967 96.28 906.801 96.49 907.533 96.91C908.277 97.318 908.853 97.9 909.261 98.656C909.681 99.4 909.891 100.264 909.891 101.248ZM905.031 98.08C904.311 98.08 903.699 98.296 903.195 98.728C902.703 99.148 902.403 99.712 902.295 100.42H907.749C907.653 99.724 907.359 99.16 906.867 98.728C906.375 98.296 905.763 98.08 905.031 98.08Z" fill="#233433"/>
<defs>
<linearGradient id="paint0_linear" x1="-1.864e-06" y1="54.3456" x2="1440" y2="54.3456" gradientUnits="userSpaceOnUse">
<stop stop-color="#75BEEE" stop-opacity="0.64"/>
<stop offset="1" stop-color="#B9ED4C"/>
</linearGradient>
</defs>
</svg>
