<svg width="1440" height="240" viewBox="0 0 1440 240" fill="none" xmlns="http://www.w3.org/2000/svg">
<rect width="1440" height="240" fill="#E7F2F3"/>
<g opacity="0.3">
<line y1="36.5" x2="1440" y2="36.5" stroke="#C3DDDF" stroke-width="3"/>
<line y1="79.5" x2="1440" y2="79.5" stroke="#C3DDDF" stroke-width="3"/>
<line y1="122.5" x2="1440" y2="122.5" stroke="#C3DDDF" stroke-width="3"/>
<line y1="165.5" x2="1440" y2="165.5" stroke="#C3DDDF" stroke-width="3"/>
<line y1="208.5" x2="1440" y2="208.5" stroke="#C3DDDF" stroke-width="3"/>
</g>
<g opacity="0.3">
<line x1="47.5" y1="-6.55671e-08" x2="47.5" y2="240" stroke="#C3DDDF" stroke-width="3"/>
<line x1="95.5" y1="-6.55671e-08" x2="95.5" y2="240" stroke="#C3DDDF" stroke-width="3"/>
<line x1="143.5" y1="-6.55671e-08" x2="143.5" y2="240" stroke="#C3DDDF" stroke-width="3"/>
<line x1="191.5" y1="-6.55671e-08" x2="191.5" y2="240" stroke="#C3DDDF" stroke-width="3"/>
<line x1="239.5" y1="-6.55671e-08" x2="239.5" y2="240" stroke="#C3DDDF" stroke-width="3"/>
<line x1="287.5" y1="-6.55671e-08" x2="287.5" y2="240" stroke="#C3DDDF" stroke-width="3"/>
<line x1="335.5" y1="-6.55671e-08" x2="335.5" y2="240" stroke="#C3DDDF" stroke-width="3"/>
<line x1="383.5" y1="-6.55671e-08" x2="383.5" y2="240" stroke="#C3DDDF" stroke-width="3"/>
<line x1="431.5" y1="-6.55671e-08" x2="431.5" y2="240" stroke="#C3DDDF" stroke-width="3"/>
<line x1="479.5" y1="-6.55671e-08" x2="479.5" y2="240" stroke="#C3DDDF" stroke-width="3"/>
<line x1="527.5" y1="-6.55671e-08" x2="527.5" y2="240" stroke="#C3DDDF" stroke-width="3"/>
<line x1="575.5" y1="-6.55671e-08" x2="575.5" y2="240" stroke="#C3DDDF" stroke-width="3"/>
<line x1="623.5" y1="-6.55671e-08" x2="623.5" y2="240" stroke="#C3DDDF" stroke-width="3"/>
<line x1="671.5" y1="-6.55671e-08" x2="671.5" y2="240" stroke="#C3DDDF" stroke-width="3"/>
<line x1="719.5" y1="-6.55671e-08" x2="719.5" y2="240" stroke="#C3DDDF" stroke-width="3"/>
<line x1="767.5" y1="-6.55671e-08" x2="767.5" y2="240" stroke="#C3DDDF" stroke-width="3"/>
<line x1="815.5" y1="-6.55671e-08" x2="815.5" y2="240" stroke="#C3DDDF" stroke-width="3"/>
<line x1="863.5" y1="-6.55671e-08" x2="863.5" y2="240" stroke="#C3DDDF" stroke-width="3"/>
<line x1="911.5" y1="-6.55671e-08" x2="911.5" y2="240" stroke="#C3DDDF" stroke-width="3"/>
<line x1="959.5" y1="-6.55671e-08" x2="959.5" y2="240" stroke="#C3DDDF" stroke-width="3"/>
<line x1="1007.5" y1="-6.55671e-08" x2="1007.5" y2="240" stroke="#C3DDDF" stroke-width="3"/>
<line x1="1055.5" y1="-6.55671e-08" x2="1055.5" y2="240" stroke="#C3DDDF" stroke-width="3"/>
<line x1="1103.5" y1="-6.55671e-08" x2="1103.5" y2="240" stroke="#C3DDDF" stroke-width="3"/>
<line x1="1151.5" y1="-6.55671e-08" x2="1151.5" y2="240" stroke="#C3DDDF" stroke-width="3"/>
<line x1="1199.5" y1="-6.55671e-08" x2="1199.5" y2="240" stroke="#C3DDDF" stroke-width="3"/>
<line x1="1247.5" y1="-6.55671e-08" x2="1247.5" y2="240" stroke="#C3DDDF" stroke-width="3"/>
<line x1="1295.5" y1="-6.55671e-08" x2="1295.5" y2="240" stroke="#C3DDDF" stroke-width="3"/>
<line x1="1343.5" y1="-6.55671e-08" x2="1343.5" y2="240" stroke="#C3DDDF" stroke-width="3"/>
<line x1="1391.5" y1="-6.55671e-08" x2="1391.5" y2="240" stroke="#C3DDDF" stroke-width="3"/>
</g>
<path d="M1001.88 130.689C1009.12 150.025 1049.02 156.253 1066.65 157.811C1075.69 158.85 1090.55 157.966 1103.35 155.582C1113.77 153.641 1122.76 150.805 1128.55 145.612C1133.74 140.964 1134.88 136.583 1133.62 131.347C1131.68 126.097 1125.98 123.396 1121.83 122.401C1122.66 102.815 1105.6 84.6649 1094.52 77.4917C1085.18 72.3088 1074.27 70.2698 1061.17 70.6101C1048.04 70.9511 1032.05 76.3661 1022.31 84.149C1014.59 90.3162 1008.29 99.4975 1005.78 103.971C1002.63 109.574 997.881 119.999 1001.88 130.689Z" fill="#B9ED4A" stroke="black" stroke-width="4" stroke-linejoin="round"/>
<path d="M1034.69 109.854C1034.05 110.772 1031.94 112.788 1030.58 113.803" stroke="black" stroke-width="1.5" stroke-linecap="round"/>
<path d="M1014.26 107.888C1016.76 108.083 1021.96 108.845 1026.77 108.701C1035.4 108.443 1039.21 110.009 1044.23 110.235C1047.76 110.395 1055.9 109.915 1055.9 109.915" stroke="black" stroke-linecap="round" stroke-linejoin="round"/>
<circle cx="1020.38" cy="93.621" r="3" transform="rotate(8.29216 1020.38 93.621)" fill="black"/>
<circle cx="1030.88" cy="104.753" r="1" transform="rotate(8.29216 1030.88 104.753)" fill="black"/>
<circle cx="1037.88" cy="105.268" r="1" transform="rotate(8.29216 1037.88 105.268)" fill="black"/>
<circle cx="1056.29" cy="96.8344" r="3.5" transform="rotate(8.29216 1056.29 96.8344)" fill="black"/>
<path d="M1069.47 113.913C1071.86 112.494 1074.35 111.593 1075.69 112.799C1077.03 114.006 1077.17 116.551 1070.8 118.654" stroke="black" stroke-width="3" stroke-linecap="round"/>
<path d="M1004.33 106.635C1004.66 100.931 992.435 98.1375 1001.94 112.661L1004.33 106.635Z" fill="#B9ED4A" stroke="black" stroke-width="3.5"/>
<path d="M1078.99 48.4873C1076.31 46.698 1074.66 50.3269 1074.49 51.4935L1079.99 52.4848C1079.99 52.4848 1080.49 49.4877 1078.99 48.4873Z" fill="white" stroke="black" stroke-width="2"/>
<path d="M1076.5 52.0002C1066.01 51.5126 1060.16 61.1546 1058.49 66.4879C1061.29 78.0781 1081.99 77.3169 1091.99 75.4875C1091.99 73.9875 1089.52 52.6055 1076.5 52.0002Z" fill="white" stroke="black" stroke-width="2"/>
<path d="M1073.99 73.9873C1075.49 68.9873 1075.99 60.9873 1075.99 51.9873L1078.49 52.4873C1083.99 61.4873 1084.99 67.4873 1085.49 75.4873C1082.69 75.8873 1076.49 74.8206 1073.99 73.9873Z" fill="black"/>
<path d="M1062.49 68.4873C1063.69 59.6873 1071.99 53.8206 1075.49 51.9873L1076.99 52.4873C1071.39 58.4873 1068.16 67.8206 1067.49 71.4873L1062.49 68.4873Z" fill="black"/>
<path d="M1057.99 65.9876C1071.59 75.5876 1086.83 75.9873 1092.49 74.9873L1092.99 77.4873C1089.83 78.654 1081.09 80.2873 1071.49 77.4873C1059.49 73.9873 1052.49 68.9873 1049.49 66.4873C1046.49 63.9873 1034.49 54.4876 1042.99 53.4876C1049.79 52.6876 1055.83 61.4876 1057.99 65.9876Z" fill="black" stroke="black"/>
<path d="M678.655 68C681.135 68 683.282 68.4133 685.095 69.24C686.935 70.0667 688.348 71.24 689.335 72.76C690.322 74.28 690.815 76.08 690.815 78.16C690.815 80.2133 690.322 82.0133 689.335 83.56C688.348 85.08 686.935 86.2533 685.095 87.08C683.282 87.88 681.135 88.28 678.655 88.28H673.015V96H666.535V68H678.655ZM678.295 83C680.242 83 681.722 82.5867 682.735 81.76C683.748 80.9067 684.255 79.7067 684.255 78.16C684.255 76.5867 683.748 75.3867 682.735 74.56C681.722 73.7067 680.242 73.28 678.295 73.28H673.015V83H678.295ZM705.202 96.32C702.935 96.32 700.895 95.8533 699.082 94.92C697.295 93.96 695.895 92.64 694.882 90.96C693.869 89.28 693.362 87.3733 693.362 85.24C693.362 83.1067 693.869 81.2 694.882 79.52C695.895 77.84 697.295 76.5333 699.082 75.6C700.895 74.64 702.935 74.16 705.202 74.16C707.469 74.16 709.495 74.64 711.282 75.6C713.069 76.5333 714.469 77.84 715.482 79.52C716.495 81.2 717.002 83.1067 717.002 85.24C717.002 87.3733 716.495 89.28 715.482 90.96C714.469 92.64 713.069 93.96 711.282 94.92C709.495 95.8533 707.469 96.32 705.202 96.32ZM705.202 91.2C706.802 91.2 708.109 90.6667 709.122 89.6C710.162 88.5067 710.682 87.0533 710.682 85.24C710.682 83.4267 710.162 81.9867 709.122 80.92C708.109 79.8267 706.802 79.28 705.202 79.28C703.602 79.28 702.282 79.8267 701.242 80.92C700.202 81.9867 699.682 83.4267 699.682 85.24C699.682 87.0533 700.202 88.5067 701.242 89.6C702.282 90.6667 703.602 91.2 705.202 91.2ZM731.413 96.32C729.146 96.32 727.106 95.8533 725.293 94.92C723.506 93.96 722.106 92.64 721.093 90.96C720.08 89.28 719.573 87.3733 719.573 85.24C719.573 83.1067 720.08 81.2 721.093 79.52C722.106 77.84 723.506 76.5333 725.293 75.6C727.106 74.64 729.146 74.16 731.413 74.16C733.68 74.16 735.706 74.64 737.493 75.6C739.28 76.5333 740.68 77.84 741.693 79.52C742.706 81.2 743.213 83.1067 743.213 85.24C743.213 87.3733 742.706 89.28 741.693 90.96C740.68 92.64 739.28 93.96 737.493 94.92C735.706 95.8533 733.68 96.32 731.413 96.32ZM731.413 91.2C733.013 91.2 734.32 90.6667 735.333 89.6C736.373 88.5067 736.893 87.0533 736.893 85.24C736.893 83.4267 736.373 81.9867 735.333 80.92C734.32 79.8267 733.013 79.28 731.413 79.28C729.813 79.28 728.493 79.8267 727.453 80.92C726.413 81.9867 725.893 83.4267 725.893 85.24C725.893 87.0533 726.413 88.5067 727.453 89.6C728.493 90.6667 729.813 91.2 731.413 91.2ZM747.384 66.32H753.624V96H747.384V66.32ZM766.655 96.32C764.868 96.32 763.122 96.1067 761.415 95.68C759.708 95.2267 758.348 94.6667 757.335 94L759.415 89.52C760.375 90.1333 761.535 90.64 762.895 91.04C764.255 91.4133 765.588 91.6 766.895 91.6C769.535 91.6 770.855 90.9467 770.855 89.64C770.855 89.0267 770.495 88.5867 769.775 88.32C769.055 88.0533 767.948 87.8267 766.455 87.64C764.695 87.3733 763.242 87.0667 762.095 86.72C760.948 86.3733 759.948 85.76 759.095 84.88C758.268 84 757.855 82.7467 757.855 81.12C757.855 79.76 758.242 78.56 759.015 77.52C759.815 76.4533 760.962 75.6267 762.455 75.04C763.975 74.4533 765.762 74.16 767.815 74.16C769.335 74.16 770.842 74.3333 772.335 74.68C773.855 75 775.108 75.4533 776.095 76.04L774.015 80.48C772.122 79.4133 770.055 78.88 767.815 78.88C766.482 78.88 765.482 79.0667 764.815 79.44C764.148 79.8133 763.815 80.2933 763.815 80.88C763.815 81.5467 764.175 82.0133 764.895 82.28C765.615 82.5467 766.762 82.8 768.335 83.04C770.095 83.3333 771.535 83.6533 772.655 84C773.775 84.32 774.748 84.92 775.575 85.8C776.402 86.68 776.815 87.9067 776.815 89.48C776.815 90.8133 776.415 92 775.615 93.04C774.815 94.08 773.642 94.8933 772.095 95.48C770.575 96.04 768.762 96.32 766.655 96.32Z" fill="#233433"/>
<path d="M521.225 135.18C520.253 135.18 519.311 135.042 518.399 134.766C517.499 134.49 516.785 134.124 516.257 133.668L517.067 131.85C517.583 132.258 518.213 132.594 518.957 132.858C519.713 133.11 520.469 133.236 521.225 133.236C522.161 133.236 522.857 133.086 523.313 132.786C523.781 132.486 524.015 132.09 524.015 131.598C524.015 131.238 523.883 130.944 523.619 130.716C523.367 130.476 523.043 130.29 522.647 130.158C522.251 130.026 521.711 129.876 521.027 129.708C520.067 129.48 519.287 129.252 518.687 129.024C518.099 128.796 517.589 128.442 517.157 127.962C516.737 127.47 516.527 126.81 516.527 125.982C516.527 125.286 516.713 124.656 517.085 124.092C517.469 123.516 518.039 123.06 518.795 122.724C519.563 122.388 520.499 122.22 521.603 122.22C522.371 122.22 523.127 122.316 523.871 122.508C524.615 122.7 525.257 122.976 525.797 123.336L525.059 125.154C524.507 124.83 523.931 124.584 523.331 124.416C522.731 124.248 522.149 124.164 521.585 124.164C520.661 124.164 519.971 124.32 519.515 124.632C519.071 124.944 518.849 125.358 518.849 125.874C518.849 126.234 518.975 126.528 519.227 126.756C519.491 126.984 519.821 127.164 520.217 127.296C520.613 127.428 521.153 127.578 521.837 127.746C522.773 127.962 523.541 128.19 524.141 128.43C524.741 128.658 525.251 129.012 525.671 129.492C526.103 129.972 526.319 130.62 526.319 131.436C526.319 132.132 526.127 132.762 525.743 133.326C525.371 133.89 524.801 134.34 524.033 134.676C523.265 135.012 522.329 135.18 521.225 135.18ZM528.423 125.388H530.673V135H528.423V125.388ZM529.557 123.804C529.149 123.804 528.807 123.678 528.531 123.426C528.255 123.162 528.117 122.838 528.117 122.454C528.117 122.07 528.255 121.752 528.531 121.5C528.807 121.236 529.149 121.104 529.557 121.104C529.965 121.104 530.307 121.23 530.583 121.482C530.859 121.722 530.997 122.028 530.997 122.4C530.997 122.796 530.859 123.132 530.583 123.408C530.319 123.672 529.977 123.804 529.557 123.804ZM539.08 125.28C540.292 125.28 541.264 125.634 541.996 126.342C542.728 127.05 543.094 128.1 543.094 129.492V135H540.844V129.78C540.844 128.94 540.646 128.31 540.25 127.89C539.854 127.458 539.29 127.242 538.558 127.242C537.73 127.242 537.076 127.494 536.596 127.998C536.116 128.49 535.876 129.204 535.876 130.14V135H533.626V125.388H535.768V126.63C536.14 126.186 536.608 125.85 537.172 125.622C537.736 125.394 538.372 125.28 539.08 125.28ZM555.577 125.388V133.542C555.577 136.926 553.849 138.618 550.393 138.618C549.469 138.618 548.593 138.498 547.765 138.258C546.937 138.03 546.253 137.694 545.713 137.25L546.721 135.558C547.141 135.906 547.669 136.182 548.305 136.386C548.953 136.602 549.607 136.71 550.267 136.71C551.323 136.71 552.097 136.47 552.589 135.99C553.081 135.51 553.327 134.778 553.327 133.794V133.29C552.943 133.71 552.475 134.028 551.923 134.244C551.371 134.46 550.765 134.568 550.105 134.568C549.193 134.568 548.365 134.376 547.621 133.992C546.889 133.596 546.307 133.044 545.875 132.336C545.455 131.628 545.245 130.818 545.245 129.906C545.245 128.994 545.455 128.19 545.875 127.494C546.307 126.786 546.889 126.24 547.621 125.856C548.365 125.472 549.193 125.28 550.105 125.28C550.801 125.28 551.431 125.394 551.995 125.622C552.571 125.85 553.051 126.198 553.435 126.666V125.388H555.577ZM550.447 132.66C551.299 132.66 551.995 132.408 552.535 131.904C553.087 131.388 553.363 130.722 553.363 129.906C553.363 129.102 553.087 128.448 552.535 127.944C551.995 127.44 551.299 127.188 550.447 127.188C549.583 127.188 548.875 127.44 548.323 127.944C547.783 128.448 547.513 129.102 547.513 129.906C547.513 130.722 547.783 131.388 548.323 131.904C548.875 132.408 549.583 132.66 550.447 132.66ZM558.535 121.644H560.785V135H558.535V121.644ZM572.774 130.248C572.774 130.404 572.762 130.626 572.738 130.914H565.196C565.328 131.622 565.67 132.186 566.222 132.606C566.786 133.014 567.482 133.218 568.31 133.218C569.366 133.218 570.236 132.87 570.92 132.174L572.126 133.56C571.694 134.076 571.148 134.466 570.488 134.73C569.828 134.994 569.084 135.126 568.256 135.126C567.2 135.126 566.27 134.916 565.466 134.496C564.662 134.076 564.038 133.494 563.594 132.75C563.162 131.994 562.946 131.142 562.946 130.194C562.946 129.258 563.156 128.418 563.576 127.674C564.008 126.918 564.602 126.33 565.358 125.91C566.114 125.49 566.966 125.28 567.914 125.28C568.85 125.28 569.684 125.49 570.416 125.91C571.16 126.318 571.736 126.9 572.144 127.656C572.564 128.4 572.774 129.264 572.774 130.248ZM567.914 127.08C567.194 127.08 566.582 127.296 566.078 127.728C565.586 128.148 565.286 128.712 565.178 129.42H570.632C570.536 128.724 570.242 128.16 569.75 127.728C569.258 127.296 568.646 127.08 567.914 127.08ZM585.688 134.478C585.424 134.694 585.1 134.856 584.716 134.964C584.344 135.072 583.948 135.126 583.528 135.126C582.472 135.126 581.656 134.85 581.08 134.298C580.504 133.746 580.216 132.942 580.216 131.886V127.26H578.632V125.46H580.216V123.264H582.466V125.46H585.04V127.26H582.466V131.832C582.466 132.3 582.58 132.66 582.808 132.912C583.036 133.152 583.366 133.272 583.798 133.272C584.302 133.272 584.722 133.14 585.058 132.876L585.688 134.478ZM591.542 135.126C590.57 135.126 589.694 134.916 588.914 134.496C588.134 134.076 587.522 133.494 587.078 132.75C586.646 131.994 586.43 131.142 586.43 130.194C586.43 129.246 586.646 128.4 587.078 127.656C587.522 126.912 588.134 126.33 588.914 125.91C589.694 125.49 590.57 125.28 591.542 125.28C592.526 125.28 593.408 125.49 594.188 125.91C594.968 126.33 595.574 126.912 596.006 127.656C596.45 128.4 596.672 129.246 596.672 130.194C596.672 131.142 596.45 131.994 596.006 132.75C595.574 133.494 594.968 134.076 594.188 134.496C593.408 134.916 592.526 135.126 591.542 135.126ZM591.542 133.2C592.37 133.2 593.054 132.924 593.594 132.372C594.134 131.82 594.404 131.094 594.404 130.194C594.404 129.294 594.134 128.568 593.594 128.016C593.054 127.464 592.37 127.188 591.542 127.188C590.714 127.188 590.03 127.464 589.49 128.016C588.962 128.568 588.698 129.294 588.698 130.194C588.698 131.094 588.962 131.82 589.49 132.372C590.03 132.924 590.714 133.2 591.542 133.2ZM602.748 130.878L601.074 132.462V135H598.824V121.644H601.074V129.708L605.736 125.388H608.436L604.422 129.42L608.814 135H606.078L602.748 130.878ZM618.899 130.248C618.899 130.404 618.887 130.626 618.863 130.914H611.321C611.453 131.622 611.795 132.186 612.347 132.606C612.911 133.014 613.607 133.218 614.435 133.218C615.491 133.218 616.361 132.87 617.045 132.174L618.251 133.56C617.819 134.076 617.273 134.466 616.613 134.73C615.953 134.994 615.209 135.126 614.381 135.126C613.325 135.126 612.395 134.916 611.591 134.496C610.787 134.076 610.163 133.494 609.719 132.75C609.287 131.994 609.071 131.142 609.071 130.194C609.071 129.258 609.281 128.418 609.701 127.674C610.133 126.918 610.727 126.33 611.483 125.91C612.239 125.49 613.091 125.28 614.039 125.28C614.975 125.28 615.809 125.49 616.541 125.91C617.285 126.318 617.861 126.9 618.269 127.656C618.689 128.4 618.899 129.264 618.899 130.248ZM614.039 127.08C613.319 127.08 612.707 127.296 612.203 127.728C611.711 128.148 611.411 128.712 611.303 129.42H616.757C616.661 128.724 616.367 128.16 615.875 127.728C615.383 127.296 614.771 127.08 614.039 127.08ZM626.514 125.28C627.726 125.28 628.698 125.634 629.43 126.342C630.162 127.05 630.528 128.1 630.528 129.492V135H628.278V129.78C628.278 128.94 628.08 128.31 627.684 127.89C627.288 127.458 626.724 127.242 625.992 127.242C625.164 127.242 624.51 127.494 624.03 127.998C623.55 128.49 623.31 129.204 623.31 130.14V135H621.06V125.388H623.202V126.63C623.574 126.186 624.042 125.85 624.606 125.622C625.17 125.394 625.806 125.28 626.514 125.28ZM641.327 135.126C640.547 135.126 639.785 135.024 639.041 134.82C638.297 134.616 637.703 134.358 637.259 134.046L638.123 132.336C638.555 132.624 639.071 132.858 639.671 133.038C640.283 133.206 640.883 133.29 641.471 133.29C642.815 133.29 643.487 132.936 643.487 132.228C643.487 131.892 643.313 131.658 642.965 131.526C642.629 131.394 642.083 131.268 641.327 131.148C640.535 131.028 639.887 130.89 639.383 130.734C638.891 130.578 638.459 130.308 638.087 129.924C637.727 129.528 637.547 128.982 637.547 128.286C637.547 127.374 637.925 126.648 638.681 126.108C639.449 125.556 640.481 125.28 641.777 125.28C642.437 125.28 643.097 125.358 643.757 125.514C644.417 125.658 644.957 125.856 645.377 126.108L644.513 127.818C643.697 127.338 642.779 127.098 641.759 127.098C641.099 127.098 640.595 127.2 640.247 127.404C639.911 127.596 639.743 127.854 639.743 128.178C639.743 128.538 639.923 128.796 640.283 128.952C640.655 129.096 641.225 129.234 641.993 129.366C642.761 129.486 643.391 129.624 643.883 129.78C644.375 129.936 644.795 130.2 645.143 130.572C645.503 130.944 645.683 131.472 645.683 132.156C645.683 133.056 645.293 133.776 644.513 134.316C643.733 134.856 642.671 135.126 641.327 135.126ZM653.399 134.478C653.135 134.694 652.811 134.856 652.427 134.964C652.055 135.072 651.659 135.126 651.239 135.126C650.183 135.126 649.367 134.85 648.791 134.298C648.215 133.746 647.927 132.942 647.927 131.886V127.26H646.343V125.46H647.927V123.264H650.177V125.46H652.751V127.26H650.177V131.832C650.177 132.3 650.291 132.66 650.519 132.912C650.747 133.152 651.077 133.272 651.509 133.272C652.013 133.272 652.433 133.14 652.769 132.876L653.399 134.478ZM658.921 125.28C660.337 125.28 661.417 125.622 662.161 126.306C662.917 126.978 663.295 127.998 663.295 129.366V135H661.171V133.83C660.895 134.25 660.499 134.574 659.983 134.802C659.479 135.018 658.867 135.126 658.147 135.126C657.427 135.126 656.797 135.006 656.257 134.766C655.717 134.514 655.297 134.172 654.997 133.74C654.709 133.296 654.565 132.798 654.565 132.246C654.565 131.382 654.883 130.692 655.519 130.176C656.167 129.648 657.181 129.384 658.561 129.384H661.045V129.24C661.045 128.568 660.841 128.052 660.433 127.692C660.037 127.332 659.443 127.152 658.651 127.152C658.111 127.152 657.577 127.236 657.049 127.404C656.533 127.572 656.095 127.806 655.735 128.106L654.853 126.468C655.357 126.084 655.963 125.79 656.671 125.586C657.379 125.382 658.129 125.28 658.921 125.28ZM658.615 133.488C659.179 133.488 659.677 133.362 660.109 133.11C660.553 132.846 660.865 132.474 661.045 131.994V130.878H658.723C657.427 130.878 656.779 131.304 656.779 132.156C656.779 132.564 656.941 132.888 657.265 133.128C657.589 133.368 658.039 133.488 658.615 133.488ZM670.107 130.878L668.433 132.462V135H666.183V121.644H668.433V129.708L673.095 125.388H675.795L671.781 129.42L676.173 135H673.437L670.107 130.878ZM677.539 125.388H679.789V135H677.539V125.388ZM678.673 123.804C678.265 123.804 677.923 123.678 677.647 123.426C677.371 123.162 677.233 122.838 677.233 122.454C677.233 122.07 677.371 121.752 677.647 121.5C677.923 121.236 678.265 121.104 678.673 121.104C679.081 121.104 679.423 121.23 679.699 121.482C679.975 121.722 680.113 122.028 680.113 122.4C680.113 122.796 679.975 123.132 679.699 123.408C679.435 123.672 679.093 123.804 678.673 123.804ZM688.196 125.28C689.408 125.28 690.38 125.634 691.112 126.342C691.844 127.05 692.21 128.1 692.21 129.492V135H689.96V129.78C689.96 128.94 689.762 128.31 689.366 127.89C688.97 127.458 688.406 127.242 687.674 127.242C686.846 127.242 686.192 127.494 685.712 127.998C685.232 128.49 684.992 129.204 684.992 130.14V135H682.742V125.388H684.884V126.63C685.256 126.186 685.724 125.85 686.288 125.622C686.852 125.394 687.488 125.28 688.196 125.28ZM704.692 125.388V133.542C704.692 136.926 702.964 138.618 699.508 138.618C698.584 138.618 697.708 138.498 696.88 138.258C696.052 138.03 695.368 137.694 694.828 137.25L695.836 135.558C696.256 135.906 696.784 136.182 697.42 136.386C698.068 136.602 698.722 136.71 699.382 136.71C700.438 136.71 701.212 136.47 701.704 135.99C702.196 135.51 702.442 134.778 702.442 133.794V133.29C702.058 133.71 701.59 134.028 701.038 134.244C700.486 134.46 699.88 134.568 699.22 134.568C698.308 134.568 697.48 134.376 696.736 133.992C696.004 133.596 695.422 133.044 694.99 132.336C694.57 131.628 694.36 130.818 694.36 129.906C694.36 128.994 694.57 128.19 694.99 127.494C695.422 126.786 696.004 126.24 696.736 125.856C697.48 125.472 698.308 125.28 699.22 125.28C699.916 125.28 700.546 125.394 701.11 125.622C701.686 125.85 702.166 126.198 702.55 126.666V125.388H704.692ZM699.562 132.66C700.414 132.66 701.11 132.408 701.65 131.904C702.202 131.388 702.478 130.722 702.478 129.906C702.478 129.102 702.202 128.448 701.65 127.944C701.11 127.44 700.414 127.188 699.562 127.188C698.698 127.188 697.99 127.44 697.438 127.944C696.898 128.448 696.628 129.102 696.628 129.906C696.628 130.722 696.898 131.388 697.438 131.904C697.99 132.408 698.698 132.66 699.562 132.66ZM718.402 134.478C718.138 134.694 717.814 134.856 717.43 134.964C717.058 135.072 716.662 135.126 716.242 135.126C715.186 135.126 714.37 134.85 713.794 134.298C713.218 133.746 712.93 132.942 712.93 131.886V127.26H711.346V125.46H712.93V123.264H715.18V125.46H717.754V127.26H715.18V131.832C715.18 132.3 715.294 132.66 715.522 132.912C715.75 133.152 716.08 133.272 716.512 133.272C717.016 133.272 717.436 133.14 717.772 132.876L718.402 134.478ZM724.257 135.126C723.285 135.126 722.409 134.916 721.629 134.496C720.849 134.076 720.237 133.494 719.793 132.75C719.361 131.994 719.145 131.142 719.145 130.194C719.145 129.246 719.361 128.4 719.793 127.656C720.237 126.912 720.849 126.33 721.629 125.91C722.409 125.49 723.285 125.28 724.257 125.28C725.241 125.28 726.123 125.49 726.903 125.91C727.683 126.33 728.289 126.912 728.721 127.656C729.165 128.4 729.387 129.246 729.387 130.194C729.387 131.142 729.165 131.994 728.721 132.75C728.289 133.494 727.683 134.076 726.903 134.496C726.123 134.916 725.241 135.126 724.257 135.126ZM724.257 133.2C725.085 133.2 725.769 132.924 726.309 132.372C726.849 131.82 727.119 131.094 727.119 130.194C727.119 129.294 726.849 128.568 726.309 128.016C725.769 127.464 725.085 127.188 724.257 127.188C723.429 127.188 722.745 127.464 722.205 128.016C721.677 128.568 721.413 129.294 721.413 130.194C721.413 131.094 721.677 131.82 722.205 132.372C722.745 132.924 723.429 133.2 724.257 133.2ZM745.549 130.248C745.549 130.404 745.537 130.626 745.513 130.914H737.971C738.103 131.622 738.445 132.186 738.997 132.606C739.561 133.014 740.257 133.218 741.085 133.218C742.141 133.218 743.011 132.87 743.695 132.174L744.901 133.56C744.469 134.076 743.923 134.466 743.263 134.73C742.603 134.994 741.859 135.126 741.031 135.126C739.975 135.126 739.045 134.916 738.241 134.496C737.437 134.076 736.813 133.494 736.369 132.75C735.937 131.994 735.721 131.142 735.721 130.194C735.721 129.258 735.931 128.418 736.351 127.674C736.783 126.918 737.377 126.33 738.133 125.91C738.889 125.49 739.741 125.28 740.689 125.28C741.625 125.28 742.459 125.49 743.191 125.91C743.935 126.318 744.511 126.9 744.919 127.656C745.339 128.4 745.549 129.264 745.549 130.248ZM740.689 127.08C739.969 127.08 739.357 127.296 738.853 127.728C738.361 128.148 738.061 128.712 737.953 129.42H743.407C743.311 128.724 743.017 128.16 742.525 127.728C742.033 127.296 741.421 127.08 740.689 127.08ZM751.119 125.28C752.535 125.28 753.615 125.622 754.359 126.306C755.115 126.978 755.493 127.998 755.493 129.366V135H753.369V133.83C753.093 134.25 752.697 134.574 752.181 134.802C751.677 135.018 751.065 135.126 750.345 135.126C749.625 135.126 748.995 135.006 748.455 134.766C747.915 134.514 747.495 134.172 747.195 133.74C746.907 133.296 746.763 132.798 746.763 132.246C746.763 131.382 747.081 130.692 747.717 130.176C748.365 129.648 749.379 129.384 750.759 129.384H753.243V129.24C753.243 128.568 753.039 128.052 752.631 127.692C752.235 127.332 751.641 127.152 750.849 127.152C750.309 127.152 749.775 127.236 749.247 127.404C748.731 127.572 748.293 127.806 747.933 128.106L747.051 126.468C747.555 126.084 748.161 125.79 748.869 125.586C749.577 125.382 750.327 125.28 751.119 125.28ZM750.813 133.488C751.377 133.488 751.875 133.362 752.307 133.11C752.751 132.846 753.063 132.474 753.243 131.994V130.878H750.921C749.625 130.878 748.977 131.304 748.977 132.156C748.977 132.564 749.139 132.888 749.463 133.128C749.787 133.368 750.237 133.488 750.813 133.488ZM760.522 126.792C761.17 125.784 762.31 125.28 763.942 125.28V127.422C763.75 127.386 763.576 127.368 763.42 127.368C762.544 127.368 761.86 127.626 761.368 128.142C760.876 128.646 760.63 129.378 760.63 130.338V135H758.38V125.388H760.522V126.792ZM771.305 125.28C772.517 125.28 773.489 125.634 774.221 126.342C774.953 127.05 775.319 128.1 775.319 129.492V135H773.069V129.78C773.069 128.94 772.871 128.31 772.475 127.89C772.079 127.458 771.515 127.242 770.783 127.242C769.955 127.242 769.301 127.494 768.821 127.998C768.341 128.49 768.101 129.204 768.101 130.14V135H765.851V125.388H767.993V126.63C768.365 126.186 768.833 125.85 769.397 125.622C769.961 125.394 770.597 125.28 771.305 125.28ZM789.25 135.18C787.966 135.18 786.808 134.904 785.776 134.352C784.744 133.788 783.934 133.014 783.346 132.03C782.758 131.034 782.464 129.924 782.464 128.7C782.464 127.476 782.758 126.372 783.346 125.388C783.934 124.392 784.744 123.618 785.776 123.066C786.808 122.502 787.966 122.22 789.25 122.22C790.534 122.22 791.692 122.502 792.724 123.066C793.756 123.618 794.566 124.386 795.154 125.37C795.742 126.354 796.036 127.464 796.036 128.7C796.036 129.936 795.742 131.046 795.154 132.03C794.566 133.014 793.756 133.788 792.724 134.352C791.692 134.904 790.534 135.18 789.25 135.18ZM789.25 133.128C790.09 133.128 790.846 132.942 791.518 132.57C792.19 132.186 792.718 131.658 793.102 130.986C793.486 130.302 793.678 129.54 793.678 128.7C793.678 127.86 793.486 127.104 793.102 126.432C792.718 125.748 792.19 125.22 791.518 124.848C790.846 124.464 790.09 124.272 789.25 124.272C788.41 124.272 787.654 124.464 786.982 124.848C786.31 125.22 785.782 125.748 785.398 126.432C785.014 127.104 784.822 127.86 784.822 128.7C784.822 129.54 785.014 130.302 785.398 130.986C785.782 131.658 786.31 132.186 786.982 132.57C787.654 132.942 788.41 133.128 789.25 133.128ZM803.934 135.18C802.194 135.18 800.838 134.694 799.866 133.722C798.894 132.738 798.408 131.334 798.408 129.51V122.4H800.748V129.42C800.748 131.892 801.816 133.128 803.952 133.128C806.076 133.128 807.138 131.892 807.138 129.42V122.4H809.442V129.51C809.442 131.334 808.956 132.738 807.984 133.722C807.024 134.694 805.674 135.18 803.934 135.18ZM820.963 135L818.389 131.31C818.281 131.322 818.119 131.328 817.903 131.328H815.059V135H812.719V122.4H817.903C818.995 122.4 819.943 122.58 820.747 122.94C821.563 123.3 822.187 123.816 822.619 124.488C823.051 125.16 823.267 125.958 823.267 126.882C823.267 127.83 823.033 128.646 822.565 129.33C822.109 130.014 821.449 130.524 820.585 130.86L823.483 135H820.963ZM820.909 126.882C820.909 126.078 820.645 125.46 820.117 125.028C819.589 124.596 818.815 124.38 817.795 124.38H815.059V129.402H817.795C818.815 129.402 819.589 129.186 820.117 128.754C820.645 128.31 820.909 127.686 820.909 126.882ZM831.771 135.18C830.487 135.18 829.329 134.904 828.297 134.352C827.265 133.788 826.455 133.014 825.867 132.03C825.279 131.034 824.985 129.924 824.985 128.7C824.985 127.476 825.279 126.372 825.867 125.388C826.455 124.392 827.265 123.618 828.297 123.066C829.329 122.502 830.487 122.22 831.771 122.22C833.055 122.22 834.213 122.502 835.245 123.066C836.277 123.618 837.087 124.386 837.675 125.37C838.263 126.354 838.557 127.464 838.557 128.7C838.557 129.936 838.263 131.046 837.675 132.03C837.087 133.014 836.277 133.788 835.245 134.352C834.213 134.904 833.055 135.18 831.771 135.18ZM831.771 133.128C832.611 133.128 833.367 132.942 834.039 132.57C834.711 132.186 835.239 131.658 835.623 130.986C836.007 130.302 836.199 129.54 836.199 128.7C836.199 127.86 836.007 127.104 835.623 126.432C835.239 125.748 834.711 125.22 834.039 124.848C833.367 124.464 832.611 124.272 831.771 124.272C830.931 124.272 830.175 124.464 829.503 124.848C828.831 125.22 828.303 125.748 827.919 126.432C827.535 127.104 827.343 127.86 827.343 128.7C827.343 129.54 827.535 130.302 827.919 130.986C828.303 131.658 828.831 132.186 829.503 132.57C830.175 132.942 830.931 133.128 831.771 133.128ZM849.468 125.28C850.884 125.28 851.964 125.622 852.708 126.306C853.464 126.978 853.842 127.998 853.842 129.366V135H851.718V133.83C851.442 134.25 851.046 134.574 850.53 134.802C850.026 135.018 849.414 135.126 848.694 135.126C847.974 135.126 847.344 135.006 846.804 134.766C846.264 134.514 845.844 134.172 845.544 133.74C845.256 133.296 845.112 132.798 845.112 132.246C845.112 131.382 845.43 130.692 846.066 130.176C846.714 129.648 847.728 129.384 849.108 129.384H851.592V129.24C851.592 128.568 851.388 128.052 850.98 127.692C850.584 127.332 849.99 127.152 849.198 127.152C848.658 127.152 848.124 127.236 847.596 127.404C847.08 127.572 846.642 127.806 846.282 128.106L845.4 126.468C845.904 126.084 846.51 125.79 847.218 125.586C847.926 125.382 848.676 125.28 849.468 125.28ZM849.162 133.488C849.726 133.488 850.224 133.362 850.656 133.11C851.1 132.846 851.412 132.474 851.592 131.994V130.878H849.27C847.974 130.878 847.326 131.304 847.326 132.156C847.326 132.564 847.488 132.888 847.812 133.128C848.136 133.368 848.586 133.488 849.162 133.488ZM862.184 125.28C863.396 125.28 864.368 125.634 865.1 126.342C865.832 127.05 866.198 128.1 866.198 129.492V135H863.948V129.78C863.948 128.94 863.75 128.31 863.354 127.89C862.958 127.458 862.394 127.242 861.662 127.242C860.834 127.242 860.18 127.494 859.7 127.998C859.22 128.49 858.98 129.204 858.98 130.14V135H856.73V125.388H858.872V126.63C859.244 126.186 859.712 125.85 860.276 125.622C860.84 125.394 861.476 125.28 862.184 125.28ZM878.554 121.644V135H876.394V133.758C876.022 134.214 875.56 134.556 875.008 134.784C874.468 135.012 873.868 135.126 873.208 135.126C872.284 135.126 871.45 134.922 870.706 134.514C869.974 134.106 869.398 133.53 868.978 132.786C868.558 132.03 868.348 131.166 868.348 130.194C868.348 129.222 868.558 128.364 868.978 127.62C869.398 126.876 869.974 126.3 870.706 125.892C871.45 125.484 872.284 125.28 873.208 125.28C873.844 125.28 874.426 125.388 874.954 125.604C875.482 125.82 875.932 126.144 876.304 126.576V121.644H878.554ZM873.478 133.2C874.018 133.2 874.504 133.08 874.936 132.84C875.368 132.588 875.71 132.234 875.962 131.778C876.214 131.322 876.34 130.794 876.34 130.194C876.34 129.594 876.214 129.066 875.962 128.61C875.71 128.154 875.368 127.806 874.936 127.566C874.504 127.314 874.018 127.188 873.478 127.188C872.938 127.188 872.452 127.314 872.02 127.566C871.588 127.806 871.246 128.154 870.994 128.61C870.742 129.066 870.616 129.594 870.616 130.194C870.616 130.794 870.742 131.322 870.994 131.778C871.246 132.234 871.588 132.588 872.02 132.84C872.452 133.08 872.938 133.2 873.478 133.2ZM892.574 135.18C891.29 135.18 890.132 134.904 889.1 134.352C888.068 133.788 887.258 133.014 886.67 132.03C886.082 131.034 885.788 129.924 885.788 128.7C885.788 127.476 886.082 126.372 886.67 125.388C887.258 124.392 888.068 123.618 889.1 123.066C890.132 122.502 891.29 122.22 892.574 122.22C893.858 122.22 895.016 122.502 896.048 123.066C897.08 123.618 897.89 124.386 898.478 125.37C899.066 126.354 899.36 127.464 899.36 128.7C899.36 129.936 899.066 131.046 898.478 132.03C897.89 133.014 897.08 133.788 896.048 134.352C895.016 134.904 893.858 135.18 892.574 135.18ZM892.574 133.128C893.414 133.128 894.17 132.942 894.842 132.57C895.514 132.186 896.042 131.658 896.426 130.986C896.81 130.302 897.002 129.54 897.002 128.7C897.002 127.86 896.81 127.104 896.426 126.432C896.042 125.748 895.514 125.22 894.842 124.848C894.17 124.464 893.414 124.272 892.574 124.272C891.734 124.272 890.978 124.464 890.306 124.848C889.634 125.22 889.106 125.748 888.722 126.432C888.338 127.104 888.146 127.86 888.146 128.7C888.146 129.54 888.338 130.302 888.722 130.986C889.106 131.658 889.634 132.186 890.306 132.57C890.978 132.942 891.734 133.128 892.574 133.128ZM910.444 128.556H912.658V133.578C912.01 134.094 911.254 134.49 910.39 134.766C909.526 135.042 908.638 135.18 907.726 135.18C906.442 135.18 905.284 134.904 904.252 134.352C903.22 133.788 902.41 133.014 901.822 132.03C901.234 131.046 900.94 129.936 900.94 128.7C900.94 127.464 901.234 126.354 901.822 125.37C902.41 124.386 903.22 123.618 904.252 123.066C905.296 122.502 906.466 122.22 907.762 122.22C908.818 122.22 909.778 122.394 910.642 122.742C911.506 123.09 912.232 123.6 912.82 124.272L911.344 125.712C910.384 124.752 909.226 124.272 907.87 124.272C906.982 124.272 906.19 124.458 905.494 124.83C904.81 125.202 904.27 125.724 903.874 126.396C903.49 127.068 903.298 127.836 903.298 128.7C903.298 129.54 903.49 130.296 903.874 130.968C904.27 131.64 904.81 132.168 905.494 132.552C906.19 132.936 906.976 133.128 907.852 133.128C908.836 133.128 909.7 132.912 910.444 132.48V128.556ZM919.651 135.18C918.679 135.18 917.737 135.042 916.825 134.766C915.925 134.49 915.211 134.124 914.683 133.668L915.493 131.85C916.009 132.258 916.639 132.594 917.383 132.858C918.139 133.11 918.895 133.236 919.651 133.236C920.587 133.236 921.283 133.086 921.739 132.786C922.207 132.486 922.441 132.09 922.441 131.598C922.441 131.238 922.309 130.944 922.045 130.716C921.793 130.476 921.469 130.29 921.073 130.158C920.677 130.026 920.137 129.876 919.453 129.708C918.493 129.48 917.713 129.252 917.113 129.024C916.525 128.796 916.015 128.442 915.583 127.962C915.163 127.47 914.953 126.81 914.953 125.982C914.953 125.286 915.139 124.656 915.511 124.092C915.895 123.516 916.465 123.06 917.221 122.724C917.989 122.388 918.925 122.22 920.029 122.22C920.797 122.22 921.553 122.316 922.297 122.508C923.041 122.7 923.683 122.976 924.223 123.336L923.485 125.154C922.933 124.83 922.357 124.584 921.757 124.416C921.157 124.248 920.575 124.164 920.011 124.164C919.087 124.164 918.397 124.32 917.941 124.632C917.497 124.944 917.275 125.358 917.275 125.874C917.275 126.234 917.401 126.528 917.653 126.756C917.917 126.984 918.247 127.164 918.643 127.296C919.039 127.428 919.579 127.578 920.263 127.746C921.199 127.962 921.967 128.19 922.567 128.43C923.167 128.658 923.677 129.012 924.097 129.492C924.529 129.972 924.745 130.62 924.745 131.436C924.745 132.132 924.553 132.762 924.169 133.326C923.797 133.89 923.227 134.34 922.459 134.676C921.691 135.012 920.755 135.18 919.651 135.18Z" fill="#233433"/>
</svg>
