<svg width="1440" height="170" viewBox="0 0 1440 170" fill="none" xmlns="http://www.w3.org/2000/svg">
<g opacity="0.5">
<path fill-rule="evenodd" clip-rule="evenodd" d="M191.573 73.7459C135.968 37.2591 78.4989 0.5 0 0.5V3.5C77.5011 3.5 134.282 39.7409 189.927 76.2541C191.037 76.9821 192.146 77.7103 193.254 78.4382L193.389 78.5267C247.757 114.223 301.487 149.5 372.5 149.5C475.138 149.5 551.931 115.537 621.276 84.867C632.458 79.9216 643.446 75.0619 654.317 70.444C693.497 53.8016 731.131 40.3049 770.958 37.0685C810.743 33.8354 852.803 40.8364 900.818 65.3434C966.127 98.6771 1053.75 135.815 1161.73 118.738C1231.49 107.707 1269.25 91.4154 1302.3 77.1572L1302.31 77.1543L1302.39 77.1213C1304.94 76.0215 1307.46 74.9339 1309.96 73.8617C1344.85 58.9389 1376.76 47 1440 47V44C1376.24 44 1343.9 56.0785 1308.79 71.1035C1306.25 72.1885 1303.7 73.2887 1301.12 74.4008C1268.14 88.6304 1230.65 104.802 1161.27 115.775C1054.25 132.699 967.341 95.9286 902.182 62.6713C853.697 37.9246 811.084 30.7979 770.715 34.0783C730.388 37.3555 692.387 51.0136 653.144 67.6828C642.221 72.3227 631.199 77.1964 619.998 82.1489C550.651 112.811 474.459 146.5 372.5 146.5C302.394 146.5 249.338 111.669 194.783 75.8528C193.713 75.1508 192.644 74.4484 191.573 73.7459ZM191.476 90.1872C135.854 59.4388 78.4248 28.5 0 28.5V31.5C77.5752 31.5 134.396 62.0612 190.024 92.8128L191.819 93.8051L193.46 94.7126C247.856 124.801 301.549 154.5 372.5 154.5C476.162 154.5 556.469 124.876 628.498 98.3058C639.244 94.3415 649.807 90.4453 660.235 86.7255C740.575 58.0678 812.929 39.8726 900.866 80.8612C965.978 111.21 1053.83 137.116 1161.69 123.5C1231.35 114.705 1269.08 101.781 1302.11 90.4699C1304.72 89.5771 1307.3 88.6944 1309.86 87.8245C1344.75 75.9748 1376.71 66.5 1440 66.5V63.5C1376.29 63.5 1344 73.0622 1308.89 84.9838C1306.34 85.8521 1303.76 86.7328 1301.16 87.6231L1301.14 87.6307C1268.17 98.9216 1230.67 111.767 1161.31 120.523C1054.17 134.05 966.889 108.325 902.134 78.1421C813.071 36.6291 739.733 55.183 659.227 83.8999C648.763 87.6323 638.178 91.5362 627.42 95.5039C555.387 122.07 475.591 151.5 372.5 151.5C302.332 151.5 249.24 122.135 194.713 91.9775L194.623 91.9275L192.595 90.8059L191.476 90.1872ZM0 52.5C78.3617 52.5 135.752 78.6374 191.385 104.641C192.472 105.149 193.558 105.657 194.643 106.165C249.15 131.655 302.277 156.5 372.5 156.5C476.363 156.5 553.875 132.074 624.433 109.839L624.439 109.837L624.446 109.835C634.409 106.695 644.233 103.6 653.973 100.623C732.717 76.5538 805.93 60.2685 901.969 91.8666C969.383 114.047 1054.15 136.283 1161.35 125.541C1230.29 118.632 1267.79 108.84 1300.61 100.269L1300.62 100.265C1303.44 99.528 1306.23 98.8003 1309 98.0841C1344.09 89.01 1376.34 81.813 1440 81.813V84.813C1376.66 84.813 1344.66 91.9605 1309.75 100.989C1306.98 101.705 1304.19 102.434 1301.36 103.172C1268.49 111.756 1230.82 121.594 1161.65 128.526C1053.85 139.328 968.617 116.953 901.031 94.7164C805.884 63.4114 733.405 79.4804 654.849 103.492C645.138 106.46 635.333 109.55 625.381 112.687L625.369 112.69L625.362 112.693L625.357 112.694C554.796 134.934 476.851 159.5 372.5 159.5C301.604 159.5 247.946 134.405 193.53 108.956L191.63 108.067L190.115 107.359C134.498 81.3626 77.6383 55.5 0 55.5V52.5ZM191.258 121.588C135.617 101.583 78.2802 81.5 0 81.5V84.5C77.7198 84.5 134.633 104.417 190.242 124.412L192.24 125.13L193.635 125.632C248.071 145.215 301.677 164.5 372.5 164.5C481.058 164.5 562.497 146.083 636.322 129.388C643.424 127.782 650.455 126.192 657.434 124.636C736.944 106.904 809.539 93.5728 901.221 110.905C904.43 111.512 907.614 112.115 910.776 112.714C991.389 127.994 1057.96 140.612 1161.6 133.626C1230.74 128.965 1268.38 122.352 1301.24 116.579L1301.26 116.576C1304.08 116.081 1306.86 115.591 1309.63 115.11C1344.57 109.032 1376.61 104.219 1440 104.219V101.219C1376.39 101.219 1344.18 106.055 1309.12 112.154C1306.34 112.637 1303.55 113.127 1300.73 113.623L1300.73 113.623L1300.73 113.624C1267.9 119.391 1230.38 125.982 1161.4 130.632C1058.14 137.593 991.895 125.036 911.293 109.759L911.264 109.753C908.125 109.158 904.964 108.559 901.779 107.957C809.465 90.5057 736.368 103.959 656.781 121.708C649.801 123.264 642.771 124.854 635.673 126.459C561.85 143.152 480.711 161.5 372.5 161.5C302.204 161.5 249.025 142.369 194.539 122.769L192.751 122.126C192.254 121.947 191.756 121.768 191.258 121.588ZM0 106.5C78.211 106.5 135.498 121.547 191.141 136.552L194.438 137.441C248.913 152.139 302.141 166.5 372.5 166.5C483.948 166.5 563.757 152.701 637.574 139.939L637.584 139.937C642.36 139.111 647.111 138.29 651.843 137.477C729.752 124.093 802.757 112.972 901.638 122.139C912.704 123.164 924.154 124.318 936.025 125.514L936.026 125.514C997.954 131.755 1071.34 139.15 1161.44 135.557C1230.45 132.806 1268 128.905 1300.83 125.494L1300.84 125.493C1303.66 125.199 1306.45 124.91 1309.22 124.624C1344.26 121.02 1376.44 118.162 1440 118.162V121.162C1376.56 121.162 1344.49 124.012 1309.53 127.609C1306.76 127.894 1303.97 128.184 1301.14 128.478C1268.28 131.891 1230.66 135.8 1161.56 138.555C1071.23 142.156 997.62 134.738 935.687 128.496C923.829 127.301 912.399 126.149 901.362 125.126C802.886 115.997 730.199 127.06 652.351 140.434C647.62 141.246 642.869 142.068 638.093 142.894L638.067 142.898C564.239 155.663 484.211 169.5 372.5 169.5C301.74 169.5 248.183 155.05 193.736 140.359C192.611 140.056 191.485 139.752 190.359 139.448C134.752 124.453 77.789 109.5 0 109.5V106.5Z" fill="url(#paint0_linear)"/>
</g>
<path d="M1034.24 91.2171C1039.82 111.093 1079.06 120.65 1096.5 123.683C1105.42 125.477 1120.3 125.844 1133.26 124.544C1143.81 123.485 1153 121.414 1159.21 116.726C1164.76 112.53 1166.27 108.261 1165.46 102.937C1163.96 97.5428 1158.51 94.3714 1154.46 93.0326C1156.93 73.5856 1141.46 54.0666 1131.02 45.9881C1122.15 40.0394 1111.44 37.0909 1098.36 36.3295C1085.24 35.5666 1068.86 39.6199 1058.5 46.557C1050.29 52.054 1043.24 60.674 1040.36 64.9207C1036.75 70.2396 1031.15 80.2286 1034.24 91.2171Z" fill="#B9ED4A" stroke="black" stroke-width="4" stroke-linejoin="round"/>
<path d="M1068.68 73.2111C1067.96 74.0716 1065.69 75.9034 1064.25 76.8" stroke="black" stroke-width="1.5" stroke-linecap="round"/>
<path d="M1048.48 69.5354C1050.96 69.9401 1056.08 71.136 1060.89 71.3967C1069.5 71.8637 1073.17 73.7449 1078.16 74.392C1081.66 74.8473 1089.81 75.0525 1089.81 75.0525" stroke="black" stroke-linecap="round" stroke-linejoin="round"/>
<circle cx="1055.78" cy="55.8337" r="3" transform="rotate(13.1097 1055.78 55.8337)" fill="black"/>
<circle cx="1065.31" cy="67.8077" r="1" transform="rotate(13.1097 1065.31 67.8077)" fill="black"/>
<circle cx="1072.25" cy="68.9085" r="1" transform="rotate(13.1097 1072.25 68.9085)" fill="black"/>
<circle cx="1091.3" cy="62.051" r="3.5" transform="rotate(13.1097 1091.3 62.051)" fill="black"/>
<path d="M1102.99 80.1759C1105.5 78.963 1108.05 78.2747 1109.29 79.5892C1110.52 80.9037 1110.44 83.4514 1103.92 85.0123" stroke="black" stroke-width="3" stroke-linecap="round"/>
<path d="M1038.7 67.454C1039.51 61.7972 1027.56 57.9874 1035.81 73.2575L1038.7 67.454Z" fill="#B9ED4A" stroke="black" stroke-width="3.5"/>
<defs>
<linearGradient id="paint0_linear" x1="-1.864e-06" y1="54.3456" x2="1440" y2="54.3456" gradientUnits="userSpaceOnUse">
<stop stop-color="#75BEEE" stop-opacity="0.64"/>
<stop offset="1" stop-color="#B9ED4C"/>
</linearGradient>
</defs>
</svg>
