<svg width="24" height="24" viewBox="0 0 24 24" fill="none" xmlns="http://www.w3.org/2000/svg">
<circle cx="12" cy="12" r="12" fill="#F0B90B"/>
<path d="M7.52472 12.0001L5.68872 13.8488L3.83997 12.0001L5.68872 10.1513L7.52472 12.0001ZM12 7.52484L15.162 10.6868L17.0107 8.83809L13.8487 5.68884L12 3.84009L10.1512 5.68884L7.00197 8.83809L8.85072 10.6868L12 7.52484ZM18.3112 10.1513L16.4752 12.0001L18.324 13.8488L20.16 12.0001L18.3112 10.1513ZM12 16.4753L8.83797 13.3133L7.00197 15.1621L10.164 18.3241L12 20.1601L13.8487 18.3113L17.0107 15.1493L15.162 13.3133L12 16.4753ZM12 13.8488L13.8487 12.0001L12 10.1513L10.1512 12.0001L12 13.8488Z" fill="white"/>
</svg>
