<svg width="40" height="40" viewBox="0 0 40 40" fill="none" xmlns="http://www.w3.org/2000/svg">
<g clip-path="url(#clip0)">
<rect width="40" height="40" rx="20" fill="#B9ED4A"/>
<path d="M6.88469 25.2262C9.15659 32.371 23.5157 35.3567 29.88 36.243C33.1398 36.7845 38.5468 36.7345 43.2332 36.103C47.0484 35.589 50.36 34.7241 52.5549 32.9463C54.5195 31.3551 55.0141 29.787 54.6533 27.865C54.0442 25.9256 52.0248 24.8417 50.5396 24.4057C51.1986 17.3172 45.3416 10.4235 41.4533 7.62006C38.1613 5.5702 34.2396 4.63181 29.4808 4.51652C24.7125 4.401 18.8161 6.07371 15.1406 8.71895C12.2281 10.815 9.77684 14.0303 8.78372 15.607C7.53994 17.5818 5.62864 21.2761 6.88469 25.2262Z" fill="#B9ED4A" stroke="black" stroke-width="1.45257" stroke-linejoin="round"/>
<path d="M19.1634 18.2673C18.915 18.5884 18.1119 19.2812 17.6 19.6243" stroke="black" stroke-width="0.544715" stroke-linecap="round"/>
<path d="M11.789 17.1817C12.6914 17.2981 14.5639 17.6692 16.3126 17.7046C19.4464 17.768 20.8011 18.4056 22.6176 18.5792C23.8957 18.7013 26.8554 18.6755 26.8554 18.6755" stroke="black" stroke-width="0.363143" stroke-linecap="round" stroke-linejoin="round"/>
<circle cx="14.2689" cy="12.119" r="1.08943" transform="rotate(11.1678 14.2689 12.119)" fill="black"/>
<circle cx="17.8765" cy="16.3475" r="0.363143" transform="rotate(11.1678 17.8765 16.3475)" fill="black"/>
<circle cx="20.4058" cy="16.6617" r="0.363143" transform="rotate(11.1678 20.4058 16.6617)" fill="black"/>
<circle cx="27.2351" cy="13.9387" r="1.271" transform="rotate(11.1678 27.2351 13.9387)" fill="black"/>
<path d="M31.7018 20.3729C32.5968 19.9018 33.516 19.6206 33.98 20.0824C34.4441 20.5443 34.4464 21.4699 32.0978 22.1167" stroke="black" stroke-width="1.08943" stroke-linecap="round"/>
<path d="M8.21298 16.5469C8.43539 14.484 4.05236 13.2483 7.23501 18.6888L8.21298 16.5469Z" fill="#B9ED4A" stroke="black" stroke-width="1.271"/>
</g>
<defs>
<clipPath id="clip0">
<rect width="40" height="40" rx="20" fill="white"/>
</clipPath>
</defs>
</svg>
