<svg width="89" height="40" viewBox="0 0 89 40" fill="none" xmlns="http://www.w3.org/2000/svg">
<g clip-path="url(#clip0)">
<rect width="40" height="40" rx="20" fill="#74EDE7"/>
<path d="M6.88469 25.2262C9.15659 32.371 23.5157 35.3567 29.88 36.243C33.1398 36.7845 38.5468 36.7345 43.2332 36.103C47.0484 35.589 50.36 34.7241 52.5549 32.9463C54.5195 31.3551 55.0141 29.787 54.6533 27.865C54.0442 25.9256 52.0248 24.8417 50.5396 24.4057C51.1986 17.3172 45.3416 10.4235 41.4533 7.62006C38.1613 5.5702 34.2396 4.63181 29.4808 4.51652C24.7125 4.401 18.8161 6.07371 15.1406 8.71895C12.2281 10.815 9.77684 14.0303 8.78372 15.607C7.53994 17.5818 5.62864 21.2761 6.88469 25.2262Z" fill="#74EDE7" stroke="black" stroke-width="1.45257" stroke-linejoin="round"/>
<path d="M19.1634 18.2673C18.915 18.5884 18.1119 19.2812 17.6 19.6243" stroke="black" stroke-width="0.544715" stroke-linecap="round"/>
<path d="M11.789 17.1817C12.6914 17.2981 14.5639 17.6692 16.3126 17.7046C19.4464 17.768 20.8011 18.4056 22.6176 18.5792C23.8957 18.7013 26.8554 18.6755 26.8554 18.6755" stroke="black" stroke-width="0.363143" stroke-linecap="round" stroke-linejoin="round"/>
<circle cx="14.2689" cy="12.119" r="1.08943" transform="rotate(11.1678 14.2689 12.119)" fill="black"/>
<circle cx="17.8768" cy="16.3475" r="0.363143" transform="rotate(11.1678 17.8768 16.3475)" fill="black"/>
<circle cx="20.4056" cy="16.6617" r="0.363143" transform="rotate(11.1678 20.4056 16.6617)" fill="black"/>
<circle cx="27.2351" cy="13.9387" r="1.271" transform="rotate(11.1678 27.2351 13.9387)" fill="black"/>
<path d="M31.702 20.3729C32.597 19.9018 33.5162 19.6206 33.9803 20.0824C34.4443 20.5443 34.4466 21.4699 32.098 22.1167" stroke="black" stroke-width="1.08943" stroke-linecap="round"/>
<path d="M8.21323 16.5469C8.43563 14.484 4.05261 13.2483 7.23526 18.6888L8.21323 16.5469Z" fill="#74EDE7" stroke="black" stroke-width="1.271"/>
</g>
<path d="M55.596 26.216C54.288 26.216 53.106 25.934 52.05 25.37C51.006 24.806 50.184 24.032 49.584 23.048C48.996 22.052 48.702 20.936 48.702 19.7C48.702 18.464 48.996 17.354 49.584 16.37C50.184 15.374 51.006 14.594 52.05 14.03C53.106 13.466 54.288 13.184 55.596 13.184C56.904 13.184 58.08 13.466 59.124 14.03C60.168 14.594 60.99 15.374 61.59 16.37C62.19 17.354 62.49 18.464 62.49 19.7C62.49 20.936 62.19 22.052 61.59 23.048C60.99 24.032 60.168 24.806 59.124 25.37C58.08 25.934 56.904 26.216 55.596 26.216ZM55.596 23.732C56.34 23.732 57.012 23.564 57.612 23.228C58.212 22.88 58.68 22.4 59.016 21.788C59.364 21.176 59.538 20.48 59.538 19.7C59.538 18.92 59.364 18.224 59.016 17.612C58.68 17 58.212 16.526 57.612 16.19C57.012 15.842 56.34 15.668 55.596 15.668C54.852 15.668 54.18 15.842 53.58 16.19C52.98 16.526 52.506 17 52.158 17.612C51.822 18.224 51.654 18.92 51.654 19.7C51.654 20.48 51.822 21.176 52.158 21.788C52.506 22.4 52.98 22.88 53.58 23.228C54.18 23.564 54.852 23.732 55.596 23.732ZM73.1955 19.502H75.8595V24.614C75.1755 25.13 74.3835 25.526 73.4835 25.802C72.5835 26.078 71.6775 26.216 70.7655 26.216C69.4575 26.216 68.2815 25.94 67.2375 25.388C66.1935 24.824 65.3715 24.05 64.7715 23.066C64.1835 22.07 63.8895 20.948 63.8895 19.7C63.8895 18.452 64.1835 17.336 64.7715 16.352C65.3715 15.356 66.1995 14.582 67.2555 14.03C68.3115 13.466 69.4995 13.184 70.8195 13.184C71.9235 13.184 72.9255 13.37 73.8255 13.742C74.7255 14.114 75.4815 14.654 76.0935 15.362L74.2215 17.09C73.3215 16.142 72.2355 15.668 70.9635 15.668C70.1595 15.668 69.4455 15.836 68.8215 16.172C68.1975 16.508 67.7115 16.982 67.3635 17.594C67.0155 18.206 66.8415 18.908 66.8415 19.7C66.8415 20.48 67.0155 21.176 67.3635 21.788C67.7115 22.4 68.1915 22.88 68.8035 23.228C69.4275 23.564 70.1355 23.732 70.9275 23.732C71.7675 23.732 72.5235 23.552 73.1955 23.192V19.502ZM82.7082 26.216C81.7122 26.216 80.7462 26.084 79.8102 25.82C78.8862 25.544 78.1422 25.19 77.5782 24.758L78.5682 22.562C79.1082 22.958 79.7502 23.276 80.4942 23.516C81.2382 23.756 81.9822 23.876 82.7262 23.876C83.5542 23.876 84.1662 23.756 84.5622 23.516C84.9582 23.264 85.1562 22.934 85.1562 22.526C85.1562 22.226 85.0362 21.98 84.7962 21.788C84.5682 21.584 84.2682 21.422 83.8962 21.302C83.5362 21.182 83.0442 21.05 82.4202 20.906C81.4602 20.678 80.6742 20.45 80.0622 20.222C79.4502 19.994 78.9222 19.628 78.4782 19.124C78.0462 18.62 77.8302 17.948 77.8302 17.108C77.8302 16.376 78.0282 15.716 78.4242 15.128C78.8202 14.528 79.4142 14.054 80.2062 13.706C81.0102 13.358 81.9882 13.184 83.1402 13.184C83.9442 13.184 84.7302 13.28 85.4982 13.472C86.2662 13.664 86.9382 13.94 87.5142 14.3L86.6142 16.514C85.4502 15.854 84.2862 15.524 83.1222 15.524C82.3062 15.524 81.7002 15.656 81.3042 15.92C80.9202 16.184 80.7282 16.532 80.7282 16.964C80.7282 17.396 80.9502 17.72 81.3942 17.936C81.8502 18.14 82.5402 18.344 83.4642 18.548C84.4242 18.776 85.2102 19.004 85.8222 19.232C86.4342 19.46 86.9562 19.82 87.3882 20.312C87.8322 20.804 88.0542 21.47 88.0542 22.31C88.0542 23.03 87.8502 23.69 87.4422 24.29C87.0462 24.878 86.4462 25.346 85.6422 25.694C84.8382 26.042 83.8602 26.216 82.7082 26.216Z" fill="#233433"/>
<defs>
<clipPath id="clip0">
<rect width="40" height="40" rx="20" fill="white"/>
</clipPath>
</defs>
</svg>
