<svg width="111" height="40" viewBox="0 0 111 40" fill="none" xmlns="http://www.w3.org/2000/svg">
<g clip-path="url(#clip0)">
<rect width="40" height="40" rx="20" fill="#74EDE7"/>
<path d="M6.88469 25.2262C9.15659 32.371 23.5157 35.3567 29.88 36.243C33.1398 36.7845 38.5468 36.7345 43.2332 36.103C47.0484 35.589 50.36 34.7241 52.5549 32.9463C54.5195 31.3551 55.0141 29.787 54.6533 27.865C54.0442 25.9256 52.0248 24.8417 50.5396 24.4057C51.1986 17.3172 45.3416 10.4235 41.4533 7.62006C38.1613 5.5702 34.2396 4.63181 29.4808 4.51652C24.7125 4.401 18.8161 6.07371 15.1406 8.71895C12.2281 10.815 9.77684 14.0303 8.78372 15.607C7.53994 17.5818 5.62864 21.2761 6.88469 25.2262Z" fill="#74EDE7" stroke="black" stroke-width="1.45257" stroke-linejoin="round"/>
<path d="M19.1633 18.2673C18.9148 18.5884 18.1118 19.2812 17.5999 19.6243" stroke="black" stroke-width="0.544715" stroke-linecap="round"/>
<path d="M11.7889 17.1817C12.6912 17.2981 14.5638 17.6692 16.3125 17.7046C19.4463 17.768 20.801 18.4056 22.6175 18.5792C23.8956 18.7013 26.8553 18.6755 26.8553 18.6755" stroke="black" stroke-width="0.363143" stroke-linecap="round" stroke-linejoin="round"/>
<circle cx="14.2691" cy="12.119" r="1.08943" transform="rotate(11.1678 14.2691 12.119)" fill="black"/>
<circle cx="17.8766" cy="16.3475" r="0.363143" transform="rotate(11.1678 17.8766 16.3475)" fill="black"/>
<circle cx="20.4057" cy="16.6617" r="0.363143" transform="rotate(11.1678 20.4057 16.6617)" fill="black"/>
<circle cx="27.235" cy="13.9387" r="1.271" transform="rotate(11.1678 27.235 13.9387)" fill="black"/>
<path d="M31.7018 20.3729C32.5968 19.9018 33.516 19.6206 33.98 20.0824C34.4441 20.5443 34.4464 21.4699 32.0978 22.1167" stroke="black" stroke-width="1.08943" stroke-linecap="round"/>
<path d="M8.21298 16.5469C8.43539 14.484 4.05236 13.2483 7.23501 18.6888L8.21298 16.5469Z" fill="#B9ED4A" stroke="black" stroke-width="1.271"/>
</g>
<path d="M66.128 28.788C64.384 28.788 62.808 28.412 61.4 27.66C60.008 26.908 58.912 25.876 58.112 24.564C57.328 23.236 56.936 21.748 56.936 20.1C56.936 18.452 57.328 16.972 58.112 15.66C58.912 14.332 60.008 13.292 61.4 12.54C62.808 11.788 64.384 11.412 66.128 11.412C67.872 11.412 69.44 11.788 70.832 12.54C72.224 13.292 73.32 14.332 74.12 15.66C74.92 16.972 75.32 18.452 75.32 20.1C75.32 21.748 74.92 23.236 74.12 24.564C73.32 25.876 72.224 26.908 70.832 27.66C69.44 28.412 67.872 28.788 66.128 28.788ZM66.128 25.476C67.12 25.476 68.016 25.252 68.816 24.804C69.616 24.34 70.24 23.7 70.688 22.884C71.152 22.068 71.384 21.14 71.384 20.1C71.384 19.06 71.152 18.132 70.688 17.316C70.24 16.5 69.616 15.868 68.816 15.42C68.016 14.956 67.12 14.724 66.128 14.724C65.136 14.724 64.24 14.956 63.44 15.42C62.64 15.868 62.008 16.5 61.544 17.316C61.096 18.132 60.872 19.06 60.872 20.1C60.872 21.14 61.096 22.068 61.544 22.884C62.008 23.7 62.64 24.34 63.44 24.804C64.24 25.252 65.136 25.476 66.128 25.476ZM89.594 19.836H93.146V26.652C92.234 27.34 91.178 27.868 89.978 28.236C88.778 28.604 87.57 28.788 86.354 28.788C84.61 28.788 83.042 28.42 81.65 27.684C80.258 26.932 79.162 25.9 78.362 24.588C77.578 23.26 77.186 21.764 77.186 20.1C77.186 18.436 77.578 16.948 78.362 15.636C79.162 14.308 80.266 13.276 81.674 12.54C83.082 11.788 84.666 11.412 86.426 11.412C87.898 11.412 89.234 11.66 90.434 12.156C91.634 12.652 92.642 13.372 93.458 14.316L90.962 16.62C89.762 15.356 88.314 14.724 86.618 14.724C85.546 14.724 84.594 14.948 83.762 15.396C82.93 15.844 82.282 16.476 81.818 17.292C81.354 18.108 81.122 19.044 81.122 20.1C81.122 21.14 81.354 22.068 81.818 22.884C82.282 23.7 82.922 24.34 83.738 24.804C84.57 25.252 85.514 25.476 86.57 25.476C87.69 25.476 88.698 25.236 89.594 24.756V19.836ZM102.278 28.788C100.95 28.788 99.6616 28.612 98.4136 28.26C97.1816 27.892 96.1896 27.42 95.4376 26.844L96.7576 23.916C97.4776 24.444 98.3336 24.868 99.3256 25.188C100.318 25.508 101.31 25.668 102.302 25.668C103.406 25.668 104.222 25.508 104.75 25.188C105.278 24.852 105.542 24.412 105.542 23.868C105.542 23.468 105.382 23.14 105.062 22.884C104.758 22.612 104.358 22.396 103.862 22.236C103.382 22.076 102.726 21.9 101.894 21.708C100.614 21.404 99.5656 21.1 98.7496 20.796C97.9336 20.492 97.2296 20.004 96.6376 19.332C96.0616 18.66 95.7736 17.764 95.7736 16.644C95.7736 15.668 96.0376 14.788 96.5656 14.004C97.0936 13.204 97.8856 12.572 98.9416 12.108C100.014 11.644 101.318 11.412 102.854 11.412C103.926 11.412 104.974 11.54 105.998 11.796C107.022 12.052 107.918 12.42 108.686 12.9L107.486 15.852C105.934 14.972 104.382 14.532 102.83 14.532C101.742 14.532 100.934 14.708 100.406 15.06C99.8936 15.412 99.6376 15.876 99.6376 16.452C99.6376 17.028 99.9336 17.46 100.526 17.748C101.134 18.02 102.054 18.292 103.286 18.564C104.566 18.868 105.614 19.172 106.43 19.476C107.246 19.78 107.942 20.26 108.518 20.916C109.11 21.572 109.406 22.46 109.406 23.58C109.406 24.54 109.134 25.42 108.59 26.22C108.062 27.004 107.262 27.628 106.19 28.092C105.118 28.556 103.814 28.788 102.278 28.788Z" fill="#233433"/>
<defs>
<clipPath id="clip0">
<rect width="40" height="40" rx="20" fill="white"/>
</clipPath>
</defs>
</svg>
