<svg width="106" height="40" viewBox="0 0 106 40" fill="none" xmlns="http://www.w3.org/2000/svg">
<g clip-path="url(#clip0)">
<rect width="40" height="40" rx="20" fill="#B9ED4A"/>
<path d="M6.88469 25.2262C9.15659 32.371 23.5157 35.3567 29.88 36.243C33.1398 36.7845 38.5468 36.7345 43.2332 36.103C47.0484 35.589 50.36 34.7241 52.5549 32.9463C54.5195 31.3551 55.0141 29.787 54.6533 27.865C54.0442 25.9256 52.0248 24.8417 50.5396 24.4057C51.1986 17.3172 45.3416 10.4235 41.4533 7.62006C38.1613 5.5702 34.2396 4.63181 29.4808 4.51652C24.7125 4.401 18.8161 6.07371 15.1406 8.71895C12.2281 10.815 9.77684 14.0303 8.78372 15.607C7.53994 17.5818 5.62864 21.2761 6.88469 25.2262Z" fill="#B9ED4A" stroke="black" stroke-width="1.45257" stroke-linejoin="round"/>
<path d="M19.1634 18.2673C18.915 18.5884 18.1119 19.2812 17.6 19.6243" stroke="black" stroke-width="0.544715" stroke-linecap="round"/>
<path d="M11.789 17.1817C12.6914 17.2981 14.5639 17.6692 16.3126 17.7046C19.4464 17.768 20.8011 18.4056 22.6176 18.5792C23.8957 18.7013 26.8554 18.6755 26.8554 18.6755" stroke="black" stroke-width="0.363143" stroke-linecap="round" stroke-linejoin="round"/>
<circle cx="14.2689" cy="12.119" r="1.08943" transform="rotate(11.1678 14.2689 12.119)" fill="black"/>
<circle cx="17.8768" cy="16.3475" r="0.363143" transform="rotate(11.1678 17.8768 16.3475)" fill="black"/>
<circle cx="20.4056" cy="16.6617" r="0.363143" transform="rotate(11.1678 20.4056 16.6617)" fill="black"/>
<circle cx="27.2351" cy="13.9387" r="1.271" transform="rotate(11.1678 27.2351 13.9387)" fill="black"/>
<path d="M31.702 20.3729C32.597 19.9018 33.5162 19.6206 33.9803 20.0824C34.4443 20.5443 34.4466 21.4699 32.098 22.1167" stroke="black" stroke-width="1.08943" stroke-linecap="round"/>
<path d="M8.21323 16.5469C8.43563 14.484 4.05261 13.2483 7.23526 18.6888L8.21323 16.5469Z" fill="#B9ED4A" stroke="black" stroke-width="1.271"/>
</g>
<path d="M55.596 26.216C54.288 26.216 53.106 25.934 52.05 25.37C51.006 24.806 50.184 24.032 49.584 23.048C48.996 22.052 48.702 20.936 48.702 19.7C48.702 18.464 48.996 17.354 49.584 16.37C50.184 15.374 51.006 14.594 52.05 14.03C53.106 13.466 54.288 13.184 55.596 13.184C56.904 13.184 58.08 13.466 59.124 14.03C60.168 14.594 60.99 15.374 61.59 16.37C62.19 17.354 62.49 18.464 62.49 19.7C62.49 20.936 62.19 22.052 61.59 23.048C60.99 24.032 60.168 24.806 59.124 25.37C58.08 25.934 56.904 26.216 55.596 26.216ZM55.596 23.732C56.34 23.732 57.012 23.564 57.612 23.228C58.212 22.88 58.68 22.4 59.016 21.788C59.364 21.176 59.538 20.48 59.538 19.7C59.538 18.92 59.364 18.224 59.016 17.612C58.68 17 58.212 16.526 57.612 16.19C57.012 15.842 56.34 15.668 55.596 15.668C54.852 15.668 54.18 15.842 53.58 16.19C52.98 16.526 52.506 17 52.158 17.612C51.822 18.224 51.654 18.92 51.654 19.7C51.654 20.48 51.822 21.176 52.158 21.788C52.506 22.4 52.98 22.88 53.58 23.228C54.18 23.564 54.852 23.732 55.596 23.732ZM70.2795 26.216C68.4795 26.216 67.0755 25.718 66.0675 24.722C65.0715 23.726 64.5735 22.304 64.5735 20.456V13.4H67.4895V20.348C67.4895 22.604 68.4255 23.732 70.2975 23.732C71.2095 23.732 71.9055 23.462 72.3855 22.922C72.8655 22.37 73.1055 21.512 73.1055 20.348V13.4H75.9855V20.456C75.9855 22.304 75.4815 23.726 74.4735 24.722C73.4775 25.718 72.0795 26.216 70.2795 26.216ZM86.895 26L84.465 22.49H84.321H81.783V26H78.867V13.4H84.321C85.437 13.4 86.403 13.586 87.219 13.958C88.047 14.33 88.683 14.858 89.127 15.542C89.571 16.226 89.793 17.036 89.793 17.972C89.793 18.908 89.565 19.718 89.109 20.402C88.665 21.074 88.029 21.59 87.201 21.95L90.027 26H86.895ZM86.841 17.972C86.841 17.264 86.613 16.724 86.157 16.352C85.701 15.968 85.035 15.776 84.159 15.776H81.783V20.168H84.159C85.035 20.168 85.701 19.976 86.157 19.592C86.613 19.208 86.841 18.668 86.841 17.972ZM98.2054 26.216C96.8974 26.216 95.7154 25.934 94.6594 25.37C93.6154 24.806 92.7934 24.032 92.1934 23.048C91.6054 22.052 91.3114 20.936 91.3114 19.7C91.3114 18.464 91.6054 17.354 92.1934 16.37C92.7934 15.374 93.6154 14.594 94.6594 14.03C95.7154 13.466 96.8974 13.184 98.2054 13.184C99.5134 13.184 100.689 13.466 101.733 14.03C102.777 14.594 103.599 15.374 104.199 16.37C104.799 17.354 105.099 18.464 105.099 19.7C105.099 20.936 104.799 22.052 104.199 23.048C103.599 24.032 102.777 24.806 101.733 25.37C100.689 25.934 99.5134 26.216 98.2054 26.216ZM98.2054 23.732C98.9494 23.732 99.6214 23.564 100.221 23.228C100.821 22.88 101.289 22.4 101.625 21.788C101.973 21.176 102.147 20.48 102.147 19.7C102.147 18.92 101.973 18.224 101.625 17.612C101.289 17 100.821 16.526 100.221 16.19C99.6214 15.842 98.9494 15.668 98.2054 15.668C97.4614 15.668 96.7894 15.842 96.1894 16.19C95.5894 16.526 95.1154 17 94.7674 17.612C94.4314 18.224 94.2634 18.92 94.2634 19.7C94.2634 20.48 94.4314 21.176 94.7674 21.788C95.1154 22.4 95.5894 22.88 96.1894 23.228C96.7894 23.564 97.4614 23.732 98.2054 23.732Z" fill="#233433"/>
<defs>
<clipPath id="clip0">
<rect width="40" height="40" rx="20" fill="white"/>
</clipPath>
</defs>
</svg>
