<svg width="134" height="40" viewBox="0 0 134 40" fill="none" xmlns="http://www.w3.org/2000/svg">
<g clip-path="url(#clip0)">
<rect width="40" height="40" rx="20" fill="#B9ED4A"/>
<path d="M6.88469 25.2261C9.15659 32.3709 23.5157 35.3566 29.88 36.2429C33.1398 36.7844 38.5468 36.7344 43.2332 36.1029C47.0484 35.5888 50.36 34.724 52.5549 32.9462C54.5195 31.3549 55.0141 29.7869 54.6533 27.8649C54.0442 25.9255 52.0248 24.8416 50.5396 24.4055C51.1986 17.3171 45.3416 10.4234 41.4533 7.61994C38.1613 5.57008 34.2396 4.63169 29.4808 4.5164C24.7125 4.40088 18.8161 6.07359 15.1406 8.71883C12.2281 10.8149 9.77684 14.0301 8.78372 15.6068C7.53994 17.5816 5.62864 21.276 6.88469 25.2261Z" fill="#B9ED4A" stroke="black" stroke-width="1.45257" stroke-linejoin="round"/>
<path d="M19.1634 18.2672C18.915 18.5883 18.1119 19.2811 17.6 19.6242" stroke="black" stroke-width="0.544715" stroke-linecap="round"/>
<path d="M11.789 17.1817C12.6914 17.2981 14.5639 17.6692 16.3126 17.7046C19.4464 17.768 20.8011 18.4056 22.6176 18.5792C23.8957 18.7013 26.8554 18.6755 26.8554 18.6755" stroke="black" stroke-width="0.363143" stroke-linecap="round" stroke-linejoin="round"/>
<circle cx="14.2689" cy="12.1192" r="1.08943" transform="rotate(11.1678 14.2689 12.1192)" fill="black"/>
<circle cx="17.8765" cy="16.3475" r="0.363143" transform="rotate(11.1678 17.8765 16.3475)" fill="black"/>
<circle cx="20.4058" cy="16.6617" r="0.363143" transform="rotate(11.1678 20.4058 16.6617)" fill="black"/>
<circle cx="27.2351" cy="13.9387" r="1.271" transform="rotate(11.1678 27.2351 13.9387)" fill="black"/>
<path d="M31.7018 20.3729C32.5968 19.9018 33.516 19.6206 33.98 20.0824C34.4441 20.5443 34.4464 21.4699 32.0978 22.1167" stroke="black" stroke-width="1.08943" stroke-linecap="round"/>
<path d="M8.21298 16.5468C8.43539 14.4838 4.05236 13.2481 7.23501 18.6887L8.21298 16.5468Z" fill="#B9ED4A" stroke="black" stroke-width="1.271"/>
</g>
<path d="M66.128 28.788C64.384 28.788 62.808 28.412 61.4 27.66C60.008 26.908 58.912 25.876 58.112 24.564C57.328 23.236 56.936 21.748 56.936 20.1C56.936 18.452 57.328 16.972 58.112 15.66C58.912 14.332 60.008 13.292 61.4 12.54C62.808 11.788 64.384 11.412 66.128 11.412C67.872 11.412 69.44 11.788 70.832 12.54C72.224 13.292 73.32 14.332 74.12 15.66C74.92 16.972 75.32 18.452 75.32 20.1C75.32 21.748 74.92 23.236 74.12 24.564C73.32 25.876 72.224 26.908 70.832 27.66C69.44 28.412 67.872 28.788 66.128 28.788ZM66.128 25.476C67.12 25.476 68.016 25.252 68.816 24.804C69.616 24.34 70.24 23.7 70.688 22.884C71.152 22.068 71.384 21.14 71.384 20.1C71.384 19.06 71.152 18.132 70.688 17.316C70.24 16.5 69.616 15.868 68.816 15.42C68.016 14.956 67.12 14.724 66.128 14.724C65.136 14.724 64.24 14.956 63.44 15.42C62.64 15.868 62.008 16.5 61.544 17.316C61.096 18.132 60.872 19.06 60.872 20.1C60.872 21.14 61.096 22.068 61.544 22.884C62.008 23.7 62.64 24.34 63.44 24.804C64.24 25.252 65.136 25.476 66.128 25.476ZM85.706 28.788C83.306 28.788 81.434 28.124 80.09 26.796C78.762 25.468 78.098 23.572 78.098 21.108V11.7H81.986V20.964C81.986 23.972 83.234 25.476 85.73 25.476C86.946 25.476 87.874 25.116 88.514 24.396C89.154 23.66 89.474 22.516 89.474 20.964V11.7H93.314V21.108C93.314 23.572 92.642 25.468 91.298 26.796C89.97 28.124 88.106 28.788 85.706 28.788ZM107.86 28.5L104.62 23.82H104.428H101.044V28.5H97.1561V11.7H104.428C105.916 11.7 107.204 11.948 108.292 12.444C109.396 12.94 110.244 13.644 110.836 14.556C111.428 15.468 111.724 16.548 111.724 17.796C111.724 19.044 111.42 20.124 110.812 21.036C110.22 21.932 109.372 22.62 108.268 23.1L112.036 28.5H107.86ZM107.788 17.796C107.788 16.852 107.484 16.132 106.876 15.636C106.268 15.124 105.38 14.868 104.212 14.868H101.044V20.724H104.212C105.38 20.724 106.268 20.468 106.876 19.956C107.484 19.444 107.788 18.724 107.788 17.796ZM122.941 28.788C121.197 28.788 119.621 28.412 118.213 27.66C116.821 26.908 115.725 25.876 114.925 24.564C114.141 23.236 113.749 21.748 113.749 20.1C113.749 18.452 114.141 16.972 114.925 15.66C115.725 14.332 116.821 13.292 118.213 12.54C119.621 11.788 121.197 11.412 122.941 11.412C124.685 11.412 126.253 11.788 127.645 12.54C129.037 13.292 130.133 14.332 130.933 15.66C131.733 16.972 132.133 18.452 132.133 20.1C132.133 21.748 131.733 23.236 130.933 24.564C130.133 25.876 129.037 26.908 127.645 27.66C126.253 28.412 124.685 28.788 122.941 28.788ZM122.941 25.476C123.933 25.476 124.829 25.252 125.629 24.804C126.429 24.34 127.053 23.7 127.501 22.884C127.965 22.068 128.197 21.14 128.197 20.1C128.197 19.06 127.965 18.132 127.501 17.316C127.053 16.5 126.429 15.868 125.629 15.42C124.829 14.956 123.933 14.724 122.941 14.724C121.949 14.724 121.053 14.956 120.253 15.42C119.453 15.868 118.821 16.5 118.357 17.316C117.909 18.132 117.685 19.06 117.685 20.1C117.685 21.14 117.909 22.068 118.357 22.884C118.821 23.7 119.453 24.34 120.253 24.804C121.053 25.252 121.949 25.476 122.941 25.476Z" fill="#233433"/>
<defs>
<clipPath id="clip0">
<rect width="40" height="40" rx="20" fill="white"/>
</clipPath>
</defs>
</svg>
