<svg width="15" height="14" viewBox="0 0 15 14" fill="none" xmlns="http://www.w3.org/2000/svg">
<path d="M8.16667 4.33301V2.99967H6.83334V4.33301H8.16667Z" fill="#8F9688"/>
<path d="M8.16667 10.9997V5.66634L6.83334 5.66634V10.9997H8.16667Z" fill="#8F9688"/>
<path fill-rule="evenodd" clip-rule="evenodd" d="M14.1667 6.99967C14.1667 3.31778 11.1819 0.333008 7.5 0.333008C3.8181 0.333008 0.833336 3.31778 0.833336 6.99967C0.833336 10.6816 3.8181 13.6663 7.5 13.6663C11.1819 13.6663 14.1667 10.6816 14.1667 6.99967ZM12.8333 6.99967C12.8333 4.05416 10.4455 1.66634 7.5 1.66634C4.55448 1.66634 2.16667 4.05416 2.16667 6.99967C2.16667 9.94519 4.55448 12.333 7.5 12.333C10.4455 12.333 12.8333 9.94519 12.8333 6.99967Z" fill="#8F9688"/>
</svg>
