<svg width="24" height="24" viewBox="0 0 24 24" fill="none" xmlns="http://www.w3.org/2000/svg">
<path fill-rule="evenodd" clip-rule="evenodd" d="M12 24C18.6274 24 24 18.6274 24 12C24 5.37258 18.6274 0 12 0C5.37258 0 0 5.37258 0 12C0 18.6274 5.37258 24 12 24ZM18.0892 7.20595L17.1213 8.13272C17.0389 8.19451 16.9977 8.29748 17.0183 8.40046V15.2071C16.9977 15.3101 17.0389 15.413 17.1213 15.4748L18.0686 16.4016V16.6076H13.3215V16.4016L14.2998 15.4542C14.4027 15.3616 14.4027 15.3307 14.4027 15.1865V9.68764L11.6842 16.5767H11.3135L8.15217 9.68764V14.3112C8.13158 14.4966 8.19336 14.6922 8.32723 14.8364L9.60412 16.381V16.5767H6V16.381L7.26659 14.8364C7.40046 14.6922 7.46224 14.4966 7.43135 14.3112V8.96682C7.45194 8.81236 7.39016 8.66819 7.27689 8.56522L6.15446 7.20595V7H9.65561L12.3638 12.9519L14.7426 7H18.0892V7.20595Z" fill="#8F9688"/>
</svg>
