<svg width="24" height="24" viewBox="0 0 24 24" fill="none" xmlns="http://www.w3.org/2000/svg">
<path fill-rule="evenodd" clip-rule="evenodd" d="M12.5 4.5C12.5 3.83696 12.2366 3.20107 11.7678 2.73223C11.2989 2.26339 10.663 2 10 2C9.33696 2 8.70107 2.26339 8.23223 2.73223C7.76339 3.20107 7.5 3.83696 7.5 4.5V15.5H9.5V13H14.5V15.5H16.5V4.5H16.5006C16.5006 4.36755 16.5532 4.24052 16.6469 4.14687C16.7405 4.05321 16.8675 4.00059 17 4.00059C17.1325 4.00059 17.2595 4.05321 17.3531 4.14687C17.4468 4.24052 17.4994 4.36755 17.4994 4.5H19.5C19.5 3.83696 19.2366 3.20107 18.7678 2.73223C18.2989 2.26339 17.663 2 17 2C16.337 2 15.7011 2.26339 15.2322 2.73223C14.7634 3.20107 14.5 3.83696 14.5 4.5V7H9.5V4.5H9.50059C9.50059 4.36755 9.55321 4.24052 9.64687 4.14687C9.74052 4.05321 9.86755 4.00059 10 4.00059C10.1325 4.00059 10.2595 4.05321 10.3531 4.14687C10.4468 4.24052 10.4994 4.36755 10.4994 4.5H12.5ZM14.5 11V9H9.5V11H14.5Z" fill="#233433"/>
<path d="M2.5 16.5C2.5 16.5 3.5 14.9999 6 15C8.5 15.0001 9.46159 17.5 12 17.5C14.5 17.5 15.6245 15 18 15C20.5 15 21.5 16.5 21.5 16.5" stroke="#233433" stroke-width="2"/>
<path d="M2.5 20.5C2.5 20.5 3.5 18.9999 6 19C8.5 19.0001 9.46159 21.5 12 21.5C14.5 21.5 15.6245 19 18 19C20.5 19 21.5 20.5 21.5 20.5" stroke="#233433" stroke-width="2"/>
</svg>
