<svg width="24" height="24" viewBox="0 0 24 24" fill="none" xmlns="http://www.w3.org/2000/svg">
<path d="M12 0C5.37313 0 0 5.37313 0 11.9872C0 18.6141 5.37313 24 12 24C18.6269 24 24 18.6141 24 11.9872C24 5.37313 18.6269 0 12 0ZM17.9104 7.53518C17.8337 8.64819 15.774 16.9638 15.774 16.9638C15.774 16.9638 15.6461 17.4499 15.1983 17.4627C15.0448 17.4627 14.8401 17.4499 14.6098 17.2324C14.1365 16.8358 13.0618 16.0682 12.0512 15.3646C12.0128 15.403 11.9744 15.4414 11.9232 15.4797C11.693 15.6844 11.3475 15.9787 10.9765 16.3369C10.8358 16.4648 10.6823 16.6055 10.5288 16.7591L10.516 16.7719C10.4264 16.8614 10.3497 16.9254 10.2857 16.9765C9.78678 17.3859 9.73561 17.0405 9.73561 16.8614L10.0043 13.9318V13.9062L10.0171 13.8806C10.0299 13.8422 10.0554 13.8294 10.0554 13.8294C10.0554 13.8294 15.2878 9.17271 15.4286 8.67377C15.4414 8.64819 15.403 8.6226 15.339 8.64819C14.9936 8.76333 8.96802 12.5757 8.30277 12.9979C8.26439 13.0235 8.14925 13.0107 8.14925 13.0107L5.21962 12.0512C5.21962 12.0512 4.8742 11.9104 4.98934 11.5906C5.01493 11.5267 5.05331 11.4627 5.19403 11.3731C5.84648 10.9126 17.194 6.83156 17.194 6.83156C17.194 6.83156 17.5139 6.72921 17.7058 6.79318C17.7953 6.83156 17.8465 6.86994 17.8977 6.99787C17.9104 7.04904 17.9232 7.15139 17.9232 7.26652C17.9232 7.33049 17.9104 7.40725 17.9104 7.53518Z" fill="#8F9688"/>
</svg>
