<svg width="19" height="19" viewBox="0 0 19 19" fill="none" xmlns="http://www.w3.org/2000/svg">
<path d="M12.3 13.1246L8.69995 9.42461V4.22461H10.7V8.62461L13.8 11.6246L12.3 13.1246Z" fill="#8F9688"/>
<path d="M16.1 15.425C14.4 17.125 12.2 18.025 9.9 18.025V16.025C11.7 16.025 13.4 15.225 14.7 14.025C17.4 11.325 17.4 6.825 14.7 4.125C12 1.425 7.5 1.425 4.8 4.125C2.1 6.825 2.1 11.025 4.6 13.825L5.6 14.825C5.5 14.225 5.4 13.625 5.4 12.925V10.625H7.4V18.025H0V16.025H2.3C2.9 16.025 3.5 16.125 4.1 16.225L3.1 15.225C-0.2 11.625 -0.1 6.125 3.3 2.625C6.8 -0.875 12.5 -0.875 16 2.625C19.5 6.125 19.6 11.925 16.1 15.425Z" fill="#8F9688"/>
</svg>
