<svg width="24" height="24" viewBox="0 0 24 24" fill="none" xmlns="http://www.w3.org/2000/svg">
<rect width="24" height="24" rx="12" fill="#8F9688"/>
<path d="M9.21545 17.8335C14.874 17.8335 17.9715 13.0284 17.9715 8.86448C17.9715 8.73123 17.9715 8.59799 17.9634 8.45641C18.565 8.01504 19.0854 7.45708 19.5 6.82417C18.9472 7.074 18.3537 7.24056 17.7276 7.32384C18.3618 6.93243 18.8496 6.31617 19.0854 5.575C18.4919 5.94142 17.8333 6.19959 17.126 6.34116C16.565 5.71657 15.7683 5.3335 14.8821 5.3335C13.1829 5.3335 11.8008 6.74922 11.8008 8.48973C11.8008 8.73956 11.8333 8.97274 11.8821 9.20591C9.32927 9.081 7.06098 7.81518 5.54065 5.90811C5.27236 6.3828 5.12602 6.9241 5.12602 7.49872C5.12602 8.58966 5.67073 9.55568 6.49187 10.122C5.9878 10.1053 5.51626 9.96374 5.10163 9.73057C5.10163 9.73889 5.10163 9.75555 5.10163 9.7722C5.10163 11.2962 6.16667 12.5787 7.56504 12.8618C7.30488 12.9368 7.03659 12.9701 6.75203 12.9701C6.55691 12.9701 6.36179 12.9534 6.1748 12.9118C6.56504 14.1693 7.70325 15.077 9.05285 15.102C7.99593 15.9514 6.67073 16.4511 5.23171 16.4511C4.9878 16.4511 4.73577 16.4428 4.5 16.4094C5.85772 17.3088 7.47561 17.8335 9.21545 17.8335Z" fill="white"/>
</svg>
