<svg width="375" height="240" viewBox="0 0 375 240" fill="none" xmlns="http://www.w3.org/2000/svg">
<g clip-path="url(#clip0)">
<rect width="375" height="240" fill="#FAFAFA"/>
<path d="M31.7691 65.5159C-14.5309 65.5159 -37.8417 12 -88 12L-44.0729 240H375V27.9448C334.166 27.9448 333.684 45.5518 285.455 54.2469C250.89 60.4784 222.832 46.933 201.857 34.7286C139.802 -1.37897 108.169 65.5159 31.7691 65.5159Z" fill="#EAEFE2"/>
<path opacity="0.3" fill-rule="evenodd" clip-rule="evenodd" d="M84.9976 64.9839C85.7293 64.9839 86.3225 65.5771 86.3225 66.3088L86.3225 76.713C86.9875 76.5971 87.4795 76.4675 87.8488 76.3198C88.395 76.1013 88.5843 75.8807 88.6981 75.6532C88.8515 75.3463 88.9532 74.8483 88.9833 73.9055C89.0015 73.3363 88.9939 72.7108 88.985 71.9653V71.9653C88.979 71.4652 88.9723 70.911 88.9723 70.2836C88.9723 69.5518 89.5655 68.9586 90.2972 68.9587C91.029 68.9587 91.6221 69.5519 91.6221 70.2836C91.6221 70.8236 91.6281 71.3455 91.6338 71.8397V71.8397V71.8398C91.643 72.6435 91.6514 73.374 91.6318 73.9901C91.5997 74.9933 91.4944 75.9858 91.0682 76.8382C90.6023 77.77 89.8394 78.3775 88.8329 78.7801C88.1423 79.0563 87.307 79.2487 86.3225 79.3976V79.558C86.3225 80.2897 85.7293 80.8829 84.9976 80.8829C84.2659 80.8829 83.6727 80.2897 83.6727 79.558V78.2561C83.6724 78.2396 83.6724 78.2232 83.6727 78.2068V76.9082H83.6727C82.1658 76.9082 80.9263 76.6008 80.0009 75.9331C79.0423 75.2415 78.5761 74.2759 78.4285 73.2964C78.1531 71.4681 78.9573 69.4861 79.6477 68.2945C80.0145 67.6613 80.8252 67.4454 81.4583 67.8122C82.0915 68.1791 82.3074 68.9897 81.9405 69.6228C81.3515 70.6394 80.9084 71.9697 81.0488 72.9017C81.1091 73.3023 81.2665 73.5787 81.5513 73.7842C81.8693 74.0136 82.4929 74.2583 83.6727 74.2583H83.6727L83.6727 66.3088C83.6727 65.5771 84.2659 64.9839 84.9976 64.9839Z" fill="#88A447"/>
<path opacity="0.3" fill-rule="evenodd" clip-rule="evenodd" d="M48.7237 73.8315C49.4554 73.8315 50.0486 74.4247 50.0486 75.1565L50.0486 85.5607C50.7136 85.4448 51.2056 85.3151 51.5749 85.1674C52.121 84.949 52.3104 84.7284 52.4242 84.5008C52.5776 84.1939 52.6793 83.6959 52.7094 82.7532C52.7275 82.184 52.72 81.5585 52.711 80.813V80.813C52.705 80.3128 52.6984 79.7586 52.6984 79.1312C52.6984 78.3995 53.2916 77.8063 54.0233 77.8063C54.755 77.8063 55.3482 78.3995 55.3482 79.1313C55.3482 79.6713 55.3542 80.1932 55.3599 80.6874V80.6874V80.6874C55.3691 81.4912 55.3775 82.2216 55.3578 82.8377C55.3258 83.8409 55.2205 84.8335 54.7943 85.6859C54.3284 86.6177 53.5655 87.2251 52.559 87.6277C51.8684 87.904 51.033 88.0963 50.0486 88.2453V88.4056C50.0486 89.1374 49.4554 89.7306 48.7237 89.7306C47.9919 89.7306 47.3988 89.1374 47.3988 88.4056V87.1038C47.3985 87.0873 47.3985 87.0708 47.3988 87.0544V85.7558H47.3987C45.8919 85.7558 44.6524 85.4484 43.727 84.7808C42.7684 84.0892 42.3021 83.1235 42.1546 82.144C41.8792 80.3158 42.6834 78.3337 43.3738 77.1421C43.7406 76.509 44.5512 76.2931 45.1844 76.6599C45.8175 77.0267 46.0334 77.8374 45.6666 78.4705C45.0776 79.4871 44.6345 80.8173 44.7749 81.7493C44.8352 82.15 44.9926 82.4264 45.2774 82.6319C45.5954 82.8613 46.219 83.106 47.3987 83.106H47.3988L47.3988 75.1565C47.3988 74.4247 47.9919 73.8315 48.7237 73.8315Z" fill="#88A447"/>
<path opacity="0.3" fill-rule="evenodd" clip-rule="evenodd" d="M22.6246 80.0239C23.3563 80.0239 23.9495 80.6171 23.9495 81.3488L23.9495 91.7531C24.6144 91.6372 25.1065 91.5075 25.4757 91.3598C26.0219 91.1413 26.2113 90.9207 26.325 90.6932C26.4785 90.3863 26.5801 89.8883 26.6102 88.9456C26.6284 88.3764 26.6209 87.7509 26.6119 87.0054V87.0054C26.6059 86.5052 26.5992 85.951 26.5993 85.3236C26.5993 84.5919 27.1925 83.9987 27.9242 83.9987C28.6559 83.9987 29.2491 84.5919 29.2491 85.3236C29.2491 85.8637 29.2551 86.3856 29.2608 86.8797V86.8797V86.8798C29.27 87.6836 29.2784 88.414 29.2587 89.0301C29.2267 90.0333 29.1213 91.0259 28.6951 91.8783C28.2292 92.8101 27.4663 93.4175 26.4599 93.8201C25.7693 94.0964 24.9339 94.2887 23.9495 94.4376V94.598C23.9495 95.3298 23.3563 95.9229 22.6246 95.9229C21.8928 95.9229 21.2996 95.3298 21.2996 94.598V93.2962C21.2993 93.2797 21.2993 93.2632 21.2996 93.2468V91.9482H21.2996C19.7927 91.9482 18.5532 91.6408 17.6279 90.9732C16.6693 90.2816 16.203 89.3159 16.0555 88.3364C15.7801 86.5082 16.5843 84.5261 17.2747 83.3345C17.6415 82.7014 18.4521 82.4855 19.0853 82.8523C19.7184 83.2191 19.9343 84.0297 19.5675 84.6629C18.9785 85.6795 18.5354 87.0097 18.6757 87.9417C18.7361 88.3423 18.8935 88.6188 19.1783 88.8243C19.4963 89.0537 20.1198 89.2984 21.2996 89.2984H21.2996L21.2996 81.3488C21.2996 80.6171 21.8928 80.0239 22.6246 80.0239Z" fill="#88A447"/>
<path opacity="0.3" fill-rule="evenodd" clip-rule="evenodd" d="M111.097 86.6597C111.828 86.6597 112.422 87.2529 112.422 87.9846L112.422 98.3888C113.087 98.2729 113.579 98.1433 113.948 97.9955C114.494 97.7771 114.683 97.5565 114.797 97.329C114.951 97.0221 115.052 96.5241 115.082 95.5813C115.101 95.0121 115.093 94.3866 115.084 93.6411V93.6411C115.078 93.1409 115.071 92.5868 115.071 91.9593C115.071 91.2276 115.665 90.6344 116.396 90.6344C117.128 90.6344 117.721 91.2276 117.721 91.9594C117.721 92.4994 117.727 93.0213 117.733 93.5155V93.5155V93.5155C117.742 94.3193 117.751 95.0498 117.731 95.6659C117.699 96.6691 117.593 97.6616 117.167 98.514C116.701 99.4458 115.939 100.053 114.932 100.456C114.241 100.732 113.406 100.924 112.422 101.073V101.234C112.422 101.965 111.828 102.559 111.097 102.559C110.365 102.559 109.772 101.965 109.772 101.234V99.9319C109.772 99.9154 109.772 99.8989 109.772 99.8825V98.5839H109.772C108.265 98.5839 107.025 98.2766 106.1 97.6089C105.141 96.9173 104.675 95.9516 104.528 94.9722C104.252 93.1439 105.056 91.1618 105.747 89.9702C106.114 89.3371 106.924 89.1212 107.557 89.488C108.191 89.8548 108.406 90.6655 108.04 91.2986C107.451 92.3152 107.008 93.6454 107.148 94.5774C107.208 94.9781 107.366 95.2545 107.65 95.46C107.968 95.6894 108.592 95.9341 109.772 95.9341H109.772L109.772 87.9846C109.772 87.2529 110.365 86.6597 111.097 86.6597Z" fill="#88A447"/>
<path d="M142.964 74.2V81.6H155.924V86.8H142.964V97H136.484V69H157.644V74.2H142.964ZM169.685 75.16C173.018 75.16 175.578 75.96 177.365 77.56C179.152 79.1333 180.045 81.52 180.045 84.72V97H174.205V94.32C173.032 96.32 170.845 97.32 167.645 97.32C165.992 97.32 164.552 97.04 163.325 96.48C162.125 95.92 161.205 95.1467 160.565 94.16C159.925 93.1733 159.605 92.0533 159.605 90.8C159.605 88.8 160.352 87.2267 161.845 86.08C163.365 84.9333 165.698 84.36 168.845 84.36H173.805C173.805 83 173.392 81.96 172.565 81.24C171.738 80.4933 170.498 80.12 168.845 80.12C167.698 80.12 166.565 80.3067 165.445 80.68C164.352 81.0267 163.418 81.5067 162.645 82.12L160.405 77.76C161.578 76.9333 162.978 76.2933 164.605 75.84C166.258 75.3867 167.952 75.16 169.685 75.16ZM169.205 93.12C170.272 93.12 171.218 92.88 172.045 92.4C172.872 91.8933 173.458 91.16 173.805 90.2V88H169.525C166.965 88 165.685 88.84 165.685 90.52C165.685 91.32 165.992 91.96 166.605 92.44C167.245 92.8933 168.112 93.12 169.205 93.12ZM191.653 78.32C192.399 77.28 193.399 76.4933 194.653 75.96C195.933 75.4267 197.399 75.16 199.053 75.16V80.92C198.359 80.8667 197.893 80.84 197.653 80.84C195.866 80.84 194.466 81.3467 193.453 82.36C192.439 83.3467 191.933 84.84 191.933 86.84V97H185.693V75.48H191.653V78.32ZM230.323 75.16C233.016 75.16 235.149 75.96 236.723 77.56C238.323 79.1333 239.123 81.5067 239.123 84.68V97H232.883V85.64C232.883 83.9333 232.523 82.6667 231.803 81.84C231.109 80.9867 230.109 80.56 228.803 80.56C227.336 80.56 226.176 81.04 225.323 82C224.469 82.9333 224.043 84.3333 224.043 86.2V97H217.803V85.64C217.803 82.2533 216.443 80.56 213.723 80.56C212.283 80.56 211.136 81.04 210.283 82C209.429 82.9333 209.003 84.3333 209.003 86.2V97H202.763V75.48H208.723V77.96C209.523 77.0533 210.496 76.36 211.643 75.88C212.816 75.4 214.096 75.16 215.483 75.16C217.003 75.16 218.376 75.4667 219.603 76.08C220.829 76.6667 221.816 77.5333 222.563 78.68C223.443 77.56 224.549 76.6933 225.883 76.08C227.243 75.4667 228.723 75.16 230.323 75.16Z" fill="#233433"/>
<path d="M52.4466 136.18C51.4746 136.18 50.5326 136.042 49.6206 135.766C48.7206 135.49 48.0066 135.124 47.4786 134.668L48.2886 132.85C48.8046 133.258 49.4346 133.594 50.1786 133.858C50.9346 134.11 51.6906 134.236 52.4466 134.236C53.3826 134.236 54.0786 134.086 54.5346 133.786C55.0026 133.486 55.2366 133.09 55.2366 132.598C55.2366 132.238 55.1046 131.944 54.8406 131.716C54.5886 131.476 54.2646 131.29 53.8686 131.158C53.4726 131.026 52.9326 130.876 52.2486 130.708C51.2886 130.48 50.5086 130.252 49.9086 130.024C49.3206 129.796 48.8106 129.442 48.3786 128.962C47.9586 128.47 47.7486 127.81 47.7486 126.982C47.7486 126.286 47.9346 125.656 48.3066 125.092C48.6906 124.516 49.2606 124.06 50.0166 123.724C50.7846 123.388 51.7206 123.22 52.8246 123.22C53.5926 123.22 54.3486 123.316 55.0926 123.508C55.8366 123.7 56.4786 123.976 57.0186 124.336L56.2806 126.154C55.7286 125.83 55.1526 125.584 54.5526 125.416C53.9526 125.248 53.3706 125.164 52.8066 125.164C51.8826 125.164 51.1926 125.32 50.7366 125.632C50.2926 125.944 50.0706 126.358 50.0706 126.874C50.0706 127.234 50.1966 127.528 50.4486 127.756C50.7126 127.984 51.0426 128.164 51.4386 128.296C51.8346 128.428 52.3746 128.578 53.0586 128.746C53.9946 128.962 54.7626 129.19 55.3626 129.43C55.9626 129.658 56.4726 130.012 56.8926 130.492C57.3246 130.972 57.5406 131.62 57.5406 132.436C57.5406 133.132 57.3486 133.762 56.9646 134.326C56.5926 134.89 56.0226 135.34 55.2546 135.676C54.4866 136.012 53.5506 136.18 52.4466 136.18ZM65.4229 135.478C65.1589 135.694 64.8349 135.856 64.4509 135.964C64.0789 136.072 63.6829 136.126 63.2629 136.126C62.2069 136.126 61.3909 135.85 60.8149 135.298C60.2389 134.746 59.9509 133.942 59.9509 132.886V128.26H58.3669V126.46H59.9509V124.264H62.2009V126.46H64.7749V128.26H62.2009V132.832C62.2009 133.3 62.3149 133.66 62.5429 133.912C62.7709 134.152 63.1009 134.272 63.5329 134.272C64.0369 134.272 64.4569 134.14 64.7929 133.876L65.4229 135.478ZM70.9459 126.28C72.3619 126.28 73.4419 126.622 74.1859 127.306C74.9419 127.978 75.3199 128.998 75.3199 130.366V136H73.1959V134.83C72.9199 135.25 72.5239 135.574 72.0079 135.802C71.5039 136.018 70.8919 136.126 70.1719 136.126C69.4519 136.126 68.8219 136.006 68.2819 135.766C67.7419 135.514 67.3219 135.172 67.0219 134.74C66.7339 134.296 66.5899 133.798 66.5899 133.246C66.5899 132.382 66.9079 131.692 67.5439 131.176C68.1919 130.648 69.2059 130.384 70.5859 130.384H73.0699V130.24C73.0699 129.568 72.8659 129.052 72.4579 128.692C72.0619 128.332 71.4679 128.152 70.6759 128.152C70.1359 128.152 69.6019 128.236 69.0739 128.404C68.5579 128.572 68.1199 128.806 67.7599 129.106L66.8779 127.468C67.3819 127.084 67.9879 126.79 68.6959 126.586C69.4039 126.382 70.1539 126.28 70.9459 126.28ZM70.6399 134.488C71.2039 134.488 71.7019 134.362 72.1339 134.11C72.5779 133.846 72.8899 133.474 73.0699 132.994V131.878H70.7479C69.4519 131.878 68.8039 132.304 68.8039 133.156C68.8039 133.564 68.9659 133.888 69.2899 134.128C69.6139 134.368 70.0639 134.488 70.6399 134.488ZM82.1314 131.878L80.4574 133.462V136H78.2074V122.644H80.4574V130.708L85.1194 126.388H87.8194L83.8054 130.42L88.1974 136H85.4614L82.1314 131.878ZM98.2825 131.248C98.2825 131.404 98.2705 131.626 98.2465 131.914H90.7045C90.8365 132.622 91.1785 133.186 91.7305 133.606C92.2945 134.014 92.9905 134.218 93.8185 134.218C94.8745 134.218 95.7445 133.87 96.4285 133.174L97.6345 134.56C97.2025 135.076 96.6565 135.466 95.9965 135.73C95.3365 135.994 94.5925 136.126 93.7645 136.126C92.7085 136.126 91.7785 135.916 90.9745 135.496C90.1705 135.076 89.5465 134.494 89.1025 133.75C88.6705 132.994 88.4545 132.142 88.4545 131.194C88.4545 130.258 88.6645 129.418 89.0845 128.674C89.5165 127.918 90.1105 127.33 90.8665 126.91C91.6225 126.49 92.4745 126.28 93.4225 126.28C94.3585 126.28 95.1925 126.49 95.9245 126.91C96.6685 127.318 97.2445 127.9 97.6525 128.656C98.0725 129.4 98.2825 130.264 98.2825 131.248ZM93.4225 128.08C92.7025 128.08 92.0905 128.296 91.5865 128.728C91.0945 129.148 90.7945 129.712 90.6865 130.42H96.1405C96.0445 129.724 95.7505 129.16 95.2585 128.728C94.7665 128.296 94.1545 128.08 93.4225 128.08ZM105.634 123.4H107.974V134.02H114.562V136H105.634V123.4ZM121.594 123.4C122.686 123.4 123.634 123.58 124.438 123.94C125.254 124.3 125.878 124.816 126.31 125.488C126.742 126.16 126.958 126.958 126.958 127.882C126.958 128.794 126.742 129.592 126.31 130.276C125.878 130.948 125.254 131.464 124.438 131.824C123.634 132.184 122.686 132.364 121.594 132.364H118.75V136H116.41V123.4H121.594ZM121.486 130.384C122.506 130.384 123.28 130.168 123.808 129.736C124.336 129.304 124.6 128.686 124.6 127.882C124.6 127.078 124.336 126.46 123.808 126.028C123.28 125.596 122.506 125.38 121.486 125.38H118.75V130.384H121.486ZM140.007 135.478C139.743 135.694 139.419 135.856 139.035 135.964C138.663 136.072 138.267 136.126 137.847 136.126C136.791 136.126 135.975 135.85 135.399 135.298C134.823 134.746 134.535 133.942 134.535 132.886V128.26H132.951V126.46H134.535V124.264H136.785V126.46H139.359V128.26H136.785V132.832C136.785 133.3 136.899 133.66 137.127 133.912C137.355 134.152 137.685 134.272 138.117 134.272C138.621 134.272 139.041 134.14 139.377 133.876L140.007 135.478ZM145.861 136.126C144.889 136.126 144.013 135.916 143.233 135.496C142.453 135.076 141.841 134.494 141.397 133.75C140.965 132.994 140.749 132.142 140.749 131.194C140.749 130.246 140.965 129.4 141.397 128.656C141.841 127.912 142.453 127.33 143.233 126.91C144.013 126.49 144.889 126.28 145.861 126.28C146.845 126.28 147.727 126.49 148.507 126.91C149.287 127.33 149.893 127.912 150.325 128.656C150.769 129.4 150.991 130.246 150.991 131.194C150.991 132.142 150.769 132.994 150.325 133.75C149.893 134.494 149.287 135.076 148.507 135.496C147.727 135.916 146.845 136.126 145.861 136.126ZM145.861 134.2C146.689 134.2 147.373 133.924 147.913 133.372C148.453 132.82 148.723 132.094 148.723 131.194C148.723 130.294 148.453 129.568 147.913 129.016C147.373 128.464 146.689 128.188 145.861 128.188C145.033 128.188 144.349 128.464 143.809 129.016C143.281 129.568 143.017 130.294 143.017 131.194C143.017 132.094 143.281 132.82 143.809 133.372C144.349 133.924 145.033 134.2 145.861 134.2ZM157.067 131.878L155.393 133.462V136H153.143V122.644H155.393V130.708L160.055 126.388H162.755L158.741 130.42L163.133 136H160.397L157.067 131.878ZM173.218 131.248C173.218 131.404 173.206 131.626 173.182 131.914H165.64C165.772 132.622 166.114 133.186 166.666 133.606C167.23 134.014 167.926 134.218 168.754 134.218C169.81 134.218 170.68 133.87 171.364 133.174L172.57 134.56C172.138 135.076 171.592 135.466 170.932 135.73C170.272 135.994 169.528 136.126 168.7 136.126C167.644 136.126 166.714 135.916 165.91 135.496C165.106 135.076 164.482 134.494 164.038 133.75C163.606 132.994 163.39 132.142 163.39 131.194C163.39 130.258 163.6 129.418 164.02 128.674C164.452 127.918 165.046 127.33 165.802 126.91C166.558 126.49 167.41 126.28 168.358 126.28C169.294 126.28 170.128 126.49 170.86 126.91C171.604 127.318 172.18 127.9 172.588 128.656C173.008 129.4 173.218 130.264 173.218 131.248ZM168.358 128.08C167.638 128.08 167.026 128.296 166.522 128.728C166.03 129.148 165.73 129.712 165.622 130.42H171.076C170.98 129.724 170.686 129.16 170.194 128.728C169.702 128.296 169.09 128.08 168.358 128.08ZM180.833 126.28C182.045 126.28 183.017 126.634 183.749 127.342C184.481 128.05 184.847 129.1 184.847 130.492V136H182.597V130.78C182.597 129.94 182.399 129.31 182.003 128.89C181.607 128.458 181.043 128.242 180.311 128.242C179.483 128.242 178.829 128.494 178.349 128.998C177.869 129.49 177.629 130.204 177.629 131.14V136H175.379V126.388H177.521V127.63C177.893 127.186 178.361 126.85 178.925 126.622C179.489 126.394 180.125 126.28 180.833 126.28ZM190.672 136.126C189.892 136.126 189.13 136.024 188.386 135.82C187.642 135.616 187.048 135.358 186.604 135.046L187.468 133.336C187.9 133.624 188.416 133.858 189.016 134.038C189.628 134.206 190.228 134.29 190.816 134.29C192.16 134.29 192.832 133.936 192.832 133.228C192.832 132.892 192.658 132.658 192.31 132.526C191.974 132.394 191.428 132.268 190.672 132.148C189.88 132.028 189.232 131.89 188.728 131.734C188.236 131.578 187.804 131.308 187.432 130.924C187.072 130.528 186.892 129.982 186.892 129.286C186.892 128.374 187.27 127.648 188.026 127.108C188.794 126.556 189.826 126.28 191.122 126.28C191.782 126.28 192.442 126.358 193.102 126.514C193.762 126.658 194.302 126.856 194.722 127.108L193.858 128.818C193.042 128.338 192.124 128.098 191.104 128.098C190.444 128.098 189.94 128.2 189.592 128.404C189.256 128.596 189.088 128.854 189.088 129.178C189.088 129.538 189.268 129.796 189.628 129.952C190 130.096 190.57 130.234 191.338 130.366C192.106 130.486 192.736 130.624 193.228 130.78C193.72 130.936 194.14 131.2 194.488 131.572C194.848 131.944 195.028 132.472 195.028 133.156C195.028 134.056 194.638 134.776 193.858 135.316C193.078 135.856 192.016 136.126 190.672 136.126ZM205.612 126.28C207.028 126.28 208.108 126.622 208.852 127.306C209.608 127.978 209.986 128.998 209.986 130.366V136H207.862V134.83C207.586 135.25 207.19 135.574 206.674 135.802C206.17 136.018 205.558 136.126 204.838 136.126C204.118 136.126 203.488 136.006 202.948 135.766C202.408 135.514 201.988 135.172 201.688 134.74C201.4 134.296 201.256 133.798 201.256 133.246C201.256 132.382 201.574 131.692 202.21 131.176C202.858 130.648 203.872 130.384 205.252 130.384H207.736V130.24C207.736 129.568 207.532 129.052 207.124 128.692C206.728 128.332 206.134 128.152 205.342 128.152C204.802 128.152 204.268 128.236 203.74 128.404C203.224 128.572 202.786 128.806 202.426 129.106L201.544 127.468C202.048 127.084 202.654 126.79 203.362 126.586C204.07 126.382 204.82 126.28 205.612 126.28ZM205.306 134.488C205.87 134.488 206.368 134.362 206.8 134.11C207.244 133.846 207.556 133.474 207.736 132.994V131.878H205.414C204.118 131.878 203.47 132.304 203.47 133.156C203.47 133.564 203.632 133.888 203.956 134.128C204.28 134.368 204.73 134.488 205.306 134.488ZM218.327 126.28C219.539 126.28 220.511 126.634 221.243 127.342C221.975 128.05 222.341 129.1 222.341 130.492V136H220.091V130.78C220.091 129.94 219.893 129.31 219.497 128.89C219.101 128.458 218.537 128.242 217.805 128.242C216.977 128.242 216.323 128.494 215.843 128.998C215.363 129.49 215.123 130.204 215.123 131.14V136H212.873V126.388H215.015V127.63C215.387 127.186 215.855 126.85 216.419 126.622C216.983 126.394 217.619 126.28 218.327 126.28ZM234.698 122.644V136H232.538V134.758C232.166 135.214 231.704 135.556 231.152 135.784C230.612 136.012 230.012 136.126 229.352 136.126C228.428 136.126 227.594 135.922 226.85 135.514C226.118 135.106 225.542 134.53 225.122 133.786C224.702 133.03 224.492 132.166 224.492 131.194C224.492 130.222 224.702 129.364 225.122 128.62C225.542 127.876 226.118 127.3 226.85 126.892C227.594 126.484 228.428 126.28 229.352 126.28C229.988 126.28 230.57 126.388 231.098 126.604C231.626 126.82 232.076 127.144 232.448 127.576V122.644H234.698ZM229.622 134.2C230.162 134.2 230.648 134.08 231.08 133.84C231.512 133.588 231.854 133.234 232.106 132.778C232.358 132.322 232.484 131.794 232.484 131.194C232.484 130.594 232.358 130.066 232.106 129.61C231.854 129.154 231.512 128.806 231.08 128.566C230.648 128.314 230.162 128.188 229.622 128.188C229.082 128.188 228.596 128.314 228.164 128.566C227.732 128.806 227.39 129.154 227.138 129.61C226.886 130.066 226.76 130.594 226.76 131.194C226.76 131.794 226.886 132.322 227.138 132.778C227.39 133.234 227.732 133.588 228.164 133.84C228.596 134.08 229.082 134.2 229.622 134.2ZM251.652 131.248C251.652 131.404 251.64 131.626 251.616 131.914H244.074C244.206 132.622 244.548 133.186 245.1 133.606C245.664 134.014 246.36 134.218 247.188 134.218C248.244 134.218 249.114 133.87 249.798 133.174L251.004 134.56C250.572 135.076 250.026 135.466 249.366 135.73C248.706 135.994 247.962 136.126 247.134 136.126C246.078 136.126 245.148 135.916 244.344 135.496C243.54 135.076 242.916 134.494 242.472 133.75C242.04 132.994 241.824 132.142 241.824 131.194C241.824 130.258 242.034 129.418 242.454 128.674C242.886 127.918 243.48 127.33 244.236 126.91C244.992 126.49 245.844 126.28 246.792 126.28C247.728 126.28 248.562 126.49 249.294 126.91C250.038 127.318 250.614 127.9 251.022 128.656C251.442 129.4 251.652 130.264 251.652 131.248ZM246.792 128.08C246.072 128.08 245.46 128.296 244.956 128.728C244.464 129.148 244.164 129.712 244.056 130.42H249.51C249.414 129.724 249.12 129.16 248.628 128.728C248.136 128.296 247.524 128.08 246.792 128.08ZM257.221 126.28C258.637 126.28 259.717 126.622 260.461 127.306C261.217 127.978 261.595 128.998 261.595 130.366V136H259.471V134.83C259.195 135.25 258.799 135.574 258.283 135.802C257.779 136.018 257.167 136.126 256.447 136.126C255.727 136.126 255.097 136.006 254.557 135.766C254.017 135.514 253.597 135.172 253.297 134.74C253.009 134.296 252.865 133.798 252.865 133.246C252.865 132.382 253.183 131.692 253.819 131.176C254.467 130.648 255.481 130.384 256.861 130.384H259.345V130.24C259.345 129.568 259.141 129.052 258.733 128.692C258.337 128.332 257.743 128.152 256.951 128.152C256.411 128.152 255.877 128.236 255.349 128.404C254.833 128.572 254.395 128.806 254.035 129.106L253.153 127.468C253.657 127.084 254.263 126.79 254.971 126.586C255.679 126.382 256.429 126.28 257.221 126.28ZM256.915 134.488C257.479 134.488 257.977 134.362 258.409 134.11C258.853 133.846 259.165 133.474 259.345 132.994V131.878H257.023C255.727 131.878 255.079 132.304 255.079 133.156C255.079 133.564 255.241 133.888 255.565 134.128C255.889 134.368 256.339 134.488 256.915 134.488ZM266.625 127.792C267.273 126.784 268.413 126.28 270.045 126.28V128.422C269.853 128.386 269.679 128.368 269.523 128.368C268.647 128.368 267.963 128.626 267.471 129.142C266.979 129.646 266.733 130.378 266.733 131.338V136H264.483V126.388H266.625V127.792ZM277.408 126.28C278.62 126.28 279.592 126.634 280.324 127.342C281.056 128.05 281.422 129.1 281.422 130.492V136H279.172V130.78C279.172 129.94 278.974 129.31 278.578 128.89C278.182 128.458 277.618 128.242 276.886 128.242C276.058 128.242 275.404 128.494 274.924 128.998C274.444 129.49 274.204 130.204 274.204 131.14V136H271.954V126.388H274.096V127.63C274.468 127.186 274.936 126.85 275.5 126.622C276.064 126.394 276.7 126.28 277.408 126.28ZM295.352 136.18C294.068 136.18 292.91 135.904 291.878 135.352C290.846 134.788 290.036 134.014 289.448 133.03C288.86 132.034 288.566 130.924 288.566 129.7C288.566 128.476 288.86 127.372 289.448 126.388C290.036 125.392 290.846 124.618 291.878 124.066C292.91 123.502 294.068 123.22 295.352 123.22C296.636 123.22 297.794 123.502 298.826 124.066C299.858 124.618 300.668 125.386 301.256 126.37C301.844 127.354 302.138 128.464 302.138 129.7C302.138 130.936 301.844 132.046 301.256 133.03C300.668 134.014 299.858 134.788 298.826 135.352C297.794 135.904 296.636 136.18 295.352 136.18ZM295.352 134.128C296.192 134.128 296.948 133.942 297.62 133.57C298.292 133.186 298.82 132.658 299.204 131.986C299.588 131.302 299.78 130.54 299.78 129.7C299.78 128.86 299.588 128.104 299.204 127.432C298.82 126.748 298.292 126.22 297.62 125.848C296.948 125.464 296.192 125.272 295.352 125.272C294.512 125.272 293.756 125.464 293.084 125.848C292.412 126.22 291.884 126.748 291.5 127.432C291.116 128.104 290.924 128.86 290.924 129.7C290.924 130.54 291.116 131.302 291.5 131.986C291.884 132.658 292.412 133.186 293.084 133.57C293.756 133.942 294.512 134.128 295.352 134.128ZM313.223 129.556H315.437V134.578C314.789 135.094 314.033 135.49 313.169 135.766C312.305 136.042 311.417 136.18 310.505 136.18C309.221 136.18 308.063 135.904 307.031 135.352C305.999 134.788 305.189 134.014 304.601 133.03C304.013 132.046 303.719 130.936 303.719 129.7C303.719 128.464 304.013 127.354 304.601 126.37C305.189 125.386 305.999 124.618 307.031 124.066C308.075 123.502 309.245 123.22 310.541 123.22C311.597 123.22 312.557 123.394 313.421 123.742C314.285 124.09 315.011 124.6 315.599 125.272L314.123 126.712C313.163 125.752 312.005 125.272 310.649 125.272C309.761 125.272 308.969 125.458 308.273 125.83C307.589 126.202 307.049 126.724 306.653 127.396C306.269 128.068 306.077 128.836 306.077 129.7C306.077 130.54 306.269 131.296 306.653 131.968C307.049 132.64 307.589 133.168 308.273 133.552C308.969 133.936 309.755 134.128 310.631 134.128C311.615 134.128 312.479 133.912 313.223 133.48V129.556ZM322.429 136.18C321.457 136.18 320.515 136.042 319.603 135.766C318.703 135.49 317.989 135.124 317.461 134.668L318.271 132.85C318.787 133.258 319.417 133.594 320.161 133.858C320.917 134.11 321.673 134.236 322.429 134.236C323.365 134.236 324.061 134.086 324.517 133.786C324.985 133.486 325.219 133.09 325.219 132.598C325.219 132.238 325.087 131.944 324.823 131.716C324.571 131.476 324.247 131.29 323.851 131.158C323.455 131.026 322.915 130.876 322.231 130.708C321.271 130.48 320.491 130.252 319.891 130.024C319.303 129.796 318.793 129.442 318.361 128.962C317.941 128.47 317.731 127.81 317.731 126.982C317.731 126.286 317.917 125.656 318.289 125.092C318.673 124.516 319.243 124.06 319.999 123.724C320.767 123.388 321.703 123.22 322.807 123.22C323.575 123.22 324.331 123.316 325.075 123.508C325.819 123.7 326.461 123.976 327.001 124.336L326.263 126.154C325.711 125.83 325.135 125.584 324.535 125.416C323.935 125.248 323.353 125.164 322.789 125.164C321.865 125.164 321.175 125.32 320.719 125.632C320.275 125.944 320.053 126.358 320.053 126.874C320.053 127.234 320.179 127.528 320.431 127.756C320.695 127.984 321.025 128.164 321.421 128.296C321.817 128.428 322.357 128.578 323.041 128.746C323.977 128.962 324.745 129.19 325.345 129.43C325.945 129.658 326.455 130.012 326.875 130.492C327.307 130.972 327.523 131.62 327.523 132.436C327.523 133.132 327.331 133.762 326.947 134.326C326.575 134.89 326.005 135.34 325.237 135.676C324.469 136.012 323.533 136.18 322.429 136.18ZM153.826 149.792C154.474 148.784 155.614 148.28 157.246 148.28V150.422C157.054 150.386 156.88 150.368 156.724 150.368C155.848 150.368 155.164 150.626 154.672 151.142C154.18 151.646 153.934 152.378 153.934 153.338V158H151.684V148.388H153.826V149.792ZM168.103 153.248C168.103 153.404 168.091 153.626 168.067 153.914H160.525C160.657 154.622 160.999 155.186 161.551 155.606C162.115 156.014 162.811 156.218 163.639 156.218C164.695 156.218 165.565 155.87 166.249 155.174L167.455 156.56C167.023 157.076 166.477 157.466 165.817 157.73C165.157 157.994 164.413 158.126 163.585 158.126C162.529 158.126 161.599 157.916 160.795 157.496C159.991 157.076 159.367 156.494 158.923 155.75C158.491 154.994 158.275 154.142 158.275 153.194C158.275 152.258 158.485 151.418 158.905 150.674C159.337 149.918 159.931 149.33 160.687 148.91C161.443 148.49 162.295 148.28 163.243 148.28C164.179 148.28 165.013 148.49 165.745 148.91C166.489 149.318 167.065 149.9 167.473 150.656C167.893 151.4 168.103 152.264 168.103 153.248ZM163.243 150.08C162.523 150.08 161.911 150.296 161.407 150.728C160.915 151.148 160.615 151.712 160.507 152.42H165.961C165.865 151.724 165.571 151.16 165.079 150.728C164.587 150.296 163.975 150.08 163.243 150.08ZM185.082 148.388L181.536 158H179.376L176.892 151.376L174.372 158H172.212L168.684 148.388H170.808L173.346 155.48L175.992 148.388H177.882L180.474 155.516L183.084 148.388H185.082ZM190.002 148.28C191.418 148.28 192.498 148.622 193.242 149.306C193.998 149.978 194.376 150.998 194.376 152.366V158H192.252V156.83C191.976 157.25 191.58 157.574 191.064 157.802C190.56 158.018 189.948 158.126 189.228 158.126C188.508 158.126 187.878 158.006 187.338 157.766C186.798 157.514 186.378 157.172 186.078 156.74C185.79 156.296 185.646 155.798 185.646 155.246C185.646 154.382 185.964 153.692 186.6 153.176C187.248 152.648 188.262 152.384 189.642 152.384H192.126V152.24C192.126 151.568 191.922 151.052 191.514 150.692C191.118 150.332 190.524 150.152 189.732 150.152C189.192 150.152 188.658 150.236 188.13 150.404C187.614 150.572 187.176 150.806 186.816 151.106L185.934 149.468C186.438 149.084 187.044 148.79 187.752 148.586C188.46 148.382 189.21 148.28 190.002 148.28ZM189.696 156.488C190.26 156.488 190.758 156.362 191.19 156.11C191.634 155.846 191.946 155.474 192.126 154.994V153.878H189.804C188.508 153.878 187.86 154.304 187.86 155.156C187.86 155.564 188.022 155.888 188.346 156.128C188.67 156.368 189.12 156.488 189.696 156.488ZM199.406 149.792C200.054 148.784 201.194 148.28 202.826 148.28V150.422C202.634 150.386 202.46 150.368 202.304 150.368C201.428 150.368 200.744 150.626 200.252 151.142C199.76 151.646 199.514 152.378 199.514 153.338V158H197.264V148.388H199.406V149.792ZM214.061 144.644V158H211.901V156.758C211.529 157.214 211.067 157.556 210.515 157.784C209.975 158.012 209.375 158.126 208.715 158.126C207.791 158.126 206.957 157.922 206.213 157.514C205.481 157.106 204.905 156.53 204.485 155.786C204.065 155.03 203.855 154.166 203.855 153.194C203.855 152.222 204.065 151.364 204.485 150.62C204.905 149.876 205.481 149.3 206.213 148.892C206.957 148.484 207.791 148.28 208.715 148.28C209.351 148.28 209.933 148.388 210.461 148.604C210.989 148.82 211.439 149.144 211.811 149.576V144.644H214.061ZM208.985 156.2C209.525 156.2 210.011 156.08 210.443 155.84C210.875 155.588 211.217 155.234 211.469 154.778C211.721 154.322 211.847 153.794 211.847 153.194C211.847 152.594 211.721 152.066 211.469 151.61C211.217 151.154 210.875 150.806 210.443 150.566C210.011 150.314 209.525 150.188 208.985 150.188C208.445 150.188 207.959 150.314 207.527 150.566C207.095 150.806 206.753 151.154 206.501 151.61C206.249 152.066 206.123 152.594 206.123 153.194C206.123 153.794 206.249 154.322 206.501 154.778C206.753 155.234 207.095 155.588 207.527 155.84C207.959 156.08 208.445 156.2 208.985 156.2ZM219.974 158.126C219.194 158.126 218.432 158.024 217.688 157.82C216.944 157.616 216.35 157.358 215.906 157.046L216.77 155.336C217.202 155.624 217.718 155.858 218.318 156.038C218.93 156.206 219.53 156.29 220.118 156.29C221.462 156.29 222.134 155.936 222.134 155.228C222.134 154.892 221.96 154.658 221.612 154.526C221.276 154.394 220.73 154.268 219.974 154.148C219.182 154.028 218.534 153.89 218.03 153.734C217.538 153.578 217.106 153.308 216.734 152.924C216.374 152.528 216.194 151.982 216.194 151.286C216.194 150.374 216.572 149.648 217.328 149.108C218.096 148.556 219.128 148.28 220.424 148.28C221.084 148.28 221.744 148.358 222.404 148.514C223.064 148.658 223.604 148.856 224.024 149.108L223.16 150.818C222.344 150.338 221.426 150.098 220.406 150.098C219.746 150.098 219.242 150.2 218.894 150.404C218.558 150.596 218.39 150.854 218.39 151.178C218.39 151.538 218.57 151.796 218.93 151.952C219.302 152.096 219.872 152.234 220.64 152.366C221.408 152.486 222.038 152.624 222.53 152.78C223.022 152.936 223.442 153.2 223.79 153.572C224.15 153.944 224.33 154.472 224.33 155.156C224.33 156.056 223.94 156.776 223.16 157.316C222.38 157.856 221.318 158.126 219.974 158.126Z" fill="#233433"/>
<path d="M272.672 66.5813C275.96 75.3691 294.096 78.1995 302.106 78.9077C306.215 79.3799 312.97 78.9779 318.788 77.8944C323.524 77.0123 327.609 75.7234 330.241 73.3634C332.597 71.2512 333.117 69.2602 332.545 66.8805C331.662 64.4946 329.07 63.2666 327.186 62.8148C327.565 53.9133 319.811 45.6645 314.775 42.4045C310.531 40.049 305.571 39.1223 299.615 39.277C293.648 39.4319 286.383 41.8929 281.955 45.43C278.446 48.2329 275.584 52.4056 274.442 54.4387C273.011 56.9851 270.854 61.7228 272.672 66.5813Z" fill="#B9ED4A" stroke="black" stroke-width="1.8179" stroke-linejoin="round"/>
<path d="M287.581 57.1122C287.291 57.5292 286.331 58.4456 285.712 58.9066" stroke="black" stroke-width="0.681712" stroke-linecap="round"/>
<path d="M278.297 56.2183C279.432 56.3072 281.796 56.6535 283.984 56.5879C287.905 56.4705 289.638 57.1824 291.92 57.2852C293.525 57.3576 297.223 57.1395 297.223 57.1395" stroke="black" stroke-width="0.454475" stroke-linecap="round" stroke-linejoin="round"/>
<circle cx="281.078" cy="49.7348" r="1.36342" transform="rotate(8.29216 281.078 49.7348)" fill="black"/>
<circle cx="285.852" cy="54.7931" r="0.454475" transform="rotate(8.29216 285.852 54.7931)" fill="black"/>
<circle cx="289.034" cy="55.0275" r="0.454475" transform="rotate(8.29216 289.034 55.0275)" fill="black"/>
<circle cx="297.4" cy="51.1946" r="1.59066" transform="rotate(8.29216 297.4 51.1946)" fill="black"/>
<path d="M307.121 61.318C308.059 60.7273 309.03 60.3494 309.548 60.8406C310.066 61.3319 310.11 62.3772 307.624 63.2617" stroke="black" stroke-width="1.36342" stroke-linecap="round"/>
<path d="M273.787 55.6493C273.936 53.0568 268.38 51.7874 272.699 58.3879L273.787 55.6493Z" fill="#B9ED4A" stroke="black" stroke-width="1.59066"/>
<circle cx="283.406" cy="49.2249" r="3.86304" fill="black"/>
<ellipse cx="282.352" cy="48.171" rx="1.8179" ry="1.70139" transform="rotate(-45 282.352 48.171)" fill="white"/>
<circle cx="284.997" cy="49.6787" r="1.13619" fill="white"/>
<circle cx="282.724" cy="51.0423" r="0.90895" fill="white"/>
<circle cx="298.176" cy="49.4521" r="4.09027" fill="black"/>
<ellipse cx="297.161" cy="48.4366" rx="2.10876" ry="2.02808" transform="rotate(-45 297.161 48.4366)" fill="white"/>
<circle cx="300.268" cy="50.2272" r="1.31798" fill="white"/>
<circle cx="297.631" cy="51.8039" r="1.05438" fill="white"/>
<path d="M310.674 50.8159L308.402 53.9972L314.31 56.9513L316.355 53.77" stroke="black" stroke-width="1.36342" stroke-linecap="round" stroke-linejoin="round"/>
<path d="M314.537 50.8159L300.903 68.9949" stroke="black" stroke-width="1.36342" stroke-linecap="round"/>
<path d="M266.842 38.0903C266.842 36.636 266.993 35.515 267.069 35.1362C267.069 35.1362 268.048 36.8599 268.205 37.4086C269.114 40.5899 267.978 40.3627 267.751 40.3627C267.524 40.3627 266.842 39.9082 266.842 38.0903Z" fill="black" stroke="black" stroke-width="0.454475"/>
<path d="M271.841 34C270.932 35.3634 268.813 39.265 270.477 39.6809C271.386 39.9082 271.689 36.5754 271.841 34Z" fill="black" stroke="black" stroke-width="0.454475"/>
<path d="M275.931 41.0445C275.074 40.4529 272.068 39.2726 272.068 40.3627C272.068 41.9535 274.795 41.7263 275.931 41.0445Z" fill="black" stroke="black" stroke-width="0.454475"/>
<path d="M273.573 46.164C273.384 45.1397 272.068 42.6349 271.32 42.9526C269.856 43.5744 272.287 45.844 273.573 46.164Z" fill="black" stroke="black" stroke-width="0.454475"/>
<path d="M269.079 48.0449C269.463 47.0768 269.68 44.2557 268.877 44.1272C267.306 43.8757 268.159 47.0903 269.079 48.0449Z" fill="black" stroke="black" stroke-width="0.454475"/>
<path d="M260.11 43.834C261.166 44.2635 264.26 44.5335 264.415 43.6632C264.718 41.9599 261.174 42.8472 260.11 43.834Z" fill="black" stroke="black" stroke-width="0.454475"/>
<path d="M261.615 37.8629C261.842 39.4538 265.056 42.5044 265.932 42.1803C267.648 41.5459 263.433 37.8627 261.615 37.8629Z" fill="black" stroke="black" stroke-width="0.454475"/>
<path d="M263.66 48.5437C265.223 48.1699 267.299 45.9493 266.841 45.1348C265.875 43.4166 263.491 46.7337 263.66 48.5437Z" fill="black" stroke="black" stroke-width="0.454475"/>
<path d="M335.01 45.9893C333.981 46.2985 332.737 48.4887 333.509 49.1175C333.985 49.5055 334.783 47.58 335.01 45.9893Z" fill="black" stroke="black" stroke-width="0.454475"/>
<path d="M337.237 48.6918C336.555 48.4644 335.193 48.7167 335.237 49.3974C335.282 50.1029 336.827 49.6249 337.237 48.6918Z" fill="black" stroke="black" stroke-width="0.454475"/>
<path d="M338.418 53.4881C337.964 52.3521 335.965 50.6652 335.51 51.216C334.845 52.0196 336.601 53.7151 338.418 53.4881Z" fill="black" stroke="black" stroke-width="0.454475"/>
<path d="M334.039 56.4518C335.176 55.3156 334.843 52.5726 334.332 52.4207C333.244 52.0971 333.647 54.8514 334.039 56.4518Z" fill="black" stroke="black" stroke-width="0.454475"/>
<path d="M329.101 55.5333C331.828 55.5334 332.964 52.7124 332.283 52.352C331.601 51.9916 329.783 54.3972 329.101 55.5333Z" fill="black" stroke="black" stroke-width="0.454475"/>
<path d="M327.598 49.9494C328.647 51.6698 330.251 52.2719 330.692 51.897C331.557 51.1631 328.547 49.8952 327.598 49.9494Z" fill="black" stroke="black" stroke-width="0.454475"/>
<path d="M331.147 47.1257C330.692 48.9435 331.149 50.0119 331.643 49.9623C332.738 49.8524 331.617 48.1947 331.147 47.1257Z" fill="black" stroke="black" stroke-width="0.454475"/>
<path d="M349.338 45.4324C350.076 44.5402 350.737 43.9293 350.976 43.7353C350.976 43.7353 350.703 45.2894 350.521 45.7055C349.465 48.1181 348.883 47.4025 348.744 47.2873C348.604 47.1721 348.417 46.5476 349.338 45.4324Z" fill="black" stroke="black" stroke-width="0.454475"/>
<path d="M354.48 45.4583C353.231 45.8338 349.953 47.1532 350.763 48.252C351.205 48.8523 353.081 46.9614 354.48 45.4583Z" fill="black" stroke="black" stroke-width="0.454475"/>
<path d="M353.417 51.8543C353.191 51.0567 351.946 48.8084 351.393 49.4772C350.586 50.4531 352.374 51.6964 353.417 51.8543Z" fill="black" stroke="black" stroke-width="0.454475"/>
<path d="M349.374 53.7991C349.778 53.0749 350.241 50.8711 349.621 50.6866C348.407 50.3256 348.748 52.9507 349.374 53.7991Z" fill="black" stroke="black" stroke-width="0.454475"/>
<path d="M345.663 52.6739C346.39 52.275 347.953 50.6543 347.526 50.1685C346.69 49.2177 345.583 51.6223 345.663 52.6739Z" fill="black" stroke="black" stroke-width="0.454475"/>
<path d="M342.297 45.5426C342.727 46.3417 344.488 48.0762 345.024 47.6209C346.074 46.7297 343.45 45.4767 342.297 45.5426Z" fill="black" stroke="black" stroke-width="0.454475"/>
<path d="M346.248 42.6431C345.581 43.7343 346.005 47.2355 346.707 47.4811C348.082 47.9618 347.363 43.5648 346.248 42.6431Z" fill="black" stroke="black" stroke-width="0.454475"/>
<path d="M342.086 50.2322C343.235 50.7954 345.635 50.4861 345.767 49.7541C346.045 48.21 342.901 49.0362 342.086 50.2322Z" fill="black" stroke="black" stroke-width="0.454475"/>
</g>
<defs>
<clipPath id="clip0">
<rect width="375" height="240" fill="white"/>
</clipPath>
</defs>
</svg>
