<svg width="375" height="200" viewBox="0 0 375 200" fill="none" xmlns="http://www.w3.org/2000/svg">
<g clip-path="url(#clip0)">
<rect width="375" height="200" fill="#FAFAFA"/>
<g opacity="0.5">
<path fill-rule="evenodd" clip-rule="evenodd" d="M-340.427 88.2459C-396.032 51.7591 -453.501 15 -532 15V18C-454.499 18 -397.718 54.2409 -342.073 90.7541C-340.963 91.4821 -339.854 92.2103 -338.746 92.9382L-338.611 93.0267C-284.243 128.723 -230.513 164 -159.5 164C-56.8622 164 19.9305 130.037 89.2761 99.367C100.458 94.4216 111.446 89.5619 122.317 84.944C161.497 68.3016 199.131 54.8049 238.958 51.5685C278.743 48.3354 320.803 55.3364 368.818 79.8434C434.127 113.177 521.751 150.315 629.734 133.238C699.49 122.207 737.254 105.915 770.305 91.6572L770.312 91.6543L770.388 91.6213C772.938 90.5215 775.459 89.4339 777.965 88.3617C812.845 73.4389 844.765 61.5 908 61.5V58.5C844.235 58.5 811.905 70.5785 776.785 85.6035C774.249 86.6885 771.699 87.7887 769.121 88.9008C736.135 103.13 698.647 119.302 629.266 130.275C522.249 147.199 435.341 110.429 370.182 77.1713C321.697 52.4246 279.084 45.2979 238.715 48.5783C198.388 51.8555 160.387 65.5136 121.144 82.1828C110.221 86.8227 99.1986 91.6964 87.9977 96.6489C18.6511 127.311 -57.5407 161 -159.5 161C-229.606 161 -282.662 126.169 -337.217 90.3528C-338.287 89.6508 -339.356 88.9484 -340.427 88.2459ZM-340.524 104.687C-396.146 73.9388 -453.575 43 -532 43V46C-454.425 46 -397.604 76.5612 -341.976 107.313L-339.897 108.462L-338.54 109.213C-284.144 139.301 -230.451 169 -159.5 169C-55.8381 169 24.4695 139.376 96.4979 112.806C107.244 108.842 117.807 104.945 128.235 101.226C208.575 72.5678 280.929 54.3726 368.866 95.3612C433.978 125.71 521.833 151.616 629.688 138C699.349 129.205 737.084 116.281 770.111 104.97C772.718 104.077 775.296 103.194 777.857 102.325C812.752 90.4748 844.709 81 908 81V78C844.291 78 811.998 87.5622 776.893 99.4838C774.336 100.352 771.765 101.233 769.165 102.123L769.143 102.131C736.175 113.422 698.668 126.267 629.312 135.023C522.167 148.55 434.889 122.825 370.134 92.6421C281.071 51.1291 207.733 69.683 127.227 98.3999C116.763 102.132 106.178 106.036 95.42 110.004C23.3867 136.57 -56.4093 166 -159.5 166C-229.668 166 -282.76 136.635 -337.287 106.477C-338.365 105.881 -339.445 105.284 -340.524 104.687ZM-532 67C-453.638 67 -396.248 93.1374 -340.615 119.141L-339.323 119.745L-337.357 120.665C-282.85 146.155 -229.723 171 -159.5 171C-55.6372 171 21.8747 146.574 92.4327 124.339L92.4395 124.337L92.4462 124.335C102.409 121.195 112.233 118.1 121.973 115.123C200.717 91.0538 273.93 74.7685 369.969 106.367C437.383 128.547 522.152 150.783 629.35 140.041C698.292 133.132 735.786 123.34 768.607 114.769L768.622 114.765C771.443 114.028 774.23 113.3 776.999 112.584C812.088 103.51 844.343 96.313 908 96.313V99.313C844.657 99.313 812.662 106.46 777.751 115.489C774.984 116.204 772.199 116.931 769.379 117.668L769.362 117.672C736.494 126.256 698.823 136.094 629.65 143.026C521.848 153.828 436.617 131.453 369.031 109.216C273.884 77.9114 201.405 93.9804 122.849 117.992C113.138 120.96 103.333 124.05 93.3806 127.187L93.3694 127.19L93.3619 127.193L93.3568 127.194C22.7958 149.434 -55.149 174 -159.5 174C-230.396 174 -284.054 148.905 -338.47 123.456C-339.608 122.924 -340.746 122.391 -341.885 121.859C-397.502 95.8626 -454.362 70 -532 70V67ZM-340.742 136.088C-396.383 116.083 -453.72 96 -532 96V99C-454.28 99 -397.367 118.917 -341.758 138.912C-340.643 139.312 -339.529 139.713 -338.416 140.113L-338.365 140.132C-283.929 159.715 -230.323 179 -159.5 179C-50.9421 179 30.497 160.583 104.322 143.888C111.424 142.282 118.455 140.692 125.434 139.136C204.944 121.404 277.539 108.073 369.221 125.405C372.43 126.012 375.614 126.615 378.776 127.214C459.389 142.494 525.957 155.112 629.601 148.126C698.738 143.465 736.381 136.852 769.243 131.079L769.258 131.076C772.079 130.581 774.865 130.091 777.632 129.61C812.569 123.532 844.606 118.719 908 118.719V115.719C844.394 115.719 812.181 120.555 777.118 126.654C774.344 127.137 771.552 127.627 768.726 128.124C735.899 133.891 698.377 140.482 629.399 145.132C526.142 152.093 459.895 139.536 379.293 124.259L379.264 124.253L379.145 124.231C376.045 123.643 372.924 123.052 369.779 122.457C277.465 105.006 204.368 118.459 124.781 136.208C117.801 137.764 110.771 139.354 103.673 140.959C29.8505 157.652 -51.2895 176 -159.5 176C-229.796 176 -282.975 156.869 -337.461 137.269C-338.554 136.875 -339.648 136.482 -340.742 136.088ZM-532 121C-453.789 121 -396.502 136.047 -340.859 151.052L-337.562 151.941C-283.087 166.639 -229.859 181 -159.5 181C-48.0515 181 31.7565 167.201 105.574 154.439L105.584 154.437C110.36 153.611 115.111 152.79 119.843 151.977C197.752 138.593 270.757 127.472 369.638 136.639C380.704 137.664 392.154 138.818 404.025 140.014L404.026 140.014C465.954 146.255 539.338 153.65 629.44 150.057C698.45 147.306 735.996 143.405 768.83 139.994L768.84 139.993C771.663 139.699 774.451 139.41 777.221 139.124C812.26 135.52 844.438 132.662 908 132.662V135.662C844.562 135.662 812.49 138.512 777.529 142.109C774.756 142.394 771.965 142.684 769.139 142.978C736.284 146.391 698.665 150.3 629.56 153.055C539.229 156.656 465.62 149.238 403.687 142.996C391.829 141.801 380.399 140.649 369.362 139.626C270.886 130.497 198.199 141.56 120.351 154.934C115.62 155.746 110.869 156.568 106.093 157.394L106.067 157.398C32.2388 170.163 -47.7888 184 -159.5 184C-230.26 184 -283.817 169.55 -338.264 154.859C-339.165 154.616 -340.065 154.373 -340.966 154.13L-341.641 153.948C-397.248 138.953 -454.211 124 -532 124V121Z" fill="url(#paint0_linear)"/>
</g>
<path d="M139.88 86.48C136.973 86.48 134.347 85.8533 132 84.6C129.68 83.3467 127.853 81.6267 126.52 79.44C125.213 77.2267 124.56 74.7467 124.56 72C124.56 69.2533 125.213 66.7867 126.52 64.6C127.853 62.3867 129.68 60.6533 132 59.4C134.347 58.1467 136.973 57.52 139.88 57.52C142.787 57.52 145.4 58.1467 147.72 59.4C150.04 60.6533 151.867 62.3867 153.2 64.6C154.533 66.7867 155.2 69.2533 155.2 72C155.2 74.7467 154.533 77.2267 153.2 79.44C151.867 81.6267 150.04 83.3467 147.72 84.6C145.4 85.8533 142.787 86.48 139.88 86.48ZM139.88 80.96C141.533 80.96 143.027 80.5867 144.36 79.84C145.693 79.0667 146.733 78 147.48 76.64C148.253 75.28 148.64 73.7333 148.64 72C148.64 70.2667 148.253 68.72 147.48 67.36C146.733 66 145.693 64.9467 144.36 64.2C143.027 63.4267 141.533 63.04 139.88 63.04C138.227 63.04 136.733 63.4267 135.4 64.2C134.067 64.9467 133.013 66 132.24 67.36C131.493 68.72 131.12 70.2667 131.12 72C131.12 73.7333 131.493 75.28 132.24 76.64C133.013 78 134.067 79.0667 135.4 79.84C136.733 80.5867 138.227 80.96 139.88 80.96ZM172.51 86.48C168.51 86.48 165.39 85.3733 163.15 83.16C160.937 80.9467 159.83 77.7867 159.83 73.68V58H166.31V73.44C166.31 78.4533 168.39 80.96 172.55 80.96C174.577 80.96 176.123 80.36 177.19 79.16C178.257 77.9333 178.79 76.0267 178.79 73.44V58H185.19V73.68C185.19 77.7867 184.07 80.9467 181.83 83.16C179.617 85.3733 176.51 86.48 172.51 86.48ZM209.433 86L204.033 78.2H203.713H198.073V86H191.593V58H203.713C206.193 58 208.34 58.4133 210.153 59.24C211.993 60.0667 213.407 61.24 214.393 62.76C215.38 64.28 215.873 66.08 215.873 68.16C215.873 70.24 215.367 72.04 214.353 73.56C213.367 75.0533 211.953 76.2 210.113 77L216.393 86H209.433ZM209.313 68.16C209.313 66.5867 208.807 65.3867 207.793 64.56C206.78 63.7067 205.3 63.28 203.353 63.28H198.073V73.04H203.353C205.3 73.04 206.78 72.6133 207.793 71.76C208.807 70.9067 209.313 69.7067 209.313 68.16ZM234.568 86.48C231.661 86.48 229.034 85.8533 226.688 84.6C224.368 83.3467 222.541 81.6267 221.208 79.44C219.901 77.2267 219.248 74.7467 219.248 72C219.248 69.2533 219.901 66.7867 221.208 64.6C222.541 62.3867 224.368 60.6533 226.688 59.4C229.034 58.1467 231.661 57.52 234.568 57.52C237.474 57.52 240.088 58.1467 242.408 59.4C244.728 60.6533 246.554 62.3867 247.888 64.6C249.221 66.7867 249.888 69.2533 249.888 72C249.888 74.7467 249.221 77.2267 247.888 79.44C246.554 81.6267 244.728 83.3467 242.408 84.6C240.088 85.8533 237.474 86.48 234.568 86.48ZM234.568 80.96C236.221 80.96 237.714 80.5867 239.048 79.84C240.381 79.0667 241.421 78 242.168 76.64C242.941 75.28 243.328 73.7333 243.328 72C243.328 70.2667 242.941 68.72 242.168 67.36C241.421 66 240.381 64.9467 239.048 64.2C237.714 63.4267 236.221 63.04 234.568 63.04C232.914 63.04 231.421 63.4267 230.088 64.2C228.754 64.9467 227.701 66 226.928 67.36C226.181 68.72 225.808 70.2667 225.808 72C225.808 73.7333 226.181 75.28 226.928 76.64C227.701 78 228.754 79.0667 230.088 79.84C231.421 80.5867 232.914 80.96 234.568 80.96Z" fill="#233433"/>
<path d="M32.8306 125.18C31.5586 125.18 30.4066 124.904 29.3746 124.352C28.3546 123.788 27.5506 123.014 26.9626 122.03C26.3866 121.046 26.0986 119.936 26.0986 118.7C26.0986 117.464 26.3926 116.354 26.9806 115.37C27.5686 114.386 28.3726 113.618 29.3926 113.066C30.4246 112.502 31.5766 112.22 32.8486 112.22C33.8806 112.22 34.8226 112.4 35.6746 112.76C36.5266 113.12 37.2466 113.642 37.8346 114.326L36.3226 115.748C35.4106 114.764 34.2886 114.272 32.9566 114.272C32.0926 114.272 31.3186 114.464 30.6346 114.848C29.9506 115.22 29.4166 115.742 29.0326 116.414C28.6486 117.086 28.4566 117.848 28.4566 118.7C28.4566 119.552 28.6486 120.314 29.0326 120.986C29.4166 121.658 29.9506 122.186 30.6346 122.57C31.3186 122.942 32.0926 123.128 32.9566 123.128C34.2886 123.128 35.4106 122.63 36.3226 121.634L37.8346 123.074C37.2466 123.758 36.5206 124.28 35.6566 124.64C34.8046 125 33.8626 125.18 32.8306 125.18ZM42.0028 116.792C42.6508 115.784 43.7908 115.28 45.4228 115.28V117.422C45.2308 117.386 45.0568 117.368 44.9008 117.368C44.0248 117.368 43.3408 117.626 42.8488 118.142C42.3568 118.646 42.1108 119.378 42.1108 120.338V125H39.8608V115.388H42.0028V116.792ZM56.2796 120.248C56.2796 120.404 56.2676 120.626 56.2436 120.914H48.7016C48.8336 121.622 49.1756 122.186 49.7276 122.606C50.2916 123.014 50.9876 123.218 51.8156 123.218C52.8716 123.218 53.7416 122.87 54.4256 122.174L55.6316 123.56C55.1996 124.076 54.6536 124.466 53.9936 124.73C53.3336 124.994 52.5896 125.126 51.7616 125.126C50.7056 125.126 49.7756 124.916 48.9716 124.496C48.1676 124.076 47.5436 123.494 47.0996 122.75C46.6676 121.994 46.4516 121.142 46.4516 120.194C46.4516 119.258 46.6616 118.418 47.0816 117.674C47.5136 116.918 48.1076 116.33 48.8636 115.91C49.6196 115.49 50.4716 115.28 51.4196 115.28C52.3556 115.28 53.1896 115.49 53.9216 115.91C54.6656 116.318 55.2416 116.9 55.6496 117.656C56.0696 118.4 56.2796 119.264 56.2796 120.248ZM51.4196 117.08C50.6996 117.08 50.0876 117.296 49.5836 117.728C49.0916 118.148 48.7916 118.712 48.6836 119.42H54.1376C54.0416 118.724 53.7476 118.16 53.2556 117.728C52.7636 117.296 52.1516 117.08 51.4196 117.08ZM61.8492 115.28C63.2652 115.28 64.3452 115.622 65.0892 116.306C65.8452 116.978 66.2232 117.998 66.2232 119.366V125H64.0992V123.83C63.8232 124.25 63.4272 124.574 62.9112 124.802C62.4072 125.018 61.7952 125.126 61.0752 125.126C60.3552 125.126 59.7252 125.006 59.1852 124.766C58.6452 124.514 58.2252 124.172 57.9252 123.74C57.6372 123.296 57.4932 122.798 57.4932 122.246C57.4932 121.382 57.8112 120.692 58.4472 120.176C59.0952 119.648 60.1092 119.384 61.4892 119.384H63.9732V119.24C63.9732 118.568 63.7692 118.052 63.3612 117.692C62.9652 117.332 62.3712 117.152 61.5792 117.152C61.0392 117.152 60.5052 117.236 59.9772 117.404C59.4612 117.572 59.0232 117.806 58.6632 118.106L57.7812 116.468C58.2852 116.084 58.8912 115.79 59.5992 115.586C60.3072 115.382 61.0572 115.28 61.8492 115.28ZM61.5432 123.488C62.1072 123.488 62.6052 123.362 63.0372 123.11C63.4812 122.846 63.7932 122.474 63.9732 121.994V120.878H61.6512C60.3552 120.878 59.7072 121.304 59.7072 122.156C59.7072 122.564 59.8692 122.888 60.1932 123.128C60.5172 123.368 60.9672 123.488 61.5432 123.488ZM74.8888 124.478C74.6248 124.694 74.3008 124.856 73.9168 124.964C73.5448 125.072 73.1488 125.126 72.7288 125.126C71.6728 125.126 70.8568 124.85 70.2808 124.298C69.7048 123.746 69.4168 122.942 69.4168 121.886V117.26H67.8328V115.46H69.4168V113.264H71.6668V115.46H74.2408V117.26H71.6668V121.832C71.6668 122.3 71.7808 122.66 72.0088 122.912C72.2368 123.152 72.5668 123.272 72.9988 123.272C73.5028 123.272 73.9228 123.14 74.2588 122.876L74.8888 124.478ZM76.7397 115.388H78.9897V125H76.7397V115.388ZM77.8737 113.804C77.4657 113.804 77.1237 113.678 76.8477 113.426C76.5717 113.162 76.4337 112.838 76.4337 112.454C76.4337 112.07 76.5717 111.752 76.8477 111.5C77.1237 111.236 77.4657 111.104 77.8737 111.104C78.2817 111.104 78.6237 111.23 78.8997 111.482C79.1757 111.722 79.3137 112.028 79.3137 112.4C79.3137 112.796 79.1757 113.132 78.8997 113.408C78.6357 113.672 78.2937 113.804 77.8737 113.804ZM87.3968 115.28C88.6088 115.28 89.5808 115.634 90.3128 116.342C91.0448 117.05 91.4108 118.1 91.4108 119.492V125H89.1608V119.78C89.1608 118.94 88.9628 118.31 88.5668 117.89C88.1708 117.458 87.6068 117.242 86.8748 117.242C86.0468 117.242 85.3928 117.494 84.9128 117.998C84.4328 118.49 84.1928 119.204 84.1928 120.14V125H81.9428V115.388H84.0848V116.63C84.4568 116.186 84.9248 115.85 85.4888 115.622C86.0528 115.394 86.6888 115.28 87.3968 115.28ZM103.893 115.388V123.542C103.893 126.926 102.165 128.618 98.709 128.618C97.785 128.618 96.909 128.498 96.081 128.258C95.253 128.03 94.569 127.694 94.029 127.25L95.037 125.558C95.457 125.906 95.985 126.182 96.621 126.386C97.269 126.602 97.923 126.71 98.583 126.71C99.639 126.71 100.413 126.47 100.905 125.99C101.397 125.51 101.643 124.778 101.643 123.794V123.29C101.259 123.71 100.791 124.028 100.239 124.244C99.687 124.46 99.081 124.568 98.421 124.568C97.509 124.568 96.681 124.376 95.937 123.992C95.205 123.596 94.623 123.044 94.191 122.336C93.771 121.628 93.561 120.818 93.561 119.906C93.561 118.994 93.771 118.19 94.191 117.494C94.623 116.786 95.205 116.24 95.937 115.856C96.681 115.472 97.509 115.28 98.421 115.28C99.117 115.28 99.747 115.394 100.311 115.622C100.887 115.85 101.367 116.198 101.751 116.666V115.388H103.893ZM98.763 122.66C99.615 122.66 100.311 122.408 100.851 121.904C101.403 121.388 101.679 120.722 101.679 119.906C101.679 119.102 101.403 118.448 100.851 117.944C100.311 117.44 99.615 117.188 98.763 117.188C97.899 117.188 97.191 117.44 96.639 117.944C96.099 118.448 95.829 119.102 95.829 119.906C95.829 120.722 96.099 121.388 96.639 121.904C97.191 122.408 97.899 122.66 98.763 122.66ZM115.498 115.28C116.914 115.28 117.994 115.622 118.738 116.306C119.494 116.978 119.872 117.998 119.872 119.366V125H117.748V123.83C117.472 124.25 117.076 124.574 116.56 124.802C116.056 125.018 115.444 125.126 114.724 125.126C114.004 125.126 113.374 125.006 112.834 124.766C112.294 124.514 111.874 124.172 111.574 123.74C111.286 123.296 111.142 122.798 111.142 122.246C111.142 121.382 111.46 120.692 112.096 120.176C112.744 119.648 113.758 119.384 115.138 119.384H117.622V119.24C117.622 118.568 117.418 118.052 117.01 117.692C116.614 117.332 116.02 117.152 115.228 117.152C114.688 117.152 114.154 117.236 113.626 117.404C113.11 117.572 112.672 117.806 112.312 118.106L111.43 116.468C111.934 116.084 112.54 115.79 113.248 115.586C113.956 115.382 114.706 115.28 115.498 115.28ZM115.192 123.488C115.756 123.488 116.254 123.362 116.686 123.11C117.13 122.846 117.442 122.474 117.622 121.994V120.878H115.3C114.004 120.878 113.356 121.304 113.356 122.156C113.356 122.564 113.518 122.888 113.842 123.128C114.166 123.368 114.616 123.488 115.192 123.488ZM128.213 115.28C129.425 115.28 130.397 115.634 131.129 116.342C131.861 117.05 132.227 118.1 132.227 119.492V125H129.977V119.78C129.977 118.94 129.779 118.31 129.383 117.89C128.987 117.458 128.423 117.242 127.691 117.242C126.863 117.242 126.209 117.494 125.729 117.998C125.249 118.49 125.009 119.204 125.009 120.14V125H122.759V115.388H124.901V116.63C125.273 116.186 125.741 115.85 126.305 115.622C126.869 115.394 127.505 115.28 128.213 115.28ZM140.272 112.4H142.612V125H140.272V112.4ZM151.258 115.28C152.47 115.28 153.442 115.634 154.174 116.342C154.906 117.05 155.272 118.1 155.272 119.492V125H153.022V119.78C153.022 118.94 152.824 118.31 152.428 117.89C152.032 117.458 151.468 117.242 150.736 117.242C149.908 117.242 149.254 117.494 148.774 117.998C148.294 118.49 148.054 119.204 148.054 120.14V125H145.804V115.388H147.946V116.63C148.318 116.186 148.786 115.85 149.35 115.622C149.914 115.394 150.55 115.28 151.258 115.28ZM162.032 113.336C161.084 113.336 160.61 113.852 160.61 114.884V115.46H163.256V117.26H160.682V125H158.432V117.26H156.848V115.46H158.432V114.848C158.432 113.816 158.732 113.006 159.332 112.418C159.932 111.818 160.778 111.518 161.87 111.518C162.734 111.518 163.412 111.692 163.904 112.04L163.274 113.732C162.89 113.468 162.476 113.336 162.032 113.336ZM164.768 111.644H167.018V125H164.768V111.644ZM173.646 115.28C175.062 115.28 176.142 115.622 176.886 116.306C177.642 116.978 178.02 117.998 178.02 119.366V125H175.896V123.83C175.62 124.25 175.224 124.574 174.708 124.802C174.204 125.018 173.592 125.126 172.872 125.126C172.152 125.126 171.522 125.006 170.982 124.766C170.442 124.514 170.022 124.172 169.722 123.74C169.434 123.296 169.29 122.798 169.29 122.246C169.29 121.382 169.608 120.692 170.244 120.176C170.892 119.648 171.906 119.384 173.286 119.384H175.77V119.24C175.77 118.568 175.566 118.052 175.158 117.692C174.762 117.332 174.168 117.152 173.376 117.152C172.836 117.152 172.302 117.236 171.774 117.404C171.258 117.572 170.82 117.806 170.46 118.106L169.578 116.468C170.082 116.084 170.688 115.79 171.396 115.586C172.104 115.382 172.854 115.28 173.646 115.28ZM173.34 123.488C173.904 123.488 174.402 123.362 174.834 123.11C175.278 122.846 175.59 122.474 175.77 121.994V120.878H173.448C172.152 120.878 171.504 121.304 171.504 122.156C171.504 122.564 171.666 122.888 171.99 123.128C172.314 123.368 172.764 123.488 173.34 123.488ZM186.686 124.478C186.422 124.694 186.098 124.856 185.714 124.964C185.342 125.072 184.946 125.126 184.526 125.126C183.47 125.126 182.654 124.85 182.078 124.298C181.502 123.746 181.214 122.942 181.214 121.886V117.26H179.63V115.46H181.214V113.264H183.464V115.46H186.038V117.26H183.464V121.832C183.464 122.3 183.578 122.66 183.806 122.912C184.034 123.152 184.364 123.272 184.796 123.272C185.3 123.272 185.72 123.14 186.056 122.876L186.686 124.478ZM188.537 115.388H190.787V125H188.537V115.388ZM189.671 113.804C189.263 113.804 188.921 113.678 188.645 113.426C188.369 113.162 188.231 112.838 188.231 112.454C188.231 112.07 188.369 111.752 188.645 111.5C188.921 111.236 189.263 111.104 189.671 111.104C190.079 111.104 190.421 111.23 190.697 111.482C190.973 111.722 191.111 112.028 191.111 112.4C191.111 112.796 190.973 113.132 190.697 113.408C190.433 113.672 190.091 113.804 189.671 113.804ZM198.06 125.126C197.088 125.126 196.212 124.916 195.432 124.496C194.652 124.076 194.04 123.494 193.596 122.75C193.164 121.994 192.948 121.142 192.948 120.194C192.948 119.246 193.164 118.4 193.596 117.656C194.04 116.912 194.652 116.33 195.432 115.91C196.212 115.49 197.088 115.28 198.06 115.28C199.044 115.28 199.926 115.49 200.706 115.91C201.486 116.33 202.092 116.912 202.524 117.656C202.968 118.4 203.19 119.246 203.19 120.194C203.19 121.142 202.968 121.994 202.524 122.75C202.092 123.494 201.486 124.076 200.706 124.496C199.926 124.916 199.044 125.126 198.06 125.126ZM198.06 123.2C198.888 123.2 199.572 122.924 200.112 122.372C200.652 121.82 200.922 121.094 200.922 120.194C200.922 119.294 200.652 118.568 200.112 118.016C199.572 117.464 198.888 117.188 198.06 117.188C197.232 117.188 196.548 117.464 196.008 118.016C195.48 118.568 195.216 119.294 195.216 120.194C195.216 121.094 195.48 121.82 196.008 122.372C196.548 122.924 197.232 123.2 198.06 123.2ZM210.795 115.28C212.007 115.28 212.979 115.634 213.711 116.342C214.443 117.05 214.809 118.1 214.809 119.492V125H212.559V119.78C212.559 118.94 212.361 118.31 211.965 117.89C211.569 117.458 211.005 117.242 210.273 117.242C209.445 117.242 208.791 117.494 208.311 117.998C207.831 118.49 207.591 119.204 207.591 120.14V125H205.341V115.388H207.483V116.63C207.855 116.186 208.323 115.85 208.887 115.622C209.451 115.394 210.087 115.28 210.795 115.28ZM217.178 119.06H222.128V120.932H217.178V119.06ZM229.917 115.28C230.853 115.28 231.687 115.484 232.419 115.892C233.163 116.3 233.745 116.876 234.165 117.62C234.585 118.364 234.795 119.222 234.795 120.194C234.795 121.166 234.585 122.03 234.165 122.786C233.745 123.53 233.163 124.106 232.419 124.514C231.687 124.922 230.853 125.126 229.917 125.126C228.621 125.126 227.595 124.694 226.839 123.83V128.492H224.589V115.388H226.731V116.648C227.103 116.192 227.559 115.85 228.099 115.622C228.651 115.394 229.257 115.28 229.917 115.28ZM229.665 123.2C230.493 123.2 231.171 122.924 231.699 122.372C232.239 121.82 232.509 121.094 232.509 120.194C232.509 119.294 232.239 118.568 231.699 118.016C231.171 117.464 230.493 117.188 229.665 117.188C229.125 117.188 228.639 117.314 228.207 117.566C227.775 117.806 227.433 118.154 227.181 118.61C226.929 119.066 226.803 119.594 226.803 120.194C226.803 120.794 226.929 121.322 227.181 121.778C227.433 122.234 227.775 122.588 228.207 122.84C228.639 123.08 229.125 123.2 229.665 123.2ZM239.071 116.792C239.719 115.784 240.859 115.28 242.491 115.28V117.422C242.299 117.386 242.125 117.368 241.969 117.368C241.093 117.368 240.409 117.626 239.917 118.142C239.425 118.646 239.179 119.378 239.179 120.338V125H236.929V115.388H239.071V116.792ZM248.632 125.126C247.66 125.126 246.784 124.916 246.004 124.496C245.224 124.076 244.612 123.494 244.168 122.75C243.736 121.994 243.52 121.142 243.52 120.194C243.52 119.246 243.736 118.4 244.168 117.656C244.612 116.912 245.224 116.33 246.004 115.91C246.784 115.49 247.66 115.28 248.632 115.28C249.616 115.28 250.498 115.49 251.278 115.91C252.058 116.33 252.664 116.912 253.096 117.656C253.54 118.4 253.762 119.246 253.762 120.194C253.762 121.142 253.54 121.994 253.096 122.75C252.664 123.494 252.058 124.076 251.278 124.496C250.498 124.916 249.616 125.126 248.632 125.126ZM248.632 123.2C249.46 123.2 250.144 122.924 250.684 122.372C251.224 121.82 251.494 121.094 251.494 120.194C251.494 119.294 251.224 118.568 250.684 118.016C250.144 117.464 249.46 117.188 248.632 117.188C247.804 117.188 247.12 117.464 246.58 118.016C246.052 118.568 245.788 119.294 245.788 120.194C245.788 121.094 246.052 121.82 246.58 122.372C247.12 122.924 247.804 123.2 248.632 123.2ZM260.234 125.126C259.262 125.126 258.386 124.916 257.606 124.496C256.826 124.076 256.214 123.494 255.77 122.75C255.338 121.994 255.122 121.142 255.122 120.194C255.122 119.246 255.338 118.4 255.77 117.656C256.214 116.912 256.826 116.33 257.606 115.91C258.386 115.49 259.262 115.28 260.234 115.28C261.218 115.28 262.1 115.49 262.88 115.91C263.66 116.33 264.266 116.912 264.698 117.656C265.142 118.4 265.364 119.246 265.364 120.194C265.364 121.142 265.142 121.994 264.698 122.75C264.266 123.494 263.66 124.076 262.88 124.496C262.1 124.916 261.218 125.126 260.234 125.126ZM260.234 123.2C261.062 123.2 261.746 122.924 262.286 122.372C262.826 121.82 263.096 121.094 263.096 120.194C263.096 119.294 262.826 118.568 262.286 118.016C261.746 117.464 261.062 117.188 260.234 117.188C259.406 117.188 258.722 117.464 258.182 118.016C257.654 118.568 257.39 119.294 257.39 120.194C257.39 121.094 257.654 121.82 258.182 122.372C258.722 122.924 259.406 123.2 260.234 123.2ZM271.421 113.336C270.473 113.336 269.999 113.852 269.999 114.884V115.46H272.645V117.26H270.071V125H267.821V117.26H266.237V115.46H267.821V114.848C267.821 113.816 268.121 113.006 268.721 112.418C269.321 111.818 270.167 111.518 271.259 111.518C272.123 111.518 272.801 111.692 273.293 112.04L272.663 113.732C272.279 113.468 271.865 113.336 271.421 113.336ZM283.256 125.18C282.284 125.18 281.342 125.042 280.43 124.766C279.53 124.49 278.816 124.124 278.288 123.668L279.098 121.85C279.614 122.258 280.244 122.594 280.988 122.858C281.744 123.11 282.5 123.236 283.256 123.236C284.192 123.236 284.888 123.086 285.344 122.786C285.812 122.486 286.046 122.09 286.046 121.598C286.046 121.238 285.914 120.944 285.65 120.716C285.398 120.476 285.074 120.29 284.678 120.158C284.282 120.026 283.742 119.876 283.058 119.708C282.098 119.48 281.318 119.252 280.718 119.024C280.13 118.796 279.62 118.442 279.188 117.962C278.768 117.47 278.558 116.81 278.558 115.982C278.558 115.286 278.744 114.656 279.116 114.092C279.5 113.516 280.07 113.06 280.826 112.724C281.594 112.388 282.53 112.22 283.634 112.22C284.402 112.22 285.158 112.316 285.902 112.508C286.646 112.7 287.288 112.976 287.828 113.336L287.09 115.154C286.538 114.83 285.962 114.584 285.362 114.416C284.762 114.248 284.18 114.164 283.616 114.164C282.692 114.164 282.002 114.32 281.546 114.632C281.102 114.944 280.88 115.358 280.88 115.874C280.88 116.234 281.006 116.528 281.258 116.756C281.522 116.984 281.852 117.164 282.248 117.296C282.644 117.428 283.184 117.578 283.868 117.746C284.804 117.962 285.572 118.19 286.172 118.43C286.772 118.658 287.282 119.012 287.702 119.492C288.134 119.972 288.35 120.62 288.35 121.436C288.35 122.132 288.158 122.762 287.774 123.326C287.402 123.89 286.832 124.34 286.064 124.676C285.296 125.012 284.36 125.18 283.256 125.18ZM296.233 124.478C295.969 124.694 295.645 124.856 295.261 124.964C294.889 125.072 294.493 125.126 294.073 125.126C293.017 125.126 292.201 124.85 291.625 124.298C291.049 123.746 290.761 122.942 290.761 121.886V117.26H289.177V115.46H290.761V113.264H293.011V115.46H295.585V117.26H293.011V121.832C293.011 122.3 293.125 122.66 293.353 122.912C293.581 123.152 293.911 123.272 294.343 123.272C294.847 123.272 295.267 123.14 295.603 122.876L296.233 124.478ZM302.087 125.126C301.115 125.126 300.239 124.916 299.459 124.496C298.679 124.076 298.067 123.494 297.623 122.75C297.191 121.994 296.975 121.142 296.975 120.194C296.975 119.246 297.191 118.4 297.623 117.656C298.067 116.912 298.679 116.33 299.459 115.91C300.239 115.49 301.115 115.28 302.087 115.28C303.071 115.28 303.953 115.49 304.733 115.91C305.513 116.33 306.119 116.912 306.551 117.656C306.995 118.4 307.217 119.246 307.217 120.194C307.217 121.142 306.995 121.994 306.551 122.75C306.119 123.494 305.513 124.076 304.733 124.496C303.953 124.916 303.071 125.126 302.087 125.126ZM302.087 123.2C302.915 123.2 303.599 122.924 304.139 122.372C304.679 121.82 304.949 121.094 304.949 120.194C304.949 119.294 304.679 118.568 304.139 118.016C303.599 117.464 302.915 117.188 302.087 117.188C301.259 117.188 300.575 117.464 300.035 118.016C299.507 118.568 299.243 119.294 299.243 120.194C299.243 121.094 299.507 121.82 300.035 122.372C300.575 122.924 301.259 123.2 302.087 123.2ZM311.511 116.792C312.159 115.784 313.299 115.28 314.931 115.28V117.422C314.739 117.386 314.565 117.368 314.409 117.368C313.533 117.368 312.849 117.626 312.357 118.142C311.865 118.646 311.619 119.378 311.619 120.338V125H309.369V115.388H311.511V116.792ZM325.787 120.248C325.787 120.404 325.775 120.626 325.751 120.914H318.209C318.341 121.622 318.683 122.186 319.235 122.606C319.799 123.014 320.495 123.218 321.323 123.218C322.379 123.218 323.249 122.87 323.933 122.174L325.139 123.56C324.707 124.076 324.161 124.466 323.501 124.73C322.841 124.994 322.097 125.126 321.269 125.126C320.213 125.126 319.283 124.916 318.479 124.496C317.675 124.076 317.051 123.494 316.607 122.75C316.175 121.994 315.959 121.142 315.959 120.194C315.959 119.258 316.169 118.418 316.589 117.674C317.021 116.918 317.615 116.33 318.371 115.91C319.127 115.49 319.979 115.28 320.927 115.28C321.863 115.28 322.697 115.49 323.429 115.91C324.173 116.318 324.749 116.9 325.157 117.656C325.577 118.4 325.787 119.264 325.787 120.248ZM320.927 117.08C320.207 117.08 319.595 117.296 319.091 117.728C318.599 118.148 318.299 118.712 318.191 119.42H323.645C323.549 118.724 323.255 118.16 322.763 117.728C322.271 117.296 321.659 117.08 320.927 117.08ZM337.243 125.126C336.271 125.126 335.395 124.916 334.615 124.496C333.835 124.076 333.223 123.494 332.779 122.75C332.347 121.994 332.131 121.142 332.131 120.194C332.131 119.246 332.347 118.4 332.779 117.656C333.223 116.912 333.835 116.33 334.615 115.91C335.395 115.49 336.271 115.28 337.243 115.28C338.227 115.28 339.109 115.49 339.889 115.91C340.669 116.33 341.275 116.912 341.707 117.656C342.151 118.4 342.373 119.246 342.373 120.194C342.373 121.142 342.151 121.994 341.707 122.75C341.275 123.494 340.669 124.076 339.889 124.496C339.109 124.916 338.227 125.126 337.243 125.126ZM337.243 123.2C338.071 123.2 338.755 122.924 339.295 122.372C339.835 121.82 340.105 121.094 340.105 120.194C340.105 119.294 339.835 118.568 339.295 118.016C338.755 117.464 338.071 117.188 337.243 117.188C336.415 117.188 335.731 117.464 335.191 118.016C334.663 118.568 334.399 119.294 334.399 120.194C334.399 121.094 334.663 121.82 335.191 122.372C335.731 122.924 336.415 123.2 337.243 123.2ZM348.431 113.336C347.483 113.336 347.009 113.852 347.009 114.884V115.46H349.655V117.26H347.081V125H344.831V117.26H343.247V115.46H344.831V114.848C344.831 113.816 345.131 113.006 345.731 112.418C346.331 111.818 347.177 111.518 348.269 111.518C349.133 111.518 349.811 111.692 350.303 112.04L349.673 113.732C349.289 113.468 348.875 113.336 348.431 113.336ZM174.855 134.4L169.365 147H167.061L161.553 134.4H164.091L168.285 144.12L172.515 134.4H174.855ZM178.919 137.28C180.335 137.28 181.415 137.622 182.159 138.306C182.915 138.978 183.293 139.998 183.293 141.366V147H181.169V145.83C180.893 146.25 180.497 146.574 179.981 146.802C179.477 147.018 178.865 147.126 178.145 147.126C177.425 147.126 176.795 147.006 176.255 146.766C175.715 146.514 175.295 146.172 174.995 145.74C174.707 145.296 174.563 144.798 174.563 144.246C174.563 143.382 174.881 142.692 175.517 142.176C176.165 141.648 177.179 141.384 178.559 141.384H181.043V141.24C181.043 140.568 180.839 140.052 180.431 139.692C180.035 139.332 179.441 139.152 178.649 139.152C178.109 139.152 177.575 139.236 177.047 139.404C176.531 139.572 176.093 139.806 175.733 140.106L174.851 138.468C175.355 138.084 175.961 137.79 176.669 137.586C177.377 137.382 178.127 137.28 178.919 137.28ZM178.613 145.488C179.177 145.488 179.675 145.362 180.107 145.11C180.551 144.846 180.863 144.474 181.043 143.994V142.878H178.721C177.425 142.878 176.777 143.304 176.777 144.156C176.777 144.564 176.939 144.888 177.263 145.128C177.587 145.368 178.037 145.488 178.613 145.488ZM186.181 133.644H188.431V147H186.181V133.644ZM200.69 137.388V147H198.548V145.776C198.188 146.208 197.738 146.544 197.198 146.784C196.658 147.012 196.076 147.126 195.452 147.126C194.168 147.126 193.154 146.772 192.41 146.064C191.678 145.344 191.312 144.282 191.312 142.878V137.388H193.562V142.572C193.562 143.436 193.754 144.084 194.138 144.516C194.534 144.936 195.092 145.146 195.812 145.146C196.616 145.146 197.252 144.9 197.72 144.408C198.2 143.904 198.44 143.184 198.44 142.248V137.388H200.69ZM212.672 142.248C212.672 142.404 212.66 142.626 212.636 142.914H205.094C205.226 143.622 205.568 144.186 206.12 144.606C206.684 145.014 207.38 145.218 208.208 145.218C209.264 145.218 210.134 144.87 210.818 144.174L212.024 145.56C211.592 146.076 211.046 146.466 210.386 146.73C209.726 146.994 208.982 147.126 208.154 147.126C207.098 147.126 206.168 146.916 205.364 146.496C204.56 146.076 203.936 145.494 203.492 144.75C203.06 143.994 202.844 143.142 202.844 142.194C202.844 141.258 203.054 140.418 203.474 139.674C203.906 138.918 204.5 138.33 205.256 137.91C206.012 137.49 206.864 137.28 207.812 137.28C208.748 137.28 209.582 137.49 210.314 137.91C211.058 138.318 211.634 138.9 212.042 139.656C212.462 140.4 212.672 141.264 212.672 142.248ZM207.812 139.08C207.092 139.08 206.48 139.296 205.976 139.728C205.484 140.148 205.184 140.712 205.076 141.42H210.53C210.434 140.724 210.14 140.16 209.648 139.728C209.156 139.296 208.544 139.08 207.812 139.08Z" fill="#233433"/>
</g>
<defs>
<linearGradient id="paint0_linear" x1="-532" y1="68.8456" x2="908" y2="68.8456" gradientUnits="userSpaceOnUse">
<stop stop-color="#75BEEE" stop-opacity="0.64"/>
<stop offset="1" stop-color="#B9ED4C"/>
</linearGradient>
<clipPath id="clip0">
<rect width="375" height="200" fill="white"/>
</clipPath>
</defs>
</svg>
