<svg width="375" height="240" viewBox="0 0 375 240" fill="none" xmlns="http://www.w3.org/2000/svg">
<g clip-path="url(#clip0)">
<rect width="375" height="240" fill="#E7F2F3"/>
<g opacity="0.3">
<line x1="-532" y1="36.5" x2="908" y2="36.5" stroke="#C3DDDF" stroke-width="3"/>
<line x1="-532" y1="79.5" x2="908" y2="79.5" stroke="#C3DDDF" stroke-width="3"/>
<line x1="-532" y1="122.5" x2="908" y2="122.5" stroke="#C3DDDF" stroke-width="3"/>
<line x1="-532" y1="165.5" x2="908" y2="165.5" stroke="#C3DDDF" stroke-width="3"/>
<line x1="-532" y1="208.5" x2="908" y2="208.5" stroke="#C3DDDF" stroke-width="3"/>
</g>
<g opacity="0.3">
<line x1="45.5" y1="-6.55671e-08" x2="45.5" y2="240" stroke="#C3DDDF" stroke-width="3"/>
<line x1="93.5" y1="-6.55671e-08" x2="93.5" y2="240" stroke="#C3DDDF" stroke-width="3"/>
<line x1="141.5" y1="-6.55671e-08" x2="141.5" y2="240" stroke="#C3DDDF" stroke-width="3"/>
<line x1="189.5" y1="-6.55671e-08" x2="189.5" y2="240" stroke="#C3DDDF" stroke-width="3"/>
<line x1="237.5" y1="-6.55671e-08" x2="237.5" y2="240" stroke="#C3DDDF" stroke-width="3"/>
<line x1="285.5" y1="-6.55671e-08" x2="285.5" y2="240" stroke="#C3DDDF" stroke-width="3"/>
<line x1="333.5" y1="-6.55671e-08" x2="333.5" y2="240" stroke="#C3DDDF" stroke-width="3"/>
</g>
<path d="M145.655 78C148.135 78 150.282 78.4133 152.095 79.24C153.935 80.0667 155.348 81.24 156.335 82.76C157.322 84.28 157.815 86.08 157.815 88.16C157.815 90.2133 157.322 92.0133 156.335 93.56C155.348 95.08 153.935 96.2533 152.095 97.08C150.282 97.88 148.135 98.28 145.655 98.28H140.015V106H133.535V78H145.655ZM145.295 93C147.242 93 148.722 92.5867 149.735 91.76C150.748 90.9067 151.255 89.7067 151.255 88.16C151.255 86.5867 150.748 85.3867 149.735 84.56C148.722 83.7067 147.242 83.28 145.295 83.28H140.015V93H145.295ZM172.202 106.32C169.935 106.32 167.895 105.853 166.082 104.92C164.295 103.96 162.895 102.64 161.882 100.96C160.869 99.28 160.362 97.3733 160.362 95.24C160.362 93.1067 160.869 91.2 161.882 89.52C162.895 87.84 164.295 86.5333 166.082 85.6C167.895 84.64 169.935 84.16 172.202 84.16C174.469 84.16 176.495 84.64 178.282 85.6C180.069 86.5333 181.469 87.84 182.482 89.52C183.495 91.2 184.002 93.1067 184.002 95.24C184.002 97.3733 183.495 99.28 182.482 100.96C181.469 102.64 180.069 103.96 178.282 104.92C176.495 105.853 174.469 106.32 172.202 106.32ZM172.202 101.2C173.802 101.2 175.109 100.667 176.122 99.6C177.162 98.5067 177.682 97.0533 177.682 95.24C177.682 93.4267 177.162 91.9867 176.122 90.92C175.109 89.8267 173.802 89.28 172.202 89.28C170.602 89.28 169.282 89.8267 168.242 90.92C167.202 91.9867 166.682 93.4267 166.682 95.24C166.682 97.0533 167.202 98.5067 168.242 99.6C169.282 100.667 170.602 101.2 172.202 101.2ZM198.413 106.32C196.146 106.32 194.106 105.853 192.293 104.92C190.506 103.96 189.106 102.64 188.093 100.96C187.08 99.28 186.573 97.3733 186.573 95.24C186.573 93.1067 187.08 91.2 188.093 89.52C189.106 87.84 190.506 86.5333 192.293 85.6C194.106 84.64 196.146 84.16 198.413 84.16C200.68 84.16 202.706 84.64 204.493 85.6C206.28 86.5333 207.68 87.84 208.693 89.52C209.706 91.2 210.213 93.1067 210.213 95.24C210.213 97.3733 209.706 99.28 208.693 100.96C207.68 102.64 206.28 103.96 204.493 104.92C202.706 105.853 200.68 106.32 198.413 106.32ZM198.413 101.2C200.013 101.2 201.32 100.667 202.333 99.6C203.373 98.5067 203.893 97.0533 203.893 95.24C203.893 93.4267 203.373 91.9867 202.333 90.92C201.32 89.8267 200.013 89.28 198.413 89.28C196.813 89.28 195.493 89.8267 194.453 90.92C193.413 91.9867 192.893 93.4267 192.893 95.24C192.893 97.0533 193.413 98.5067 194.453 99.6C195.493 100.667 196.813 101.2 198.413 101.2ZM214.384 76.32H220.624V106H214.384V76.32ZM233.655 106.32C231.868 106.32 230.122 106.107 228.415 105.68C226.708 105.227 225.348 104.667 224.335 104L226.415 99.52C227.375 100.133 228.535 100.64 229.895 101.04C231.255 101.413 232.588 101.6 233.895 101.6C236.535 101.6 237.855 100.947 237.855 99.64C237.855 99.0267 237.495 98.5867 236.775 98.32C236.055 98.0533 234.948 97.8267 233.455 97.64C231.695 97.3733 230.242 97.0667 229.095 96.72C227.948 96.3733 226.948 95.76 226.095 94.88C225.268 94 224.855 92.7467 224.855 91.12C224.855 89.76 225.242 88.56 226.015 87.52C226.815 86.4533 227.962 85.6267 229.455 85.04C230.975 84.4533 232.762 84.16 234.815 84.16C236.335 84.16 237.842 84.3333 239.335 84.68C240.855 85 242.108 85.4533 243.095 86.04L241.015 90.48C239.122 89.4133 237.055 88.88 234.815 88.88C233.482 88.88 232.482 89.0667 231.815 89.44C231.148 89.8133 230.815 90.2933 230.815 90.88C230.815 91.5467 231.175 92.0133 231.895 92.28C232.615 92.5467 233.762 92.8 235.335 93.04C237.095 93.3333 238.535 93.6533 239.655 94C240.775 94.32 241.748 94.92 242.575 95.8C243.402 96.68 243.815 97.9067 243.815 99.48C243.815 100.813 243.415 102 242.615 103.04C241.815 104.08 240.642 104.893 239.095 105.48C237.575 106.04 235.762 106.32 233.655 106.32Z" fill="#233433"/>
<path d="M31.2386 145.18C30.2666 145.18 29.3246 145.042 28.4126 144.766C27.5126 144.49 26.7986 144.124 26.2706 143.668L27.0806 141.85C27.5966 142.258 28.2266 142.594 28.9706 142.858C29.7266 143.11 30.4826 143.236 31.2386 143.236C32.1746 143.236 32.8706 143.086 33.3266 142.786C33.7946 142.486 34.0286 142.09 34.0286 141.598C34.0286 141.238 33.8966 140.944 33.6326 140.716C33.3806 140.476 33.0566 140.29 32.6606 140.158C32.2646 140.026 31.7246 139.876 31.0406 139.708C30.0806 139.48 29.3006 139.252 28.7006 139.024C28.1126 138.796 27.6026 138.442 27.1706 137.962C26.7506 137.47 26.5406 136.81 26.5406 135.982C26.5406 135.286 26.7266 134.656 27.0986 134.092C27.4826 133.516 28.0526 133.06 28.8086 132.724C29.5766 132.388 30.5126 132.22 31.6166 132.22C32.3846 132.22 33.1406 132.316 33.8846 132.508C34.6286 132.7 35.2706 132.976 35.8106 133.336L35.0726 135.154C34.5206 134.83 33.9446 134.584 33.3446 134.416C32.7446 134.248 32.1626 134.164 31.5986 134.164C30.6746 134.164 29.9846 134.32 29.5286 134.632C29.0846 134.944 28.8626 135.358 28.8626 135.874C28.8626 136.234 28.9886 136.528 29.2406 136.756C29.5046 136.984 29.8346 137.164 30.2306 137.296C30.6266 137.428 31.1666 137.578 31.8506 137.746C32.7866 137.962 33.5546 138.19 34.1546 138.43C34.7546 138.658 35.2646 139.012 35.6846 139.492C36.1166 139.972 36.3326 140.62 36.3326 141.436C36.3326 142.132 36.1406 142.762 35.7566 143.326C35.3846 143.89 34.8146 144.34 34.0466 144.676C33.2786 145.012 32.3426 145.18 31.2386 145.18ZM38.4369 135.388H40.6869V145H38.4369V135.388ZM39.5709 133.804C39.1629 133.804 38.8209 133.678 38.5449 133.426C38.2689 133.162 38.1309 132.838 38.1309 132.454C38.1309 132.07 38.2689 131.752 38.5449 131.5C38.8209 131.236 39.1629 131.104 39.5709 131.104C39.9789 131.104 40.3209 131.23 40.5969 131.482C40.8729 131.722 41.0109 132.028 41.0109 132.4C41.0109 132.796 40.8729 133.132 40.5969 133.408C40.3329 133.672 39.9909 133.804 39.5709 133.804ZM49.0941 135.28C50.3061 135.28 51.2781 135.634 52.0101 136.342C52.7421 137.05 53.1081 138.1 53.1081 139.492V145H50.8581V139.78C50.8581 138.94 50.6601 138.31 50.2641 137.89C49.8681 137.458 49.3041 137.242 48.5721 137.242C47.7441 137.242 47.0901 137.494 46.6101 137.998C46.1301 138.49 45.8901 139.204 45.8901 140.14V145H43.6401V135.388H45.7821V136.63C46.1541 136.186 46.6221 135.85 47.1861 135.622C47.7501 135.394 48.3861 135.28 49.0941 135.28ZM65.5902 135.388V143.542C65.5902 146.926 63.8622 148.618 60.4062 148.618C59.4822 148.618 58.6062 148.498 57.7782 148.258C56.9502 148.03 56.2662 147.694 55.7262 147.25L56.7342 145.558C57.1542 145.906 57.6822 146.182 58.3182 146.386C58.9662 146.602 59.6202 146.71 60.2802 146.71C61.3362 146.71 62.1102 146.47 62.6022 145.99C63.0942 145.51 63.3402 144.778 63.3402 143.794V143.29C62.9562 143.71 62.4882 144.028 61.9362 144.244C61.3842 144.46 60.7782 144.568 60.1182 144.568C59.2062 144.568 58.3782 144.376 57.6342 143.992C56.9022 143.596 56.3202 143.044 55.8882 142.336C55.4682 141.628 55.2582 140.818 55.2582 139.906C55.2582 138.994 55.4682 138.19 55.8882 137.494C56.3202 136.786 56.9022 136.24 57.6342 135.856C58.3782 135.472 59.2062 135.28 60.1182 135.28C60.8142 135.28 61.4442 135.394 62.0082 135.622C62.5842 135.85 63.0642 136.198 63.4482 136.666V135.388H65.5902ZM60.4602 142.66C61.3122 142.66 62.0082 142.408 62.5482 141.904C63.1002 141.388 63.3762 140.722 63.3762 139.906C63.3762 139.102 63.1002 138.448 62.5482 137.944C62.0082 137.44 61.3122 137.188 60.4602 137.188C59.5962 137.188 58.8882 137.44 58.3362 137.944C57.7962 138.448 57.5262 139.102 57.5262 139.906C57.5262 140.722 57.7962 141.388 58.3362 141.904C58.8882 142.408 59.5962 142.66 60.4602 142.66ZM68.5483 131.644H70.7983V145H68.5483V131.644ZM82.7874 140.248C82.7874 140.404 82.7754 140.626 82.7514 140.914H75.2094C75.3414 141.622 75.6834 142.186 76.2354 142.606C76.7994 143.014 77.4954 143.218 78.3234 143.218C79.3794 143.218 80.2494 142.87 80.9334 142.174L82.1394 143.56C81.7074 144.076 81.1614 144.466 80.5014 144.73C79.8414 144.994 79.0974 145.126 78.2694 145.126C77.2134 145.126 76.2834 144.916 75.4794 144.496C74.6754 144.076 74.0514 143.494 73.6074 142.75C73.1754 141.994 72.9594 141.142 72.9594 140.194C72.9594 139.258 73.1694 138.418 73.5894 137.674C74.0214 136.918 74.6154 136.33 75.3714 135.91C76.1274 135.49 76.9794 135.28 77.9274 135.28C78.8634 135.28 79.6974 135.49 80.4294 135.91C81.1734 136.318 81.7494 136.9 82.1574 137.656C82.5774 138.4 82.7874 139.264 82.7874 140.248ZM77.9274 137.08C77.2074 137.08 76.5954 137.296 76.0914 137.728C75.5994 138.148 75.2994 138.712 75.1914 139.42H80.6454C80.5494 138.724 80.2554 138.16 79.7634 137.728C79.2714 137.296 78.6594 137.08 77.9274 137.08ZM95.7013 144.478C95.4373 144.694 95.1133 144.856 94.7293 144.964C94.3573 145.072 93.9613 145.126 93.5413 145.126C92.4853 145.126 91.6693 144.85 91.0933 144.298C90.5173 143.746 90.2293 142.942 90.2293 141.886V137.26H88.6453V135.46H90.2293V133.264H92.4793V135.46H95.0533V137.26H92.4793V141.832C92.4793 142.3 92.5933 142.66 92.8213 142.912C93.0493 143.152 93.3793 143.272 93.8113 143.272C94.3153 143.272 94.7353 143.14 95.0713 142.876L95.7013 144.478ZM101.556 145.126C100.584 145.126 99.7078 144.916 98.9278 144.496C98.1478 144.076 97.5358 143.494 97.0918 142.75C96.6598 141.994 96.4438 141.142 96.4438 140.194C96.4438 139.246 96.6598 138.4 97.0918 137.656C97.5358 136.912 98.1478 136.33 98.9278 135.91C99.7078 135.49 100.584 135.28 101.556 135.28C102.54 135.28 103.422 135.49 104.202 135.91C104.982 136.33 105.588 136.912 106.02 137.656C106.464 138.4 106.686 139.246 106.686 140.194C106.686 141.142 106.464 141.994 106.02 142.75C105.588 143.494 104.982 144.076 104.202 144.496C103.422 144.916 102.54 145.126 101.556 145.126ZM101.556 143.2C102.384 143.2 103.068 142.924 103.608 142.372C104.148 141.82 104.418 141.094 104.418 140.194C104.418 139.294 104.148 138.568 103.608 138.016C103.068 137.464 102.384 137.188 101.556 137.188C100.728 137.188 100.044 137.464 99.5038 138.016C98.9758 138.568 98.7118 139.294 98.7118 140.194C98.7118 141.094 98.9758 141.82 99.5038 142.372C100.044 142.924 100.728 143.2 101.556 143.2ZM112.761 140.878L111.087 142.462V145H108.837V131.644H111.087V139.708L115.749 135.388H118.449L114.435 139.42L118.827 145H116.091L112.761 140.878ZM128.912 140.248C128.912 140.404 128.9 140.626 128.876 140.914H121.334C121.466 141.622 121.808 142.186 122.36 142.606C122.924 143.014 123.62 143.218 124.448 143.218C125.504 143.218 126.374 142.87 127.058 142.174L128.264 143.56C127.832 144.076 127.286 144.466 126.626 144.73C125.966 144.994 125.222 145.126 124.394 145.126C123.338 145.126 122.408 144.916 121.604 144.496C120.8 144.076 120.176 143.494 119.732 142.75C119.3 141.994 119.084 141.142 119.084 140.194C119.084 139.258 119.294 138.418 119.714 137.674C120.146 136.918 120.74 136.33 121.496 135.91C122.252 135.49 123.104 135.28 124.052 135.28C124.988 135.28 125.822 135.49 126.554 135.91C127.298 136.318 127.874 136.9 128.282 137.656C128.702 138.4 128.912 139.264 128.912 140.248ZM124.052 137.08C123.332 137.08 122.72 137.296 122.216 137.728C121.724 138.148 121.424 138.712 121.316 139.42H126.77C126.674 138.724 126.38 138.16 125.888 137.728C125.396 137.296 124.784 137.08 124.052 137.08ZM136.528 135.28C137.74 135.28 138.712 135.634 139.444 136.342C140.176 137.05 140.542 138.1 140.542 139.492V145H138.292V139.78C138.292 138.94 138.094 138.31 137.698 137.89C137.302 137.458 136.738 137.242 136.006 137.242C135.178 137.242 134.524 137.494 134.044 137.998C133.564 138.49 133.324 139.204 133.324 140.14V145H131.074V135.388H133.216V136.63C133.588 136.186 134.056 135.85 134.62 135.622C135.184 135.394 135.82 135.28 136.528 135.28ZM151.341 145.126C150.561 145.126 149.799 145.024 149.055 144.82C148.311 144.616 147.717 144.358 147.273 144.046L148.137 142.336C148.569 142.624 149.085 142.858 149.685 143.038C150.297 143.206 150.897 143.29 151.485 143.29C152.829 143.29 153.501 142.936 153.501 142.228C153.501 141.892 153.327 141.658 152.979 141.526C152.643 141.394 152.097 141.268 151.341 141.148C150.549 141.028 149.901 140.89 149.397 140.734C148.905 140.578 148.473 140.308 148.101 139.924C147.741 139.528 147.561 138.982 147.561 138.286C147.561 137.374 147.939 136.648 148.695 136.108C149.463 135.556 150.495 135.28 151.791 135.28C152.451 135.28 153.111 135.358 153.771 135.514C154.431 135.658 154.971 135.856 155.391 136.108L154.527 137.818C153.711 137.338 152.793 137.098 151.773 137.098C151.113 137.098 150.609 137.2 150.261 137.404C149.925 137.596 149.757 137.854 149.757 138.178C149.757 138.538 149.937 138.796 150.297 138.952C150.669 139.096 151.239 139.234 152.007 139.366C152.775 139.486 153.405 139.624 153.897 139.78C154.389 139.936 154.809 140.2 155.157 140.572C155.517 140.944 155.697 141.472 155.697 142.156C155.697 143.056 155.307 143.776 154.527 144.316C153.747 144.856 152.685 145.126 151.341 145.126ZM163.412 144.478C163.148 144.694 162.824 144.856 162.44 144.964C162.068 145.072 161.672 145.126 161.252 145.126C160.196 145.126 159.38 144.85 158.804 144.298C158.228 143.746 157.94 142.942 157.94 141.886V137.26H156.356V135.46H157.94V133.264H160.19V135.46H162.764V137.26H160.19V141.832C160.19 142.3 160.304 142.66 160.532 142.912C160.76 143.152 161.09 143.272 161.522 143.272C162.026 143.272 162.446 143.14 162.782 142.876L163.412 144.478ZM168.935 135.28C170.351 135.28 171.431 135.622 172.175 136.306C172.931 136.978 173.309 137.998 173.309 139.366V145H171.185V143.83C170.909 144.25 170.513 144.574 169.997 144.802C169.493 145.018 168.881 145.126 168.161 145.126C167.441 145.126 166.811 145.006 166.271 144.766C165.731 144.514 165.311 144.172 165.011 143.74C164.723 143.296 164.579 142.798 164.579 142.246C164.579 141.382 164.897 140.692 165.533 140.176C166.181 139.648 167.195 139.384 168.575 139.384H171.059V139.24C171.059 138.568 170.855 138.052 170.447 137.692C170.051 137.332 169.457 137.152 168.665 137.152C168.125 137.152 167.591 137.236 167.063 137.404C166.547 137.572 166.109 137.806 165.749 138.106L164.867 136.468C165.371 136.084 165.977 135.79 166.685 135.586C167.393 135.382 168.143 135.28 168.935 135.28ZM168.629 143.488C169.193 143.488 169.691 143.362 170.123 143.11C170.567 142.846 170.879 142.474 171.059 141.994V140.878H168.737C167.441 140.878 166.793 141.304 166.793 142.156C166.793 142.564 166.955 142.888 167.279 143.128C167.603 143.368 168.053 143.488 168.629 143.488ZM180.121 140.878L178.447 142.462V145H176.197V131.644H178.447V139.708L183.109 135.388H185.809L181.795 139.42L186.187 145H183.451L180.121 140.878ZM187.552 135.388H189.802V145H187.552V135.388ZM188.686 133.804C188.278 133.804 187.936 133.678 187.66 133.426C187.384 133.162 187.246 132.838 187.246 132.454C187.246 132.07 187.384 131.752 187.66 131.5C187.936 131.236 188.278 131.104 188.686 131.104C189.094 131.104 189.436 131.23 189.712 131.482C189.988 131.722 190.126 132.028 190.126 132.4C190.126 132.796 189.988 133.132 189.712 133.408C189.448 133.672 189.106 133.804 188.686 133.804ZM198.209 135.28C199.421 135.28 200.393 135.634 201.125 136.342C201.857 137.05 202.223 138.1 202.223 139.492V145H199.973V139.78C199.973 138.94 199.775 138.31 199.379 137.89C198.983 137.458 198.419 137.242 197.687 137.242C196.859 137.242 196.205 137.494 195.725 137.998C195.245 138.49 195.005 139.204 195.005 140.14V145H192.755V135.388H194.897V136.63C195.269 136.186 195.737 135.85 196.301 135.622C196.865 135.394 197.501 135.28 198.209 135.28ZM214.705 135.388V143.542C214.705 146.926 212.977 148.618 209.521 148.618C208.597 148.618 207.721 148.498 206.893 148.258C206.065 148.03 205.381 147.694 204.841 147.25L205.849 145.558C206.269 145.906 206.797 146.182 207.433 146.386C208.081 146.602 208.735 146.71 209.395 146.71C210.451 146.71 211.225 146.47 211.717 145.99C212.209 145.51 212.455 144.778 212.455 143.794V143.29C212.071 143.71 211.603 144.028 211.051 144.244C210.499 144.46 209.893 144.568 209.233 144.568C208.321 144.568 207.493 144.376 206.749 143.992C206.017 143.596 205.435 143.044 205.003 142.336C204.583 141.628 204.373 140.818 204.373 139.906C204.373 138.994 204.583 138.19 205.003 137.494C205.435 136.786 206.017 136.24 206.749 135.856C207.493 135.472 208.321 135.28 209.233 135.28C209.929 135.28 210.559 135.394 211.123 135.622C211.699 135.85 212.179 136.198 212.563 136.666V135.388H214.705ZM209.575 142.66C210.427 142.66 211.123 142.408 211.663 141.904C212.215 141.388 212.491 140.722 212.491 139.906C212.491 139.102 212.215 138.448 211.663 137.944C211.123 137.44 210.427 137.188 209.575 137.188C208.711 137.188 208.003 137.44 207.451 137.944C206.911 138.448 206.641 139.102 206.641 139.906C206.641 140.722 206.911 141.388 207.451 141.904C208.003 142.408 208.711 142.66 209.575 142.66ZM228.416 144.478C228.152 144.694 227.828 144.856 227.444 144.964C227.072 145.072 226.676 145.126 226.256 145.126C225.2 145.126 224.384 144.85 223.808 144.298C223.232 143.746 222.944 142.942 222.944 141.886V137.26H221.36V135.46H222.944V133.264H225.194V135.46H227.768V137.26H225.194V141.832C225.194 142.3 225.308 142.66 225.536 142.912C225.764 143.152 226.094 143.272 226.526 143.272C227.03 143.272 227.45 143.14 227.786 142.876L228.416 144.478ZM234.271 145.126C233.299 145.126 232.423 144.916 231.643 144.496C230.863 144.076 230.251 143.494 229.807 142.75C229.375 141.994 229.159 141.142 229.159 140.194C229.159 139.246 229.375 138.4 229.807 137.656C230.251 136.912 230.863 136.33 231.643 135.91C232.423 135.49 233.299 135.28 234.271 135.28C235.255 135.28 236.137 135.49 236.917 135.91C237.697 136.33 238.303 136.912 238.735 137.656C239.179 138.4 239.401 139.246 239.401 140.194C239.401 141.142 239.179 141.994 238.735 142.75C238.303 143.494 237.697 144.076 236.917 144.496C236.137 144.916 235.255 145.126 234.271 145.126ZM234.271 143.2C235.099 143.2 235.783 142.924 236.323 142.372C236.863 141.82 237.133 141.094 237.133 140.194C237.133 139.294 236.863 138.568 236.323 138.016C235.783 137.464 235.099 137.188 234.271 137.188C233.443 137.188 232.759 137.464 232.219 138.016C231.691 138.568 231.427 139.294 231.427 140.194C231.427 141.094 231.691 141.82 232.219 142.372C232.759 142.924 233.443 143.2 234.271 143.2ZM255.563 140.248C255.563 140.404 255.551 140.626 255.527 140.914H247.985C248.117 141.622 248.459 142.186 249.011 142.606C249.575 143.014 250.271 143.218 251.099 143.218C252.155 143.218 253.025 142.87 253.709 142.174L254.915 143.56C254.483 144.076 253.937 144.466 253.277 144.73C252.617 144.994 251.873 145.126 251.045 145.126C249.989 145.126 249.059 144.916 248.255 144.496C247.451 144.076 246.827 143.494 246.383 142.75C245.951 141.994 245.735 141.142 245.735 140.194C245.735 139.258 245.945 138.418 246.365 137.674C246.797 136.918 247.391 136.33 248.147 135.91C248.903 135.49 249.755 135.28 250.703 135.28C251.639 135.28 252.473 135.49 253.205 135.91C253.949 136.318 254.525 136.9 254.933 137.656C255.353 138.4 255.563 139.264 255.563 140.248ZM250.703 137.08C249.983 137.08 249.371 137.296 248.867 137.728C248.375 138.148 248.075 138.712 247.967 139.42H253.421C253.325 138.724 253.031 138.16 252.539 137.728C252.047 137.296 251.435 137.08 250.703 137.08ZM261.132 135.28C262.548 135.28 263.628 135.622 264.372 136.306C265.128 136.978 265.506 137.998 265.506 139.366V145H263.382V143.83C263.106 144.25 262.71 144.574 262.194 144.802C261.69 145.018 261.078 145.126 260.358 145.126C259.638 145.126 259.008 145.006 258.468 144.766C257.928 144.514 257.508 144.172 257.208 143.74C256.92 143.296 256.776 142.798 256.776 142.246C256.776 141.382 257.094 140.692 257.73 140.176C258.378 139.648 259.392 139.384 260.772 139.384H263.256V139.24C263.256 138.568 263.052 138.052 262.644 137.692C262.248 137.332 261.654 137.152 260.862 137.152C260.322 137.152 259.788 137.236 259.26 137.404C258.744 137.572 258.306 137.806 257.946 138.106L257.064 136.468C257.568 136.084 258.174 135.79 258.882 135.586C259.59 135.382 260.34 135.28 261.132 135.28ZM260.826 143.488C261.39 143.488 261.888 143.362 262.32 143.11C262.764 142.846 263.076 142.474 263.256 141.994V140.878H260.934C259.638 140.878 258.99 141.304 258.99 142.156C258.99 142.564 259.152 142.888 259.476 143.128C259.8 143.368 260.25 143.488 260.826 143.488ZM270.536 136.792C271.184 135.784 272.324 135.28 273.956 135.28V137.422C273.764 137.386 273.59 137.368 273.434 137.368C272.558 137.368 271.874 137.626 271.382 138.142C270.89 138.646 270.644 139.378 270.644 140.338V145H268.394V135.388H270.536V136.792ZM281.319 135.28C282.531 135.28 283.503 135.634 284.235 136.342C284.967 137.05 285.333 138.1 285.333 139.492V145H283.083V139.78C283.083 138.94 282.885 138.31 282.489 137.89C282.093 137.458 281.529 137.242 280.797 137.242C279.969 137.242 279.315 137.494 278.835 137.998C278.355 138.49 278.115 139.204 278.115 140.14V145H275.865V135.388H278.007V136.63C278.379 136.186 278.847 135.85 279.411 135.622C279.975 135.394 280.611 135.28 281.319 135.28ZM299.264 145.18C297.98 145.18 296.822 144.904 295.79 144.352C294.758 143.788 293.948 143.014 293.36 142.03C292.772 141.034 292.478 139.924 292.478 138.7C292.478 137.476 292.772 136.372 293.36 135.388C293.948 134.392 294.758 133.618 295.79 133.066C296.822 132.502 297.98 132.22 299.264 132.22C300.548 132.22 301.706 132.502 302.738 133.066C303.77 133.618 304.58 134.386 305.168 135.37C305.756 136.354 306.05 137.464 306.05 138.7C306.05 139.936 305.756 141.046 305.168 142.03C304.58 143.014 303.77 143.788 302.738 144.352C301.706 144.904 300.548 145.18 299.264 145.18ZM299.264 143.128C300.104 143.128 300.86 142.942 301.532 142.57C302.204 142.186 302.732 141.658 303.116 140.986C303.5 140.302 303.692 139.54 303.692 138.7C303.692 137.86 303.5 137.104 303.116 136.432C302.732 135.748 302.204 135.22 301.532 134.848C300.86 134.464 300.104 134.272 299.264 134.272C298.424 134.272 297.668 134.464 296.996 134.848C296.324 135.22 295.796 135.748 295.412 136.432C295.028 137.104 294.836 137.86 294.836 138.7C294.836 139.54 295.028 140.302 295.412 140.986C295.796 141.658 296.324 142.186 296.996 142.57C297.668 142.942 298.424 143.128 299.264 143.128ZM313.948 145.18C312.208 145.18 310.852 144.694 309.88 143.722C308.908 142.738 308.422 141.334 308.422 139.51V132.4H310.762V139.42C310.762 141.892 311.83 143.128 313.966 143.128C316.09 143.128 317.152 141.892 317.152 139.42V132.4H319.456V139.51C319.456 141.334 318.97 142.738 317.998 143.722C317.038 144.694 315.688 145.18 313.948 145.18ZM330.977 145L328.403 141.31C328.295 141.322 328.133 141.328 327.917 141.328H325.073V145H322.733V132.4H327.917C329.009 132.4 329.957 132.58 330.761 132.94C331.577 133.3 332.201 133.816 332.633 134.488C333.065 135.16 333.281 135.958 333.281 136.882C333.281 137.83 333.047 138.646 332.579 139.33C332.123 140.014 331.463 140.524 330.599 140.86L333.497 145H330.977ZM330.923 136.882C330.923 136.078 330.659 135.46 330.131 135.028C329.603 134.596 328.829 134.38 327.809 134.38H325.073V139.402H327.809C328.829 139.402 329.603 139.186 330.131 138.754C330.659 138.31 330.923 137.686 330.923 136.882ZM341.785 145.18C340.501 145.18 339.343 144.904 338.311 144.352C337.279 143.788 336.469 143.014 335.881 142.03C335.293 141.034 334.999 139.924 334.999 138.7C334.999 137.476 335.293 136.372 335.881 135.388C336.469 134.392 337.279 133.618 338.311 133.066C339.343 132.502 340.501 132.22 341.785 132.22C343.069 132.22 344.227 132.502 345.259 133.066C346.291 133.618 347.101 134.386 347.689 135.37C348.277 136.354 348.571 137.464 348.571 138.7C348.571 139.936 348.277 141.046 347.689 142.03C347.101 143.014 346.291 143.788 345.259 144.352C344.227 144.904 343.069 145.18 341.785 145.18ZM341.785 143.128C342.625 143.128 343.381 142.942 344.053 142.57C344.725 142.186 345.253 141.658 345.637 140.986C346.021 140.302 346.213 139.54 346.213 138.7C346.213 137.86 346.021 137.104 345.637 136.432C345.253 135.748 344.725 135.22 344.053 134.848C343.381 134.464 342.625 134.272 341.785 134.272C340.945 134.272 340.189 134.464 339.517 134.848C338.845 135.22 338.317 135.748 337.933 136.432C337.549 137.104 337.357 137.86 337.357 138.7C337.357 139.54 337.549 140.302 337.933 140.986C338.317 141.658 338.845 142.186 339.517 142.57C340.189 142.942 340.945 143.128 341.785 143.128ZM152.122 157.28C153.538 157.28 154.618 157.622 155.362 158.306C156.118 158.978 156.496 159.998 156.496 161.366V167H154.372V165.83C154.096 166.25 153.7 166.574 153.184 166.802C152.68 167.018 152.068 167.126 151.348 167.126C150.628 167.126 149.998 167.006 149.458 166.766C148.918 166.514 148.498 166.172 148.198 165.74C147.91 165.296 147.766 164.798 147.766 164.246C147.766 163.382 148.084 162.692 148.72 162.176C149.368 161.648 150.382 161.384 151.762 161.384H154.246V161.24C154.246 160.568 154.042 160.052 153.634 159.692C153.238 159.332 152.644 159.152 151.852 159.152C151.312 159.152 150.778 159.236 150.25 159.404C149.734 159.572 149.296 159.806 148.936 160.106L148.054 158.468C148.558 158.084 149.164 157.79 149.872 157.586C150.58 157.382 151.33 157.28 152.122 157.28ZM151.816 165.488C152.38 165.488 152.878 165.362 153.31 165.11C153.754 164.846 154.066 164.474 154.246 163.994V162.878H151.924C150.628 162.878 149.98 163.304 149.98 164.156C149.98 164.564 150.142 164.888 150.466 165.128C150.79 165.368 151.24 165.488 151.816 165.488ZM164.837 157.28C166.049 157.28 167.021 157.634 167.753 158.342C168.485 159.05 168.851 160.1 168.851 161.492V167H166.601V161.78C166.601 160.94 166.403 160.31 166.007 159.89C165.611 159.458 165.047 159.242 164.315 159.242C163.487 159.242 162.833 159.494 162.353 159.998C161.873 160.49 161.633 161.204 161.633 162.14V167H159.383V157.388H161.525V158.63C161.897 158.186 162.365 157.85 162.929 157.622C163.493 157.394 164.129 157.28 164.837 157.28ZM181.207 153.644V167H179.047V165.758C178.675 166.214 178.213 166.556 177.661 166.784C177.121 167.012 176.521 167.126 175.861 167.126C174.937 167.126 174.103 166.922 173.359 166.514C172.627 166.106 172.051 165.53 171.631 164.786C171.211 164.03 171.001 163.166 171.001 162.194C171.001 161.222 171.211 160.364 171.631 159.62C172.051 158.876 172.627 158.3 173.359 157.892C174.103 157.484 174.937 157.28 175.861 157.28C176.497 157.28 177.079 157.388 177.607 157.604C178.135 157.82 178.585 158.144 178.957 158.576V153.644H181.207ZM176.131 165.2C176.671 165.2 177.157 165.08 177.589 164.84C178.021 164.588 178.363 164.234 178.615 163.778C178.867 163.322 178.993 162.794 178.993 162.194C178.993 161.594 178.867 161.066 178.615 160.61C178.363 160.154 178.021 159.806 177.589 159.566C177.157 159.314 176.671 159.188 176.131 159.188C175.591 159.188 175.105 159.314 174.673 159.566C174.241 159.806 173.899 160.154 173.647 160.61C173.395 161.066 173.269 161.594 173.269 162.194C173.269 162.794 173.395 163.322 173.647 163.778C173.899 164.234 174.241 164.588 174.673 164.84C175.105 165.08 175.591 165.2 176.131 165.2ZM195.227 167.18C193.943 167.18 192.785 166.904 191.753 166.352C190.721 165.788 189.911 165.014 189.323 164.03C188.735 163.034 188.441 161.924 188.441 160.7C188.441 159.476 188.735 158.372 189.323 157.388C189.911 156.392 190.721 155.618 191.753 155.066C192.785 154.502 193.943 154.22 195.227 154.22C196.511 154.22 197.669 154.502 198.701 155.066C199.733 155.618 200.543 156.386 201.131 157.37C201.719 158.354 202.013 159.464 202.013 160.7C202.013 161.936 201.719 163.046 201.131 164.03C200.543 165.014 199.733 165.788 198.701 166.352C197.669 166.904 196.511 167.18 195.227 167.18ZM195.227 165.128C196.067 165.128 196.823 164.942 197.495 164.57C198.167 164.186 198.695 163.658 199.079 162.986C199.463 162.302 199.655 161.54 199.655 160.7C199.655 159.86 199.463 159.104 199.079 158.432C198.695 157.748 198.167 157.22 197.495 156.848C196.823 156.464 196.067 156.272 195.227 156.272C194.387 156.272 193.631 156.464 192.959 156.848C192.287 157.22 191.759 157.748 191.375 158.432C190.991 159.104 190.799 159.86 190.799 160.7C190.799 161.54 190.991 162.302 191.375 162.986C191.759 163.658 192.287 164.186 192.959 164.57C193.631 164.942 194.387 165.128 195.227 165.128ZM213.098 160.556H215.312V165.578C214.664 166.094 213.908 166.49 213.044 166.766C212.18 167.042 211.292 167.18 210.38 167.18C209.096 167.18 207.938 166.904 206.906 166.352C205.874 165.788 205.064 165.014 204.476 164.03C203.888 163.046 203.594 161.936 203.594 160.7C203.594 159.464 203.888 158.354 204.476 157.37C205.064 156.386 205.874 155.618 206.906 155.066C207.95 154.502 209.12 154.22 210.416 154.22C211.472 154.22 212.432 154.394 213.296 154.742C214.16 155.09 214.886 155.6 215.474 156.272L213.998 157.712C213.038 156.752 211.88 156.272 210.524 156.272C209.636 156.272 208.844 156.458 208.148 156.83C207.464 157.202 206.924 157.724 206.528 158.396C206.144 159.068 205.952 159.836 205.952 160.7C205.952 161.54 206.144 162.296 206.528 162.968C206.924 163.64 207.464 164.168 208.148 164.552C208.844 164.936 209.63 165.128 210.506 165.128C211.49 165.128 212.354 164.912 213.098 164.48V160.556ZM222.304 167.18C221.332 167.18 220.39 167.042 219.478 166.766C218.578 166.49 217.864 166.124 217.336 165.668L218.146 163.85C218.662 164.258 219.292 164.594 220.036 164.858C220.792 165.11 221.548 165.236 222.304 165.236C223.24 165.236 223.936 165.086 224.392 164.786C224.86 164.486 225.094 164.09 225.094 163.598C225.094 163.238 224.962 162.944 224.698 162.716C224.446 162.476 224.122 162.29 223.726 162.158C223.33 162.026 222.79 161.876 222.106 161.708C221.146 161.48 220.366 161.252 219.766 161.024C219.178 160.796 218.668 160.442 218.236 159.962C217.816 159.47 217.606 158.81 217.606 157.982C217.606 157.286 217.792 156.656 218.164 156.092C218.548 155.516 219.118 155.06 219.874 154.724C220.642 154.388 221.578 154.22 222.682 154.22C223.45 154.22 224.206 154.316 224.95 154.508C225.694 154.7 226.336 154.976 226.876 155.336L226.138 157.154C225.586 156.83 225.01 156.584 224.41 156.416C223.81 156.248 223.228 156.164 222.664 156.164C221.74 156.164 221.05 156.32 220.594 156.632C220.15 156.944 219.928 157.358 219.928 157.874C219.928 158.234 220.054 158.528 220.306 158.756C220.57 158.984 220.9 159.164 221.296 159.296C221.692 159.428 222.232 159.578 222.916 159.746C223.852 159.962 224.62 160.19 225.22 160.43C225.82 160.658 226.33 161.012 226.75 161.492C227.182 161.972 227.398 162.62 227.398 163.436C227.398 164.132 227.206 164.762 226.822 165.326C226.45 165.89 225.88 166.34 225.112 166.676C224.344 167.012 223.408 167.18 222.304 167.18Z" fill="#233433"/>
<path d="M264.017 68.6072C266.957 76.4661 283.176 78.9973 290.339 79.6307C294.014 80.0529 300.055 79.6934 305.258 78.7245C309.494 77.9356 313.147 76.783 315.5 74.6724C317.607 72.7834 318.072 71.0029 317.561 68.8748C316.771 66.7411 314.453 65.6429 312.768 65.2389C313.107 57.2784 306.173 49.9015 301.669 46.9861C297.874 44.8796 293.438 44.0508 288.112 44.1892C282.775 44.3278 276.278 46.5286 272.318 49.6918C269.18 52.1984 266.621 55.93 265.599 57.7482C264.32 60.0254 262.391 64.2623 264.017 68.6072Z" fill="#B9ED4A" stroke="black" stroke-width="1.62573" stroke-linejoin="round"/>
<path d="M277.35 60.1397C277.09 60.5126 276.232 61.3321 275.679 61.7444" stroke="black" stroke-width="0.60965" stroke-linecap="round"/>
<path d="M269.047 59.3402C270.062 59.4197 272.176 59.7293 274.133 59.6707C277.639 59.5657 279.189 60.2023 281.23 60.2943C282.665 60.359 285.972 60.164 285.972 60.164" stroke="black" stroke-width="0.406434" stroke-linecap="round" stroke-linejoin="round"/>
<circle cx="271.535" cy="53.5406" r="1.2193" transform="rotate(8.29216 271.535 53.5406)" fill="black"/>
<circle cx="275.804" cy="58.0663" r="0.406434" transform="rotate(8.29216 275.804 58.0663)" fill="black"/>
<circle cx="278.648" cy="58.2753" r="0.406434" transform="rotate(8.29216 278.648 58.2753)" fill="black"/>
<circle cx="286.131" cy="54.8472" r="1.42252" transform="rotate(8.29216 286.131 54.8472)" fill="black"/>
<path d="M291.485 61.7882C292.459 61.2113 293.471 60.8454 294.015 61.3356C294.56 61.8258 294.615 62.8604 292.026 63.7152" stroke="black" stroke-width="1.2193" stroke-linecap="round"/>
<path d="M265.013 58.8306C265.146 56.5122 260.177 55.377 264.04 61.2797L265.013 58.8306Z" fill="#B9ED4A" stroke="black" stroke-width="1.42252"/>
<path d="M295.357 35.1981C294.266 34.4708 293.596 35.9457 293.528 36.4199L295.763 36.8228C295.763 36.8228 295.966 35.6046 295.357 35.1981Z" fill="white" stroke="black" stroke-width="0.812867"/>
<path d="M294.344 36.6254C290.079 36.4272 287.702 40.346 287.025 42.5137C288.163 47.2243 296.576 46.915 300.64 46.1714C300.64 45.5618 299.637 36.8714 294.344 36.6254Z" fill="white" stroke="black" stroke-width="0.812867"/>
<path d="M293.324 45.5626C293.934 43.5305 294.137 40.279 294.137 36.6211L295.153 36.8243C297.389 40.4822 297.795 42.9208 297.998 46.1723C296.86 46.3349 294.34 45.9013 293.324 45.5626Z" fill="black"/>
<path d="M288.65 43.3272C289.138 39.7506 292.512 37.3662 293.934 36.6211L294.544 36.8243C292.268 39.2629 290.954 43.0563 290.683 44.5465L288.65 43.3272Z" fill="black"/>
<path d="M286.822 42.3111C292.349 46.2129 298.54 46.3754 300.844 45.9689L301.047 46.985C299.76 47.4592 296.21 48.123 292.308 46.985C287.431 45.5625 284.586 43.5303 283.367 42.5142C282.148 41.4982 277.27 37.6371 280.725 37.2307C283.489 36.9056 285.941 40.4822 286.822 42.3111Z" fill="black" stroke="black" stroke-width="0.406434"/>
</g>
<defs>
<clipPath id="clip0">
<rect width="375" height="240" fill="white"/>
</clipPath>
</defs>
</svg>
