<svg width="375" height="200" viewBox="0 0 375 200" fill="none" xmlns="http://www.w3.org/2000/svg">
<g clip-path="url(#clip0)">
<rect width="375" height="200" fill="#F6F6F6"/>
<g opacity="0.5">
<path fill-rule="evenodd" clip-rule="evenodd" d="M-340.427 56.2459C-396.032 19.7591 -453.501 -17 -532 -17V-14C-454.499 -14 -397.718 22.2409 -342.073 58.7541C-340.963 59.4821 -339.854 60.2103 -338.746 60.9382L-338.611 61.0267C-284.243 96.723 -230.513 132 -159.5 132C-56.8622 132 19.9305 98.0366 89.2761 67.367C100.458 62.4216 111.446 57.5619 122.317 52.944C161.497 36.3016 199.131 22.8049 238.958 19.5685C278.743 16.3354 320.803 23.3364 368.818 47.8434C434.127 81.1771 521.751 118.315 629.734 101.238C699.49 90.2066 737.254 73.9154 770.305 59.6572L770.312 59.6543L770.388 59.6213C772.938 58.5215 775.459 57.4339 777.965 56.3617C812.845 41.4389 844.765 29.5 908 29.5V26.5C844.235 26.5 811.905 38.5785 776.785 53.6035C774.249 54.6885 771.699 55.7887 769.121 56.9008C736.135 71.1304 698.647 87.3025 629.266 98.2748C522.249 115.199 435.341 78.4286 370.182 45.1713C321.697 20.4246 279.084 13.2979 238.715 16.5783C198.388 19.8555 160.387 33.5136 121.144 50.1828C110.221 54.8227 99.1986 59.6964 87.9977 64.6489C18.6511 95.3111 -57.5407 129 -159.5 129C-229.606 129 -282.662 94.1687 -337.217 58.3528C-338.287 57.6508 -339.356 56.9484 -340.427 56.2459ZM-340.524 72.6872C-396.146 41.9388 -453.575 11 -532 11V14C-454.425 14 -397.604 44.5612 -341.976 75.3128L-340.181 76.3051L-338.54 77.2126C-284.144 107.301 -230.451 137 -159.5 137C-55.8381 137 24.4695 107.376 96.4979 80.8058C107.244 76.8415 117.807 72.9453 128.235 69.2255C208.575 40.5678 280.929 22.3726 368.866 63.3612C433.978 93.7103 521.833 119.616 629.688 106C699.349 97.205 737.084 84.2813 770.111 72.9699C772.718 72.0771 775.296 71.1944 777.857 70.3245C812.752 58.4748 844.709 49 908 49V46C844.291 46 811.998 55.5622 776.893 67.4838C774.336 68.3521 771.765 69.2328 769.165 70.1231L769.143 70.1307C736.175 81.4216 698.668 94.2671 629.312 103.023C522.167 116.55 434.889 90.8251 370.134 60.6421C281.071 19.1291 207.733 37.683 127.227 66.3999C116.763 70.1323 106.178 74.0362 95.42 78.0039C23.3867 104.57 -56.4093 134 -159.5 134C-229.668 134 -282.76 104.635 -337.287 74.4775L-337.377 74.4275L-339.405 73.3059L-340.524 72.6872ZM-532 35C-453.638 35 -396.248 61.1374 -340.615 87.1411C-339.528 87.649 -338.442 88.1569 -337.357 88.6645C-282.85 114.155 -229.723 139 -159.5 139C-55.6372 139 21.8747 114.574 92.4327 92.3392L92.4395 92.337L92.4462 92.3349C102.409 89.1954 112.233 86.0997 121.973 83.1226C200.717 59.0538 273.93 42.7685 369.969 74.3666C437.383 96.547 522.152 118.783 629.35 108.041C698.292 101.132 735.786 91.3402 768.607 82.7688L768.622 82.7648C771.443 82.028 774.23 81.3003 776.999 80.5841C812.088 71.51 844.343 64.313 908 64.313V67.313C844.657 67.313 812.662 74.4605 777.751 83.4886C774.979 84.2055 772.188 84.9342 769.362 85.6723C736.494 94.2559 698.823 104.094 629.65 111.026C521.848 121.828 436.617 99.453 369.031 77.2164C273.884 45.9114 201.405 61.9804 122.849 85.9916C113.138 88.96 103.333 92.0503 93.3806 95.1869L93.3694 95.1905L93.3619 95.1929L93.3568 95.1945C22.7958 117.434 -55.149 142 -159.5 142C-230.396 142 -284.054 116.905 -338.47 91.4558L-340.37 90.5671L-341.885 89.8589C-397.502 63.8626 -454.362 38 -532 38V35ZM-340.742 104.088C-396.383 84.0828 -453.72 64 -532 64V67C-454.28 67 -397.367 86.9172 -341.758 106.912L-339.76 107.63L-338.365 108.132C-283.929 127.715 -230.323 147 -159.5 147C-50.9421 147 30.497 128.583 104.322 111.888C111.424 110.282 118.455 108.692 125.434 107.136C204.944 89.4041 277.539 76.0728 369.221 93.405C372.43 94.0115 375.614 94.615 378.776 95.2144C459.389 110.494 525.957 123.112 629.601 116.126C698.738 111.465 736.381 104.852 769.243 99.0788L769.258 99.0761C772.079 98.5806 774.865 98.0912 777.632 97.6098C812.569 91.5322 844.606 86.7187 908 86.7187V83.7187C844.394 83.7187 812.181 88.5545 777.118 94.6542C774.345 95.1366 771.554 95.6269 768.728 96.1233L768.727 96.1235L768.726 96.1237C735.899 101.891 698.377 108.482 629.399 113.132C526.142 120.093 459.895 107.536 379.293 92.2589L379.264 92.2534C376.125 91.6585 372.964 91.0594 369.779 90.4572C277.465 73.0057 204.368 86.4588 124.781 104.208C117.801 105.764 110.771 107.354 103.673 108.959C29.8505 125.652 -51.2895 144 -159.5 144C-229.796 144 -282.975 124.869 -337.461 105.269L-339.249 104.626C-339.746 104.447 -340.244 104.268 -340.742 104.088ZM-532 89C-453.789 89 -396.502 104.047 -340.859 119.052L-337.562 119.941C-283.087 134.639 -229.859 149 -159.5 149C-48.0515 149 31.7565 135.201 105.574 122.439L105.584 122.437C110.36 121.611 115.111 120.79 119.843 119.977C197.752 106.593 270.757 95.4719 369.638 104.639C380.704 105.664 392.154 106.818 404.025 108.014L404.026 108.014C465.954 114.255 539.338 121.65 629.44 118.057C698.45 115.306 735.996 111.405 768.83 107.994L768.84 107.993C771.663 107.699 774.451 107.41 777.221 107.124C812.26 103.52 844.438 100.662 908 100.662V103.662C844.562 103.662 812.49 106.512 777.529 110.109C774.756 110.394 771.965 110.684 769.139 110.978C736.284 114.391 698.665 118.3 629.56 121.055C539.229 124.656 465.62 117.238 403.687 110.996C391.829 109.801 380.399 108.649 369.362 107.626C270.886 98.4967 198.199 109.56 120.351 122.934C115.62 123.746 110.869 124.568 106.093 125.394L106.067 125.398C32.2388 138.163 -47.7888 152 -159.5 152C-230.26 152 -283.817 137.55 -338.264 122.859C-339.389 122.556 -340.515 122.252 -341.641 121.948C-397.248 106.953 -454.211 92 -532 92V89Z" fill="url(#paint0_linear)"/>
</g>
<path d="M272.982 59.8485C275.955 70.4295 296.845 75.5173 306.126 77.1321C310.875 78.0874 318.799 78.2827 325.697 77.5904C331.312 77.0267 336.207 75.9241 339.511 73.4284C342.469 71.1946 343.271 68.9218 342.838 66.0878C342.042 63.2161 339.137 61.5277 336.983 60.815C338.301 50.4622 330.062 40.0711 324.504 35.7704C319.783 32.6035 314.083 31.0338 307.117 30.6285C300.136 30.2224 291.414 32.3802 285.898 36.0733C281.526 38.9996 277.775 43.5886 276.242 45.8494C274.321 48.6809 271.337 53.9987 272.982 59.8485Z" fill="#B9ED4A" stroke="black" stroke-width="2.12944" stroke-linejoin="round"/>
<path d="M291.317 50.2627C290.937 50.7208 289.726 51.696 288.959 52.1733" stroke="black" stroke-width="0.798541" stroke-linecap="round"/>
<path d="M280.567 48.3059C281.883 48.5213 284.608 49.158 287.169 49.2967C291.757 49.5454 293.71 50.5469 296.363 50.8914C298.229 51.1337 302.567 51.243 302.567 51.243" stroke="black" stroke-width="0.532361" stroke-linecap="round" stroke-linejoin="round"/>
<circle cx="284.452" cy="41.0115" r="1.59708" transform="rotate(13.1097 284.452 41.0115)" fill="black"/>
<circle cx="289.527" cy="47.3861" r="0.532361" transform="rotate(13.1097 289.527 47.3861)" fill="black"/>
<circle cx="293.217" cy="47.972" r="0.532361" transform="rotate(13.1097 293.217 47.972)" fill="black"/>
<circle cx="303.359" cy="44.3215" r="1.86326" transform="rotate(13.1097 303.359 44.3215)" fill="black"/>
<path d="M309.584 53.9703C310.919 53.3246 312.28 52.9582 312.937 53.658C313.594 54.3577 313.551 55.714 310.078 56.545" stroke="black" stroke-width="1.59708" stroke-linecap="round"/>
<path d="M275.359 47.1979C275.787 44.1864 269.427 42.1582 273.819 50.2875L275.359 47.1979Z" fill="#B9ED4A" stroke="black" stroke-width="1.86326"/>
</g>
<defs>
<linearGradient id="paint0_linear" x1="-532" y1="36.8456" x2="908" y2="36.8456" gradientUnits="userSpaceOnUse">
<stop stop-color="#75BEEE" stop-opacity="0.64"/>
<stop offset="1" stop-color="#B9ED4C"/>
</linearGradient>
<clipPath id="clip0">
<rect width="375" height="200" fill="white"/>
</clipPath>
</defs>
</svg>
